<svg width="87" height="80" viewBox="0 0 87 80" fill="none" xmlns="http://www.w3.org/2000/svg">
<rect width="87" height="80" fill="#26262E"/>
<path fill-rule="evenodd" clip-rule="evenodd" d="M57.7959 30.7142L59.793 24.6104C59.793 24.6104 60.1242 23.7673 60.8928 23.893C61.662 24.0192 62.0693 24.6138 61.7056 26.4139C61.3426 28.2136 60.8535 29.9411 60.4007 31.5323C59.9484 33.1228 59.07 35.5313 58.3062 35.9007C57.5428 36.2697 56.6318 35.7075 56.6058 35.0327C56.5793 34.3577 57.792 30.6881 57.7957 30.7144L57.7959 30.7142ZM67.3947 38.1197L72.7923 34.6394C72.7923 34.6394 73.5232 34.1047 73.2066 33.3931C72.8899 32.6816 72.2108 32.438 70.5621 33.2467C68.9138 34.0548 67.3664 34.9658 65.9421 35.8076C64.5183 36.6485 62.412 38.1097 62.2484 38.9421C62.0855 39.7744 62.8598 40.5125 63.5195 40.3666C64.1788 40.2208 67.4207 38.1166 67.3944 38.1199L67.3947 38.1197ZM73.3876 34.0841C73.4588 34.1159 73.5173 34.1571 73.5567 34.2112C73.8432 34.6072 74.0617 35.8161 74.0617 35.8161C74.0617 35.8161 74.1073 36.2476 73.2903 36.8335C72.4734 37.4192 70.7683 38.641 70.7683 38.641L71.4942 40.3166C71.4942 40.3166 71.8944 41.2453 71.2604 41.6087C70.6262 41.9729 70.3251 41.0043 70.3251 41.0043L69.7029 39.3439C69.7029 39.3439 67.2753 40.8369 66.261 41.3986C65.2467 41.9605 64.2841 42.0125 64.0172 41.9002C63.7503 41.7878 63.4452 41.4003 63.2274 41.0923C63.1035 40.9164 63.0701 40.705 63.0733 40.5175C63.2248 40.5557 63.3856 40.561 63.5499 40.5246C64.0181 40.4209 65.1052 39.7423 65.5414 39.4788C65.9928 39.2062 66.4409 38.9269 66.8853 38.6429C67.0316 38.5499 67.1774 38.4559 67.3226 38.3612C67.3624 38.3346 67.4032 38.3083 67.4428 38.2809C67.4554 38.2729 67.467 38.2635 67.4771 38.2539L72.8822 34.7707C73.1207 34.6013 73.302 34.3549 73.3876 34.0845L73.3876 34.0841ZM73.276 36.9967C73.3361 37.1891 73.3923 37.4626 73.3371 37.7088C73.2802 37.9648 72.3859 38.7913 71.336 39.6335L70.9242 38.682C71.7103 38.1252 72.4926 37.5589 73.2761 36.9965L73.276 36.9967ZM70.0451 40.6157C69.7088 40.8572 69.3842 41.0783 69.0922 41.2608C67.5043 42.2555 66.8718 42.4113 66.4584 42.3264C66.2402 42.2815 65.8811 42.0427 65.5895 41.8267C65.8816 41.7233 66.1441 41.6049 66.3191 41.5082C67.4258 40.8958 68.5603 40.2067 69.6385 39.531L70.0451 40.6157ZM70.8088 41.7662C70.8088 41.7662 70.4573 41.7058 70.087 40.7532C70.087 40.7532 69.6194 41.1524 69.3552 41.2287C69.3552 41.2287 70.0174 42.2312 70.8088 41.7662ZM71.798 40.8694C71.798 40.8694 71.8668 40.4552 71.5627 39.9628L75.2756 35.9776L75.4762 35.9677L75.7481 34.1079C75.7481 34.1079 75.6003 33.9233 75.5624 33.5373C75.5237 33.1508 75.6345 32.372 75.6345 32.372C75.6345 32.372 75.4263 32.2702 75.4367 31.5186C75.4871 27.7263 74.2742 25.2991 71.4127 22.9932C68.5514 20.7857 65.6609 20.2863 62.1402 21.2602C61.4156 21.4612 61.2645 21.2854 61.2645 21.2854C61.2645 21.2854 60.5395 21.5903 60.1561 21.6513C59.7728 21.7123 59.5561 21.6157 59.5561 21.6157L57.8262 22.3506L57.8681 22.5476L54.9553 27.1501C54.4021 26.9809 54.0188 27.1527 54.0188 27.1527C54.0366 27.1358 56.7128 21.7176 56.7128 21.7176L57.0041 21.872C59.8831 17.3134 63.3847 16.3207 65.3518 16.0152C68.6442 15.5051 72.1744 16.6786 74.6935 18.7366C77.3227 20.6499 79.3539 23.7679 79.6953 27.0812C79.8988 29.0617 79.8271 32.7008 76.1483 36.6418L76.3716 36.8844C76.3716 36.8844 71.8097 40.8481 71.7981 40.8695L71.798 40.8694ZM71.7837 22.5084C73.8833 24.0994 75.6856 26.7129 76.1195 29.3806C76.4374 31.3321 76.1548 33.8847 76.1548 33.8847C76.1548 33.8847 76.1416 34.108 75.9599 34.1665L75.6103 36.037C75.6103 36.037 78.3977 33.608 79.0138 29.5012C79.4919 26.3103 77.8772 23.3405 75.8145 21.1025C75.2643 20.5202 74.6795 19.9915 74.0849 19.5267C73.4844 19.0695 72.8237 18.6373 72.1206 18.2526C69.4327 16.8255 66.1505 16.0173 63.1855 17.2896C59.3696 18.9277 57.7268 22.2398 57.7268 22.2398L59.448 21.4274C59.4577 21.2363 59.6709 21.1673 59.6709 21.1673C59.6709 21.1673 62.0683 20.2465 64.0364 20.0584C66.7267 19.8012 69.712 20.8813 71.7843 22.5089L71.7837 22.5084ZM60.1792 23.8933C60.1307 23.8327 60.0757 23.7864 60.0133 23.762C59.5573 23.5851 58.3328 23.6807 58.3328 23.6807C58.3328 23.6807 57.9043 23.7465 57.5445 24.6851C57.1849 25.6235 56.4359 27.5831 56.4359 27.5831L54.6312 27.3062C54.6312 27.3062 53.6315 27.1549 53.4407 27.8602C53.2494 28.5661 54.2625 28.6115 54.2625 28.6115L56.0264 28.7919C56.0264 28.7919 55.1986 31.5193 54.9123 32.6425C54.6267 33.7667 54.8205 34.7108 54.9965 34.9402C55.1735 35.1702 55.6251 35.3666 55.9784 35.4991C56.1799 35.5744 56.3929 35.553 56.574 35.5028C56.499 35.3662 56.4523 35.2115 56.446 35.0434C56.4275 34.5643 56.8078 33.3404 56.9519 32.8515C57.101 32.3457 57.2577 31.8415 57.4193 31.3393C57.4726 31.1746 57.5265 31.0098 57.5815 30.8454C57.5964 30.7995 57.6122 30.754 57.6277 30.708C57.6326 30.6941 57.6389 30.6806 57.6455 30.6683L59.6434 24.5564C59.7469 24.2828 59.939 24.0449 60.1789 23.8934L60.1792 23.8933ZM57.3903 24.7403C57.1891 24.7311 56.9097 24.7458 56.6859 24.8619C56.4533 24.9824 55.8799 26.0563 55.3317 27.2856L56.3565 27.4425C56.6958 26.541 57.0453 25.6407 57.3904 24.7401L57.3903 24.7403ZM54.7095 28.7838C54.5609 29.1701 54.4298 29.5404 54.3274 29.8691C53.768 31.6574 53.7778 32.3087 53.965 32.6872C54.0632 32.8865 54.3863 33.1739 54.6686 33.4007C54.6946 33.092 54.7428 32.8083 54.7915 32.6141C55.1036 31.3887 55.4817 30.116 55.8619 28.9018L54.7095 28.7838ZM53.4027 28.3369C53.4027 28.3369 53.5506 28.6617 54.5658 28.778C54.5658 28.778 54.2988 29.3321 54.2915 29.6066C54.2915 29.6066 53.1538 29.2204 53.4027 28.3369ZM80.2911 21.9499C80.2911 21.9499 79.8593 21.8605 79.6625 22.1155C79.4663 22.3698 79.4316 22.722 79.4316 22.722C79.4316 22.722 79.9995 24.1083 80.2474 24.2995C80.4953 24.4908 80.7999 24.7801 80.9178 25.2774C81.0361 25.7744 82.9343 29.0557 78.0266 36.1002C73.1193 43.1451 70.0425 42.2061 68.7251 41.7582L68.3047 42.0297C68.3047 42.0297 73.6812 44.878 78.6074 36.4403C83.5339 28.0024 81.6719 24.9419 81.6719 24.9419C81.6719 24.9419 81.2859 24.2098 81.364 23.972C81.442 23.7341 81.1322 22.4935 80.2903 21.9506L80.2911 21.9499Z" fill="#FF8E0A"/>
<path d="M31.582 72.6763C31.5884 72.6817 31.5954 72.6866 31.6017 72.6904L31.6841 72.7362C31.7006 72.7479 31.719 72.7568 31.7388 72.7606C31.7503 72.7652 31.7609 72.7714 31.7705 72.7787C31.8011 72.7851 31.8357 72.7985 31.8631 72.8013C31.9385 72.8066 32.0139 72.7912 32.0818 72.7565C32.0032 72.5709 31.9549 72.374 31.9394 72.1736C31.9365 72.1323 31.9361 72.0915 31.9378 72.0506L31.943 71.9965L31.9445 71.951C31.9481 71.9394 31.9515 71.9237 31.9515 71.9237L31.9576 71.8888C31.9759 71.7969 32.0026 71.7067 32.0393 71.6207C32.1589 71.3602 32.3376 71.1311 32.5609 70.9526C32.6864 70.8413 32.8223 70.7429 32.9666 70.6576C33.0698 70.5871 33.1453 70.5614 33.1847 70.5895C33.2241 70.6177 33.2237 70.6984 33.1877 70.8211C33.1186 70.9831 33.0357 71.1379 32.9386 71.2847C32.6508 71.7345 32.4531 72.3193 32.9264 72.7488C32.9424 72.7713 32.9472 72.7861 32.963 72.7937L32.9788 72.8121L32.9868 72.8194C33.0314 72.838 33.0789 72.8519 33.1262 72.8626C33.17 72.8745 33.2156 72.8817 33.261 72.8827L33.3298 72.8909C33.3375 72.8905 33.3413 72.8945 33.3532 72.8976C33.3647 72.9006 33.3529 72.8898 33.3615 72.9086C33.3654 72.9048 33.369 72.9046 33.3724 72.9003C33.3373 72.7762 33.3195 72.6488 33.3202 72.52C33.3258 72.3512 33.3571 72.1847 33.4125 72.0255C33.4947 71.7796 33.6168 71.5485 33.7734 71.3421C34.0396 70.992 34.2968 70.8694 34.3606 70.9352C34.4249 71.001 34.3322 71.2313 34.2118 71.5854C34.1417 71.7832 34.0843 71.986 34.0414 72.1917C33.928 72.8636 34.4568 72.9254 34.8105 72.4202C35.0022 72.0938 35.265 71.8152 35.5795 71.6066C35.9031 71.4266 36.2655 71.3524 36.5846 71.1545C37.1962 70.7511 37.7106 70.2157 38.0899 69.5868C38.8524 68.2673 39.3748 66.8223 39.6339 65.3194C39.6413 65.2912 39.6498 65.2639 39.661 65.2375C39.6733 65.1154 39.7256 65.0013 39.8095 64.9126C42.4617 62.0147 42.7025 58.0959 43.8516 54.5129C43.7409 54.6101 43.6296 54.697 43.5275 54.7695C43.1957 55.0031 42.9592 55.0855 42.8992 55.0247C42.7769 54.8731 43.4665 54.1874 44.1141 53.2745C44.1858 53.1677 44.2496 53.0691 44.3097 52.9665C44.4689 52.3726 44.4593 51.7453 44.2826 51.1556C43.9169 50.0959 43.2499 48.2915 41.7462 48.499C40.4864 48.6735 39.4061 49.336 38.2497 49.8071C38.352 50.2037 38.4319 50.6064 38.4884 51.0129C38.5792 51.1953 38.658 51.3835 38.7246 51.5764C38.8011 51.7942 38.8634 52.0163 38.9115 52.2421C38.9361 52.363 38.9463 52.4929 38.9595 52.6226L38.9799 52.8176L38.9803 52.9914L38.9809 53.1713L38.9809 53.2592L38.9789 53.3048L38.9775 53.3514L38.9744 53.3743L38.976 53.3748C38.9623 53.5006 38.9413 53.6257 38.9131 53.7495C38.9061 53.7876 38.8965 53.8248 38.8844 53.8621C38.8402 54.0508 38.7824 54.2371 38.7121 54.4177C38.632 54.6211 38.5294 54.8146 38.4071 54.9951C38.3498 55.0815 38.2846 55.1622 38.2124 55.2358C38.1406 55.3074 38.0623 55.3716 37.9774 55.4267L37.8989 55.465C37.9336 55.5591 37.9689 55.6536 38.0073 55.7496C38.0521 55.8706 38.049 56.0037 37.9984 56.1219C37.9948 56.1329 37.9952 56.1411 37.9921 56.1527C37.2345 58.6398 36.3301 61.1688 35.7386 63.6987C35.7143 63.8069 35.6587 63.9057 35.5789 63.9823C35.575 63.9866 35.5752 63.9903 35.5711 63.9905C34.4016 65.3553 33.3097 66.7842 32.3008 68.273C32.2327 68.3796 32.132 68.4608 32.0142 68.5046C31.9201 68.5948 31.7964 68.6471 31.6664 68.6511C30.8422 68.7085 29.8388 69.1953 30.0064 70.1339L30.0351 70.0984C30.1141 69.9835 30.1884 69.8653 30.2784 69.7535C30.4228 69.5389 30.6562 69.4014 30.913 69.3796C31.0666 69.3957 31.1415 69.4455 31.1487 69.4912C31.156 69.5374 31.0729 69.5863 30.9544 69.6497C30.8434 69.7521 30.7577 69.8791 30.7051 70.0212C30.6605 70.1231 30.6127 70.2479 30.5433 70.3928L30.4833 70.5068C30.4701 70.5343 30.4544 70.5609 30.437 70.5855L30.4052 70.6325C30.2622 70.8424 29.916 71.0234 29.8672 71.2786C29.8123 71.5708 30.1584 71.8861 30.4071 71.9775C30.5116 72.013 30.6224 72.0264 30.7325 72.0161L30.771 72.0144L30.7832 72.0329C30.8209 72.0234 30.8556 72.0296 30.8892 72.0202C30.9044 72.0154 30.9236 72.0186 30.9352 72.014C30.9381 72.0112 30.9427 72.01 30.9468 72.0103C30.9729 71.9284 31.0003 71.8542 31.0202 71.7959C31.0398 71.7412 31.0547 71.6857 31.066 71.6288C31.0748 71.5746 31.0784 71.5191 31.0774 71.4638C31.0708 71.3224 31.0675 71.1747 31.0723 71.0348C31.062 70.7028 31.2031 70.3844 31.4556 70.1704C31.6232 70.0328 31.8372 69.9649 32.053 69.9818C32.17 70.0188 32.2399 70.061 32.2423 70.1111C32.2446 70.1606 32.1856 70.2099 32.0701 70.2608C31.9706 70.3332 31.8826 70.421 31.8111 70.5216C31.7236 70.6663 31.692 70.8385 31.7229 71.0046C31.7375 71.142 31.7558 71.2926 31.7704 71.4388C31.7749 71.5374 31.7734 71.6368 31.7651 71.7349C31.748 71.8324 31.7231 71.9282 31.6904 72.0218C31.6338 72.2085 31.5745 72.3168 31.5561 72.419C31.5373 72.4798 31.5331 72.5442 31.5422 72.6074C31.5505 72.6302 31.5643 72.6508 31.583 72.6665L31.5991 72.6807C31.5938 72.6779 31.5882 72.6765 31.582 72.6763ZM36.3086 8.61237L36.3088 8.6165L36.3391 8.61509L36.4206 8.64181L36.6023 8.69801C36.8497 8.77132 37.128 8.84732 37.4213 8.95883C37.7784 9.07927 38.098 9.29092 38.3504 9.57188C38.4211 9.66479 38.4839 9.76478 38.5371 9.86935C38.5823 9.97792 38.6184 10.09 38.6443 10.2052C38.6583 10.3167 38.665 10.4292 38.6641 10.542L38.6429 10.7379C38.9639 10.8807 39.2548 11.0833 39.5012 11.3351C39.7035 11.5574 39.8527 11.823 39.9377 12.1118C40.0092 12.411 40.0267 12.7204 39.9879 13.0253C39.9499 13.2722 39.9155 13.5267 39.8747 13.7892C39.8753 13.8021 39.8785 13.8154 39.8841 13.8271C39.8728 13.8276 39.9167 13.8752 39.9255 13.898C39.9983 13.9903 40.0792 14.0936 40.1761 14.2081C40.2861 14.3364 40.3866 14.4729 40.4776 14.6155C40.5843 14.7864 40.665 14.9724 40.7163 15.1676C40.7447 15.2806 40.7589 15.3963 40.7591 15.5131L40.7526 15.6934L40.7117 15.8753C40.6816 15.9925 40.6333 16.1044 40.5707 16.2076L40.5633 16.2157L40.5592 16.2159C40.5519 16.224 40.5639 16.2271 40.5677 16.2311C40.5697 16.2304 40.5718 16.2319 40.5719 16.234L40.6391 16.3612C40.6964 16.4661 40.7357 16.5796 40.7571 16.697C40.7897 16.8118 40.8056 16.9316 40.8039 17.0511C40.8113 17.5416 40.6265 18.0156 40.2889 18.37C40.002 18.673 39.693 18.9113 39.4298 19.1495C39.3277 19.2349 39.2409 19.3367 39.1726 19.4511C39.1338 19.5356 39.1259 19.6311 39.1507 19.7205C39.1848 19.8797 39.2358 20.0356 39.3019 20.1841L39.4208 20.4392C39.5082 20.1067 39.6521 19.7913 39.8463 19.5082C40.6126 18.4698 41.8709 17.9189 43.1496 18.0627C45.9172 18.463 47.941 21.3151 48.7593 23.8292C49.4317 25.8939 49.6196 28.1426 50.0089 30.2737C50.4029 32.0944 50.2195 33.9925 49.4849 35.7028C48.5188 37.8784 47.1536 39.8352 46.1668 41.9967C45.464 43.5275 45.0968 45.4571 44.1713 46.8789C44.89 47.7262 45.2547 48.8195 45.1901 49.9302C45.191 49.9726 45.1884 50.0157 45.181 50.0574C45.4587 50.6728 45.5868 51.3459 45.5544 52.0212C45.3765 53.3084 45.0581 54.5722 44.6047 55.7894C44.2424 57.0169 44.0645 58.2819 43.7372 59.5202C43.2834 61.4796 42.4425 63.3272 41.2642 64.9536C41.6485 65.2729 41.9783 65.6366 42.3595 65.968C42.7504 66.2389 43.0448 66.6275 43.2005 67.0774C43.3714 67.9626 43.0555 68.7934 42.0678 68.8678C42.0268 68.8712 41.9844 68.867 41.9447 68.8543C41.935 69.0875 41.858 69.3124 41.7237 69.5018C41.6636 69.5821 41.5907 69.6517 41.5079 69.7078L41.441 69.7414L41.4224 69.75L41.3928 69.7664C41.3707 69.7788 41.3487 69.7917 41.3077 69.8169C41.2086 69.8769 41.096 69.9126 40.9805 69.92C40.8871 69.9249 40.7946 69.9054 40.7109 69.8638C40.7037 69.8874 40.7019 69.9139 40.6947 69.9375C40.6577 70.0928 40.5894 70.2397 40.494 70.3678L40.3843 70.4887L40.337 70.5333L40.3261 70.5416L40.297 70.5584L40.245 70.5914L40.1371 70.6497C40.0632 70.6877 39.9825 70.7117 39.8995 70.7186C39.823 70.7341 39.7447 70.732 39.6687 70.7139C39.42 70.6778 39.2025 70.5261 39.0816 70.3042C39.0626 70.272 39.0456 70.2381 39.0311 70.2031C38.372 71.3689 37.2964 72.2396 36.0218 72.6382C36.0083 72.6589 35.9944 72.6792 35.9788 72.6981C35.8155 72.8613 35.6403 73.0117 35.4542 73.1481C35.2831 73.2631 35.0616 73.2703 34.8834 73.1669C34.8228 73.2354 34.7552 73.2975 34.6821 73.3526C34.5084 73.4899 34.2896 73.556 34.0696 73.5383C34.0005 73.5353 33.9327 73.5157 33.872 73.4818C33.8075 73.4564 33.7471 73.4199 33.694 73.3742L33.6939 73.3701L33.6903 73.3703L33.6311 73.4154L33.6229 73.4158L33.6154 73.4203L33.5968 73.4289L33.5593 73.442C33.5066 73.4595 33.4501 73.474 33.3937 73.488C33.3487 73.4942 33.3138 73.4959 33.2686 73.498C33.178 73.5084 33.0878 73.5059 32.9981 73.4909C32.9164 73.4828 32.8355 73.469 32.7558 73.4489L32.7479 73.4451L32.7397 73.4455L32.6935 73.4249L32.6739 73.4144L32.6385 73.3928L32.5645 73.3507C32.5174 73.3235 32.4741 73.2887 32.4372 73.2486C32.3784 73.2001 32.3259 73.1441 32.2808 73.0821C32.1894 73.1856 32.0693 73.2595 31.9361 73.2936C31.8607 73.3105 31.7839 73.3183 31.7066 73.3156C31.6197 73.3068 31.5336 73.2916 31.4492 73.2697L31.3634 73.2396L31.3404 73.2323L31.332 73.2291L31.3014 73.2114L31.2854 73.2008L31.2223 73.1613C31.1241 73.1064 31.0411 73.027 30.9816 72.931C30.9436 72.8655 30.9145 72.7945 30.8957 72.7209C30.7403 72.7881 30.5744 72.8268 30.4055 72.8357C30.2389 72.8393 30.0729 72.8103 29.9173 72.7509C29.8277 72.7168 29.7432 72.6705 29.6665 72.6131C29.5963 72.5538 29.5305 72.4891 29.4707 72.4195C29.2796 72.1506 29.1766 71.8286 29.1767 71.4981C29.1703 71.3722 29.1758 71.2463 29.1931 71.1214C29.2019 71.0662 29.2163 71.0112 29.235 70.9586C29.0925 70.8949 28.9878 70.7679 28.9524 70.6155C28.4933 69.0197 29.6675 67.8775 31.0953 67.5732C30.9321 66.7642 30.8234 65.9444 30.7712 65.1203C29.1711 62.8459 28.7318 60.4491 27.9819 57.8554C26.3137 57.4039 23.9347 56.5072 23.4557 54.7168C23.2491 54.6229 23.081 54.4601 22.9804 54.2559C22.6831 53.4391 22.5471 52.5725 22.5792 51.7032C22.4616 51.6859 22.3535 51.6299 22.2708 51.5438C18.1922 47.4726 13.7121 43.6115 11.1295 38.3344C9.41536 34.9274 9.09969 30.9812 10.2489 27.344C10.991 24.7118 12.2351 20.7799 15.2039 19.9406C16.4758 19.5825 17.8392 20.2855 18.7194 21.176C20.4436 22.9197 20.9694 25.6957 23.5629 26.3803C23.5744 26.3834 23.5865 26.3901 23.598 26.3937C24.0535 25.9407 24.561 25.5442 25.1101 25.2125C25.0577 25.1493 25.0051 25.0907 24.9528 25.028C24.3705 25.2759 23.7187 25.302 23.1186 25.1014C22.4421 24.8505 21.8581 24.3977 21.4445 23.8036C21.0609 23.2789 20.8263 22.6594 20.7663 22.0117C20.7665 21.8508 20.7558 21.6983 20.7675 21.54C20.7849 21.3814 20.8105 21.2246 20.8444 21.0689C20.9404 20.7547 21.0506 20.5463 21.1051 20.3674C21.2071 20.0152 21.1569 19.9203 20.8769 19.5537C20.7163 19.3657 20.5836 19.1552 20.4819 18.9287C20.4499 18.8144 20.4137 18.7002 20.3787 18.5891C20.3437 18.478 20.3416 18.3684 20.3216 18.2582C20.2412 17.692 20.357 17.1157 20.6491 16.6258C20.3352 16.2815 20.1329 15.8503 20.0687 15.3884C19.9947 14.9796 19.9753 14.5632 20.0111 14.1494C20.0378 13.7716 20.1115 13.3984 20.2301 13.0387C20.2928 12.8584 20.3743 12.685 20.4732 12.5221C20.5755 12.355 20.7039 12.2057 20.8529 12.0794C21.0967 11.887 21.3651 11.7287 21.6508 11.6089C21.835 11.5315 22.01 11.4319 22.1707 11.3122C22.3899 11.1127 22.513 10.8277 22.5084 10.5306C22.5104 10.4963 22.5131 10.4657 22.5144 10.4274C22.4191 10.1701 22.3668 9.89794 22.3592 9.62318C22.3533 9.30953 22.3815 8.99638 22.4418 8.68847C22.495 8.40466 22.5725 8.12542 22.6731 7.8544C22.7199 7.71983 22.7777 7.58993 22.8465 7.46571C22.9082 7.332 22.9857 7.20634 23.0771 7.09143C23.3911 6.67293 23.7908 6.3275 24.2501 6.07859C24.6296 5.86184 25.0338 5.691 25.4538 5.5701C26.1289 5.37012 26.8292 5.26928 27.5332 5.27068C27.7542 5.2754 27.9573 5.29336 28.1528 5.31478C28.1564 5.30324 28.1558 5.29137 28.1592 5.27569C28.283 4.79468 28.6704 4.42861 29.1559 4.33416C30.3608 4.15039 31.5934 4.33147 32.6959 4.85527C33.4694 5.16579 34.1978 5.58028 34.8615 6.08667C35.2684 6.39355 35.6252 6.76224 35.9193 7.17934C36.0912 7.43252 36.2165 7.71474 36.2895 8.01285C36.3103 8.09514 36.3229 8.17884 36.3279 8.26342C36.3371 8.35039 36.3375 8.43725 36.3287 8.52404C36.3215 8.63453 36.3126 8.60857 36.3086 8.61237ZM37.5579 23.9116C37.2846 24.0003 36.9918 24.0114 36.7128 23.9426C36.5991 24.1749 36.4732 24.4011 36.3362 24.62C36.481 24.6133 36.624 24.6108 36.7712 24.6112C37.0282 24.3846 37.2949 24.154 37.5579 23.9116ZM47.625 36.9049C48.6029 35.0504 49.3151 33.2477 48.9912 31.1073C48.7118 29.2698 48.439 27.3546 48.031 25.5424C47.5219 23.2704 45.9451 19.627 43.2919 19.2415C40.9005 18.8961 40.8058 20.8631 40.0541 22.5032C39.6247 23.3729 39.024 24.1445 38.2875 24.7729C39.2475 24.9662 40.1412 25.405 40.8827 26.047C40.9566 26.0099 41.025 25.9633 41.0862 25.9072C41.3617 25.6689 41.52 25.3212 41.5184 24.9557L41.5066 24.3703L42.0821 24.5385C42.3815 24.6363 42.6705 24.7656 42.9429 24.9246C43.3882 25.1604 44.2055 25.8392 44.1356 24.8996C44.1179 24.6853 44.1044 24.4719 44.087 24.2648L44.0116 23.295L44.8508 23.7923C45.088 23.9343 45.2716 24.0752 45.4408 24.1858C45.5475 24.2667 45.6658 24.3305 45.7923 24.3732C45.8056 24.3602 45.8151 24.3442 45.8204 24.3259C45.8503 24.2707 45.8759 24.2131 45.8968 24.1537C45.9151 24.0608 45.9514 23.9438 45.9598 23.871C45.953 23.8134 45.9702 23.763 45.9674 23.7021C45.9628 23.6366 45.9547 23.5718 45.9429 23.5077C45.9123 23.3804 45.8588 23.2598 45.7849 23.1515C45.6257 22.9262 45.4297 22.729 45.2051 22.5688C44.8328 22.3213 44.4458 22.0978 44.0454 21.8987C43.7559 21.7472 43.5991 21.6396 43.6144 21.5712C43.6303 21.5027 43.8236 21.4891 44.1613 21.5344C44.6482 21.6027 45.1212 21.7488 45.5621 21.9672C45.8976 22.1337 46.1966 22.3659 46.4409 22.6509C46.7644 23.0341 46.9183 23.5337 46.867 24.0336C46.8537 24.1568 46.8348 24.2384 46.817 24.3421C46.7875 24.4816 46.7423 24.6176 46.683 24.7471C46.6135 24.9132 46.5035 25.0595 46.3631 25.1721C46.2729 25.2455 46.1695 25.301 46.0584 25.3357C45.9522 25.3644 45.8415 25.3747 45.732 25.3659C45.531 25.3473 45.3362 25.287 45.1593 25.1898C45.1569 25.2825 45.1468 25.3755 45.13 25.4668C45.1041 25.5967 45.0596 25.7229 44.9987 25.8406C44.9211 25.9885 44.8092 26.1157 44.6732 26.212C44.6519 26.2301 44.6279 26.2457 44.6028 26.2577L44.5512 26.2875L44.4803 26.3249C44.4727 26.3258 44.465 26.3272 44.4574 26.3296L44.4311 26.3386L44.3742 26.3562L44.2647 26.3805C44.1376 26.4014 44.0079 26.4022 43.88 26.3834C43.682 26.3538 43.4894 26.2955 43.3079 26.2109C43.0193 26.0779 42.7404 25.9244 42.474 25.7511C42.3998 25.7049 42.3251 25.6582 42.2506 25.6162C42.0835 26.0284 41.7761 26.3669 41.3837 26.5724C41.7425 27.0723 41.9833 27.6481 42.0873 28.2561L42.2133 27.5262L42.8219 28.1418C42.9841 28.309 43.1374 28.485 43.2807 28.6686C43.4905 28.9195 43.7483 29.3833 44.0831 29.1143C44.2923 28.9438 44.3285 28.5703 44.4397 28.3391L44.7704 27.6612L45.2615 28.2176C45.5152 28.5047 45.6858 28.7424 45.8746 28.9421C45.9787 29.0675 46.1085 29.1696 46.2544 29.2419C46.2469 29.2464 46.2322 29.2507 46.2284 29.2581C46.2247 29.2661 46.2365 29.266 46.2551 29.2569L46.3005 29.2356C46.3042 29.2396 46.3302 29.2229 46.3523 29.2105C46.4076 29.1603 46.4531 29.0992 46.4849 29.0305C46.5658 28.8556 46.6225 28.6699 46.6543 28.4791C46.7861 27.7061 46.7621 27.19 46.8942 27.1647C47.0082 27.1367 47.274 27.6187 47.3199 28.5283C47.3309 28.7972 47.297 29.0651 47.2194 29.3221C47.1643 29.4985 47.0736 29.662 46.9536 29.802C46.8757 29.8873 46.7854 29.9598 46.6852 30.0177L46.6411 30.0431C46.617 30.0561 46.5923 30.0676 46.5665 30.077C46.261 30.19 45.9201 30.1516 45.6463 29.974C45.4843 29.8776 45.3334 29.7641 45.1962 29.6345C45.1403 29.5838 45.0921 29.5322 45.0403 29.4809C45.0055 29.5518 44.9709 29.6258 44.925 29.7014C44.8435 29.851 44.7417 29.9876 44.6234 30.1095C44.5375 30.1993 44.4365 30.2728 44.3247 30.3266C44.2849 30.345 44.2434 30.3583 44.2005 30.3665L44.136 30.385L44.1023 30.3907L44.0181 30.3947C44.0068 30.3952 43.9155 30.3912 43.9155 30.3912C43.8364 30.3814 43.7589 30.3648 43.6832 30.3409C43.6305 30.3248 43.5795 30.3028 43.5314 30.2756C43.4513 30.2338 43.3749 30.1846 43.3033 30.129C43.1875 30.0387 43.0794 29.9382 42.9807 29.8296C42.8167 29.6453 42.6641 29.4512 42.523 29.2494C42.5217 29.2438 42.5183 29.2382 42.514 29.2343C42.4247 29.2933 42.3208 29.3276 42.214 29.3331C42.2351 30.4403 42.1575 31.5475 41.9819 32.6407C41.6413 35.1429 41.2124 37.6498 40.7165 40.133C40.8164 40.3998 40.9012 40.6726 40.9792 40.9446C40.9887 40.7409 41.0026 40.5412 41.0271 40.3373C41.0853 39.863 41.1995 39.3969 41.366 38.9491C41.5148 38.5532 41.6867 38.1667 41.8802 37.791C42.2364 37.0846 42.5633 36.4912 42.7868 35.9746C43.2465 34.9494 43.2857 34.2313 43.4413 34.2241C43.5096 34.2209 43.5869 34.4014 43.6259 34.7518C43.6595 35.2436 43.6079 35.7373 43.473 36.2111C43.2781 36.8889 43.032 37.5514 42.7376 38.1919C42.5946 38.546 42.4354 38.9072 42.316 39.284C42.1901 39.6622 42.0996 40.0517 42.0459 40.4467C41.964 41.2521 41.9471 42.0628 41.9945 42.871C42.0063 42.947 42.0097 43.0197 42.0163 43.0959C42.0653 42.9101 42.1211 42.7275 42.1735 42.5373C42.2404 42.3165 42.3209 42.0997 42.414 41.8885L42.4791 41.7283L42.5135 41.6496L42.5406 41.5796L42.562 41.5403C42.6148 41.438 42.6675 41.3322 42.715 41.2229C43.5622 39.5245 44.3718 38.076 44.8468 36.97C45.3262 35.8943 45.5584 35.132 45.7127 35.1745C45.8295 35.2073 45.8647 35.9643 45.5332 37.2137C45.0416 38.7575 44.4077 40.2526 43.6398 41.6779C43.5912 41.7836 43.5389 41.8859 43.4865 41.9881L43.4693 42.0272L43.4657 42.0387L43.4314 42.121L43.3661 42.2771C43.2745 42.4763 43.1945 42.6807 43.1281 42.8896C43.0726 43.0799 43.0044 43.2631 42.9519 43.4496C42.9154 43.6391 42.8784 43.8285 42.8447 44.01C42.8184 44.1866 42.8051 44.3656 42.8042 44.5446C42.7973 44.6297 42.8733 44.7151 42.8695 44.7986L42.8656 44.8024L42.8292 44.8387L42.8175 44.908L42.8162 45.0462C42.8258 45.1869 42.8529 45.3263 42.8967 45.4603C42.9442 45.5868 42.9984 45.711 43.0591 45.8318C43.1291 45.9547 43.2034 46.0702 43.2772 46.1852C43.5844 45.4764 43.8459 44.7485 44.0605 44.0062C44.402 43.1515 44.7591 42.2992 45.1526 41.4648C45.892 39.8935 46.8158 38.4396 47.625 36.9049ZM42.9113 47.5266C43.1397 47.6354 43.3554 47.7692 43.5546 47.9259C43.2841 47.5201 42.8611 47.2424 42.3826 47.1566C41.2757 46.9904 40.1472 47.0454 39.0617 47.3188C38.9407 47.672 38.806 48.0164 38.6594 48.3496C40.0322 47.6838 41.5775 46.8951 42.9113 47.5266ZM40.3446 35.7991C40.6952 33.5026 41.6661 30.3463 40.8394 28.0725C40.0216 25.8113 37.317 25.5384 35.2708 25.8864L35.2405 25.8878C35.1322 26.0382 35.0107 26.1933 34.877 26.3489C34.2643 27.117 33.6559 27.6433 33.521 27.5311C33.386 27.4185 33.748 26.7469 34.3276 26.011C34.1022 26.0654 33.871 26.0943 33.6395 26.0968C33.2596 26.0487 33.0191 25.9565 33.0096 25.8307C33.0002 25.705 33.2183 25.5718 33.579 25.4598C33.9585 25.3093 34.3155 25.1075 34.6421 24.8622C34.8341 24.6863 35.0148 24.4989 35.1841 24.3007C36.9675 21.5735 36.4609 18.2946 36.2795 15.134C36.1608 13.0012 33.9656 11.8621 32.0135 12.3547C31.0338 12.5993 30.2413 12.1232 29.2841 12.2101C29.228 12.2329 29.1674 12.246 29.1068 12.2489C25.6774 12.4663 24.9703 14.3148 24.6214 17.3006C24.6113 17.4169 24.6321 17.5318 24.6246 17.6143C24.6172 17.6969 24.5965 17.7501 24.5558 17.7711C24.5151 17.7922 24.4599 17.7673 24.3963 17.717C24.3055 17.6463 24.2364 17.5538 24.1939 17.4472C24.1604 17.38 24.1294 17.3007 24.0951 17.2144C24.0723 17.1348 24.0494 17.0515 24.0302 16.9604C24.0254 16.9456 24.0246 16.9265 24.0202 16.9112C23.691 17.379 23.4499 18.0915 23.8963 18.3505C24.1049 18.4665 24.2167 18.7022 24.1752 18.9385C24.2109 20.0249 24.1135 21.2178 24.5083 22.2488C24.8222 23.012 25.272 23.7119 25.8357 24.3135C25.8595 24.3274 25.8866 24.3452 25.9104 24.3597C25.9853 24.3862 26.0537 24.4295 26.1107 24.4843C26.1421 24.5061 26.1702 24.5239 26.2052 24.5456C26.6607 24.8233 27.139 25.0612 27.6349 25.2569C27.9878 25.409 28.2935 25.4755 28.2995 25.6055C28.3049 25.7211 28.0535 25.8926 27.5269 25.8871C27.0734 25.8736 26.6269 25.7661 26.216 25.5721C26.2163 25.5799 26.2127 25.5914 26.2133 25.6028L26.2059 25.6109C26.211 25.7978 26.1069 25.9708 25.9388 26.052C23.8806 27.0962 22.4999 29.1287 22.2808 31.435C21.9784 34.1284 22.7039 36.8377 24.3108 39.0152C25.0955 40.1516 25.9059 41.2578 26.7978 42.3102C27.2764 42.7766 27.6495 43.3405 27.8926 43.9643C28.589 46.1593 29.7748 48.1656 31.3589 49.8305C31.7382 48.9683 32.4017 48.2636 33.2375 47.8353C33.2773 47.8169 33.3183 47.8021 33.361 47.7908C33.3738 47.7323 33.3939 47.6786 33.4064 47.6149C33.4283 47.51 33.4495 47.4019 33.4715 47.2897C33.4744 47.2746 33.4776 47.2553 33.4804 47.236C33.4963 46.8919 33.4766 46.5474 33.4212 46.2076C33.2545 45.2462 32.99 44.3044 32.6303 43.398C32.5309 43.1419 32.4235 42.8785 32.3063 42.6275L32.2173 42.4398L32.1131 42.2569C32.0459 42.1287 31.9707 42.0055 31.8865 41.8883C31.8293 41.799 31.7628 41.7064 31.691 41.6135L31.6203 41.6515L31.5449 41.4135C31.2653 41.0671 31.006 40.7042 30.7693 40.3268C30.5812 40.0118 30.4383 39.6714 30.3451 39.3158C30.2543 39.002 30.1867 38.699 30.1074 38.4001C29.9469 37.8139 29.7811 37.2812 29.5847 36.7541C29.4927 36.49 29.393 36.2381 29.2906 35.9941C29.2426 35.8701 29.1948 35.7493 29.1475 35.6289L29.0786 35.4635L29.0022 35.2933C28.7939 34.8314 28.6027 34.4038 28.4281 34.0132C27.7457 32.4511 27.201 31.5605 27.3186 31.4671C27.4064 31.386 28.1792 32.1801 29.0361 33.6979C29.2553 34.0745 29.4804 34.4881 29.7188 34.9342L29.8065 35.1039L29.8996 35.2914C29.9546 35.4114 30.0138 35.5354 30.0695 35.6589C30.191 35.9026 30.3059 36.1615 30.4137 36.4326C30.6026 36.8763 30.7781 37.3734 30.9352 37.8761C31.0346 37.8099 31.1392 37.7476 31.2501 37.6876L31.2496 37.6866C31.7698 37.4421 32.342 37.3302 32.9156 37.3599C33.3357 37.375 33.5941 37.4318 33.6059 37.5197C33.6182 37.607 33.3669 37.7144 32.9671 37.8136C32.4765 37.9104 31.9973 38.0614 31.5394 38.2632C31.3906 38.3389 31.2496 38.4262 31.1165 38.5089C31.1632 38.6944 31.2142 38.8839 31.2722 39.0684C31.33 39.2716 31.4092 39.4691 31.509 39.6552C31.9459 39.5336 32.3961 39.4666 32.8494 39.4553C33.2761 39.4469 33.5422 39.481 33.5555 39.557C33.5688 39.6329 33.3284 39.7511 32.9184 39.8762C32.6087 39.9439 32.2451 40.072 31.8385 40.2021C31.9622 40.384 32.1 40.5695 32.2419 40.7542C33.0554 40.5426 33.6352 40.6279 33.6327 40.7314C33.6383 40.8506 33.19 40.9594 32.5646 41.2103C32.6098 41.2739 32.6506 41.3331 32.6916 41.3963C32.7802 41.5308 32.8602 41.6698 32.9318 41.8139L33.0484 42.0308L33.1462 42.2523C33.2703 42.5413 33.3709 42.8246 33.4681 43.0999C33.619 43.5573 33.7482 44.0214 33.8529 44.4917C33.8585 44.4459 33.868 44.4062 33.8741 44.3604C34.0837 43.1245 34.3753 41.7818 34.5245 40.3993C34.5505 40.0506 34.6042 39.7326 34.5987 39.3724C34.602 39.1985 34.6057 39.0246 34.6089 38.8507L34.6137 38.7201L34.6087 38.6133L34.6007 38.353C34.589 38.0122 34.5771 37.6797 34.5805 37.3419C34.5838 37.004 34.5773 36.6868 34.6 36.3563C34.6227 36.0258 34.6271 35.6998 34.6776 35.4146C34.6981 35.2678 34.7176 35.1231 34.7378 34.9826L34.7701 34.7701L34.7843 34.666C34.7926 34.6009 34.8037 34.5844 34.8089 34.5423C34.9286 34.0066 35.1171 33.489 35.3708 33.0024C35.8302 32.1381 36.271 31.5238 36.5169 31.0796C36.778 30.631 36.9213 30.3595 36.9879 30.3869C37.0426 30.4118 37.026 30.7074 36.8627 31.2243C36.7048 31.7566 36.3433 32.4483 35.9904 33.2921C35.8063 33.7376 35.6751 34.2024 35.5974 34.6787C35.5925 34.7053 35.5886 34.7324 35.5863 34.7594L35.5758 34.8669L35.5589 35.0787C35.5465 35.221 35.5344 35.3695 35.5215 35.5138C35.4955 35.8072 35.4856 36.102 35.49 36.3965C35.4767 36.6868 35.4916 37.0057 35.5029 37.3273C35.5138 37.649 35.5254 37.9774 35.5454 38.3178L35.5644 38.727L35.5623 38.8574C35.5626 39.0312 35.5594 39.2051 35.5562 39.379C35.5644 39.723 35.5139 40.1091 35.4862 40.4858C35.3085 41.8438 35.0619 43.1911 34.7472 44.5234C34.619 45.1314 34.4935 45.7076 34.4083 46.2443C34.3842 46.3793 34.3595 46.5108 34.3388 46.6421L34.3207 46.7391L34.299 46.8591L34.2584 47.0487C34.0441 48.005 33.3806 48.5871 32.8647 49.3777C32.6365 49.7156 32.4518 50.0816 32.3148 50.4665C32.2373 50.6821 32.209 50.9125 32.2309 51.1406C32.2476 51.2557 32.4587 51.613 32.4391 51.6905C32.4645 51.5823 32.498 51.4845 32.5315 51.3759C32.6439 51.08 32.8034 50.8042 33.0046 50.5606C33.1146 50.4241 33.2374 50.2995 33.3722 50.1872C33.4541 50.1337 33.5351 50.0834 33.6165 50.03L33.6459 50.0095C33.6606 50.0052 33.7059 49.9834 33.7059 49.9834L33.7206 49.9791L33.781 49.9608L33.8945 49.9214C34.3613 49.7905 34.8594 49.9665 35.1428 50.3619C35.3647 50.6753 35.4271 51.0752 35.3108 51.4421C35.3413 51.4443 35.3685 51.4431 35.4069 51.4485C35.5865 51.4945 35.7354 51.6199 35.8113 51.7902C35.8689 51.923 35.8876 52.07 35.8654 52.2133C35.8562 52.2592 35.8466 52.3057 35.8372 52.3485L35.9588 52.2508C36.0914 52.149 36.1826 52.1065 36.2164 52.1359C36.2501 52.1649 36.2263 52.2616 36.153 52.4104C36.1083 52.5009 36.0589 52.589 36.0052 52.6743C35.9292 52.7657 35.8354 52.8735 35.7317 52.9895C35.5215 53.2175 35.2683 53.4367 35.0488 53.707L34.9651 53.7994C34.9387 53.8311 34.9162 53.8652 34.8978 53.9023C34.8702 53.9615 34.8499 54.024 34.8375 54.0887C34.8263 54.1352 34.826 54.1839 34.8364 54.2304C34.8482 54.2413 34.833 54.2347 34.853 54.2566C34.8889 54.2973 34.9376 54.3488 34.9324 54.3258C35.0313 54.3615 35.141 54.3523 35.2323 54.2999C35.3913 54.2351 35.5413 54.1506 35.6785 54.0475C35.8182 53.9412 35.9505 53.8316 36.0709 53.7221L36.1154 53.6817L36.1378 53.6657L36.138 53.6693L36.1522 53.6537C36.1776 53.6256 36.221 53.5739 36.221 53.5739C36.2712 53.5137 36.3306 53.453 36.3653 53.4022C36.4 53.3515 36.4472 53.2826 36.4867 53.2228C36.5116 53.172 36.5351 53.1135 36.5659 53.0454C36.5934 52.9841 36.6246 52.9247 36.6605 52.8672C36.7136 52.7799 36.7874 52.7067 36.875 52.654C37.0099 52.5784 37.1727 52.5724 37.3132 52.6377C37.4079 52.684 37.4903 52.7521 37.553 52.8376C37.5794 52.8628 37.6014 52.8933 37.6173 52.9267C37.6474 52.9754 37.6729 53.0265 37.6939 53.0798C37.724 53.1627 37.742 53.2498 37.7471 53.338C37.7628 53.6434 37.7065 53.9475 37.5826 54.2268C37.5317 54.36 37.4713 54.4896 37.4025 54.6143C37.3672 54.6739 37.3319 54.7334 37.2955 54.793L37.2776 54.8171C37.2966 54.8163 37.3117 54.8197 37.3312 54.8188C37.3439 54.8146 37.3554 54.8078 37.3642 54.7981C37.5345 54.6537 37.6702 54.4736 37.7631 54.2696C37.899 54.0032 37.989 53.7151 38.0287 53.4185C38.1426 52.3825 37.9314 51.3363 37.4244 50.4269C36.729 49.007 37.5512 48.1952 37.9935 46.8522C38.4031 45.4679 38.7417 44.063 39.0081 42.644C39.5101 40.3928 39.9941 38.0867 40.3446 35.7991ZM39.8204 15.5108C39.8246 15.4687 39.8216 15.4254 39.8115 15.3845C39.7856 15.2828 39.7446 15.1854 39.6905 15.0953C39.6241 14.9846 39.5492 14.879 39.4663 14.7794C39.3814 14.6676 39.2826 14.547 39.186 14.4056L39.107 14.2676C39.0773 14.2152 39.0541 14.1599 39.0381 14.1022C39.0006 13.9814 38.987 13.8548 38.9981 13.7287C39.0055 13.6445 39.018 13.5607 39.0363 13.4781L39.0725 13.2815C39.0969 13.1536 39.1184 13.0301 39.1394 12.9065C39.1732 12.7136 39.1712 12.5162 39.1344 12.3234C39.0943 12.1572 39.0166 12.0026 38.9081 11.8706C38.6559 11.6056 38.3499 11.399 38.0107 11.2648C37.6801 11.1158 37.3426 11.0063 37.0284 10.889C36.7142 10.7718 36.431 10.6676 36.1713 10.5726C35.7431 10.4162 35.3286 10.2224 34.9335 9.99302C34.3254 9.61947 34.145 9.34809 34.181 9.304C34.2314 9.23701 34.4896 9.38946 35.1118 9.63255C35.422 9.75206 35.8323 9.87882 36.3538 10.0268C36.6206 10.0992 36.9098 10.1747 37.2264 10.266C37.3539 10.2983 37.4889 10.3344 37.6245 10.3742C37.6159 10.3203 37.5924 10.2696 37.5565 10.2279C37.4142 10.0897 37.2427 9.98596 37.0541 9.92492C36.8292 9.83557 36.5742 9.76366 36.307 9.68403L36.1059 9.62046L35.9938 9.57655C35.9337 9.55762 35.875 9.53501 35.8177 9.5082C35.5878 9.39995 35.3609 9.28018 35.1531 9.15952C35.1893 9.03113 35.2286 8.90311 35.2649 8.77473L35.3212 8.58025L35.3311 8.47274C35.3365 8.43319 35.3357 8.39392 35.3297 8.35438C35.3273 8.31363 35.3213 8.27254 35.3122 8.23263C35.2674 8.05371 35.1925 7.88342 35.0907 7.72991C34.858 7.39579 34.5781 7.09801 34.2607 6.84436C33.6729 6.37781 33.0295 5.98677 32.3453 5.6809C31.4139 5.19466 30.3741 4.95547 29.3252 4.98667C29.3146 4.99078 29.3068 4.99891 29.2956 5.00304C29.2146 5.05336 29.1068 5.11525 29.0033 5.1904C28.9539 5.2227 28.9094 5.262 28.8714 5.30773C28.9059 5.33094 28.9428 5.35094 28.9812 5.36726C29.0576 5.40663 29.1383 5.43753 29.2217 5.46003C29.4236 5.52096 29.6296 5.56776 29.8385 5.59993C30.0611 5.63922 30.2913 5.66678 30.5398 5.68626C31.372 5.74374 32.1767 6.00885 32.8811 6.4586C33.2594 6.70476 33.5919 7.01613 33.8619 7.37851C34.0442 7.62396 34.1811 7.90099 34.2663 8.19491C34.306 8.39578 34.3115 8.51499 34.2706 8.53189C34.2292 8.54881 34.1521 8.46087 34.0345 8.28998C33.8762 8.0729 33.7015 7.86847 33.5135 7.67708C32.9356 7.12268 32.229 6.72216 31.4576 6.51137C31.6471 6.64683 31.823 6.80052 31.9827 6.96996C32.3132 7.33831 32.5768 7.7615 32.7613 8.22094C32.8531 8.46852 32.9989 8.6924 33.1885 8.87596C33.3009 8.94624 33.4345 8.97416 33.5653 8.95412C33.6674 8.93799 33.7289 8.94289 33.7493 8.97245C33.7697 9.0015 33.7419 9.05761 33.6467 9.14632C33.4669 9.28449 33.2292 9.31986 33.0177 9.24023C32.6948 9.08045 32.4291 8.82336 32.2589 8.50496C32.1482 8.33635 32.0445 8.15447 31.9224 7.99571C31.7873 7.81374 31.6354 7.64498 31.4682 7.49244C31.0507 7.11262 30.5434 6.84764 29.9952 6.72162C29.6693 6.64213 29.3337 6.61638 29 6.64482C28.6342 6.66855 28.2777 6.76994 27.9543 6.94271C27.5882 7.12626 27.283 7.41196 27.0745 7.76555C26.8661 8.11916 26.7636 8.52575 26.7791 8.93668C26.7923 9.04312 26.8141 9.14812 26.8431 9.25123C26.8816 9.34925 26.9281 9.44225 26.9749 9.53988C27.094 9.73344 27.252 9.90038 27.4396 10.0282C27.6444 10.1723 27.905 10.2863 28.2266 10.4632C28.5214 10.6279 28.7812 10.8486 28.9922 11.1134C29.0416 11.0914 29.0934 11.0776 29.1467 11.0715C29.4443 11.0091 29.7514 11.0067 30.05 11.0642C30.0252 11.0307 30.0006 10.9977 29.977 10.9678C29.8729 10.7637 29.7111 10.5948 29.5119 10.4831C29.0791 10.2715 28.3995 10.0099 28.1457 9.38822C28.0107 9.11937 27.9647 8.81433 28.0136 8.51727C28.0373 8.21881 28.158 7.93652 28.3571 7.71419C28.5642 7.50907 28.8457 7.39877 29.1359 7.40958C29.3615 7.41563 29.5847 7.45697 29.7977 7.53187C30.3808 7.74471 30.9303 8.04186 31.4287 8.41378C31.7796 8.66586 31.9584 8.82563 31.9374 8.86177C31.9159 8.89742 31.6872 8.81548 31.3055 8.6305C30.784 8.36049 30.2386 8.13971 29.6765 7.97036C29.341 7.88253 28.9221 7.8596 28.7593 8.07766C28.5727 8.40077 28.5482 8.79441 28.6934 9.13882C28.7863 9.32067 28.9296 9.47123 29.1067 9.57211C29.2048 9.63374 29.3081 9.68686 29.4152 9.73152C29.5399 9.79037 29.6687 9.85006 29.7933 9.9058L30.0167 10.0407C30.0836 10.0955 30.1557 10.1532 30.2188 10.2154C30.3231 10.3337 30.4195 10.458 30.5074 10.5889C30.6337 10.7929 30.8049 10.966 31.0074 11.0941C31.1113 11.1488 31.2195 11.1949 31.3303 11.2322C31.5803 11.22 31.8296 11.1903 32.0755 11.1443C32.0328 11.123 31.986 11.1019 31.9429 11.0816C31.5123 10.8736 31.0967 10.6359 30.6994 10.3689C30.5065 10.2383 30.3301 10.0841 30.1743 9.91033C30.0337 9.75241 29.733 9.27251 29.8909 9.06142C30.1306 8.72808 30.9976 9.00219 31.2756 9.15785C31.5261 9.2998 31.7628 9.46668 31.9815 9.65407C32.3307 9.94812 32.5285 10.0961 32.5075 10.1426C32.4865 10.1891 32.2354 10.102 31.8355 9.86772C31.4945 9.67257 30.888 9.32172 30.489 9.41681C30.5183 9.63782 30.82 9.80686 30.9966 9.91863C31.3846 10.1509 31.7859 10.3587 32.1998 10.5407C32.4219 10.6462 32.6431 10.7341 32.8974 10.8682C32.9354 10.8881 32.9719 10.9107 33.0071 10.936L33.0465 10.9647L33.0551 10.972C33.2767 10.9576 33.4996 10.9808 33.7139 11.0407C33.5826 10.9061 33.4734 10.7509 33.3909 10.581C33.3352 10.4553 33.3042 10.3202 33.2999 10.1828C33.2958 10.0951 33.3049 10.0487 33.3277 10.0404C33.3505 10.0315 33.3824 10.0761 33.4245 10.1517C33.4753 10.259 33.5386 10.3595 33.6119 10.4533C33.8887 10.7838 34.2419 11.0415 34.641 11.2034C35.2554 11.4572 35.8922 11.6505 36.5435 11.7815C36.6362 11.8041 36.7322 11.8224 36.829 11.8448C36.9257 11.8672 37.0297 11.9011 37.1304 11.9306C37.3467 12.0007 37.5568 12.0912 37.7569 12.2003C38.223 12.4202 38.5933 12.8032 38.7981 13.2783C38.9183 13.6166 38.9011 13.9887 38.75 14.3138C38.6674 14.4966 38.5554 14.6652 38.4186 14.8117C38.6147 15.0337 38.7492 15.3036 38.8096 15.5946C38.8673 15.972 38.7828 16.3576 38.5716 16.6746C38.2184 17.1999 37.8887 17.5685 37.6923 17.9261C37.634 18.0235 37.5852 18.1256 37.5459 18.2319C37.6591 19.0277 37.6863 19.8332 37.6273 20.6349C37.5529 21.4255 37.3828 22.204 37.1212 22.9531C37.1672 22.9463 37.2126 22.9364 37.2572 22.9235C37.4346 22.8635 37.6036 22.7812 37.7604 22.6782C38.0836 22.4786 38.3708 22.2258 38.6102 21.9302C38.6833 21.8316 38.7209 21.7109 38.7168 21.588C38.7118 21.4378 38.6787 21.2899 38.6198 21.1514C38.5349 20.9635 38.4502 20.7797 38.3689 20.5922C38.2684 20.3677 38.1947 20.1317 38.1494 19.8897C38.0946 19.5851 38.1391 19.2702 38.276 18.9928C38.4014 18.7687 38.5666 18.5702 38.7639 18.4069C39.0749 18.1354 39.3619 17.9116 39.5764 17.687C39.7386 17.5238 39.8318 17.3038 39.836 17.073C39.8418 17.0205 39.8352 16.967 39.8174 16.9172C39.8125 16.8662 39.7958 16.8173 39.7685 16.7736L39.7385 16.7021L39.6771 16.6211L39.6403 16.5732L39.5674 16.4768L39.4176 16.2877L39.3773 16.24C39.3651 16.2214 39.349 16.2072 39.3714 16.1906L39.4505 16.099C39.5479 15.9786 39.6565 15.8577 39.7537 15.7244C39.7789 15.6917 39.7968 15.6547 39.8063 15.615C39.8111 15.5977 39.8165 15.5809 39.8229 15.564L39.8204 15.5108ZM42.0286 68.0718C42.8899 68.0012 42.3104 66.9934 41.9641 66.6847C41.547 66.3245 41.1916 65.8968 40.7592 65.5611L40.7484 65.573C40.4623 67.055 39.9613 68.4865 39.2607 69.8218C39.3175 69.892 39.3876 69.9498 39.4668 69.9922C39.6432 70.0688 39.8419 70.1128 39.967 69.9265L39.991 69.8674L39.9903 69.8525C39.994 69.844 39.9971 69.8325 40.0003 69.8246C40.0152 69.8022 40.0259 69.7774 40.0314 69.7513C40.04 69.7152 40.0512 69.68 40.0646 69.6458C40.0703 69.6031 40.0798 69.5644 40.0859 69.529C40.1168 69.3739 40.1288 69.2125 40.145 69.0737C40.2232 68.465 40.4715 68.7255 40.8285 68.9002C41.4527 69.2089 41.312 68.2303 41.1873 67.8409C41.1429 67.7049 41.0888 67.604 41.0576 67.5289C40.9961 67.447 40.9556 67.3842 40.9766 67.3377C40.9976 67.2912 41.0645 67.268 41.1799 67.2817C41.3568 67.335 41.5117 67.4452 41.621 67.5948C41.7369 67.7507 41.8212 67.9273 41.8701 68.1158C41.9188 68.0888 41.9731 68.0739 42.0286 68.0718ZM40.8341 45.9042C40.5732 44.8092 40.4221 43.6857 40.1989 42.5811C39.9677 43.6836 39.743 44.9047 39.4277 46.0922C39.8929 46.0044 40.3624 45.9417 40.8341 45.9042ZM37.7826 14.5795C38.1211 14.3336 38.2836 13.9103 38.1976 13.4995C38.0409 13.1738 37.7791 12.9108 37.4543 12.7537C37.2927 12.664 37.1249 12.586 36.952 12.5206C36.8626 12.4901 36.7703 12.4634 36.6804 12.4334C36.591 12.4034 36.4911 12.3807 36.399 12.3586L36.306 12.3283C36.812 12.6631 37.1631 13.1877 37.281 13.7848C37.4789 15.01 37.3683 16.2372 37.4712 17.4663C37.6503 17.1244 37.8962 16.768 38.1082 16.4024C38.2323 16.1934 38.2763 15.9457 38.2323 15.7062C38.1521 15.4441 37.9967 15.2109 37.7854 15.0371L37.5446 14.8166L37.7826 14.5795ZM37.1253 53.3913C37.1242 53.3567 37.119 53.3218 37.1092 53.2886C37.1089 53.2809 37.1091 53.285 37.1128 53.2771C37.1207 53.2809 37.1125 53.2693 37.1037 53.2584C37.09 53.2735 37.0789 53.29 37.0721 53.3095C37.0223 53.3889 36.9703 53.4983 36.9023 53.5972C36.7772 53.7716 36.6661 53.9185 36.5461 54.0585C36.389 54.2546 36.2013 54.4236 35.9904 54.5591C35.8798 54.6485 35.7626 54.7284 35.6387 54.7978C35.6737 54.807 35.705 54.8175 35.7394 54.8273C35.9085 54.8561 36.0823 54.8522 36.2499 54.8154C36.3353 54.7944 36.4178 54.7647 36.4974 54.7274C36.5207 54.7071 36.5472 54.6904 36.5748 54.6772C36.6139 54.6423 36.6507 54.6044 36.6849 54.5651L36.6957 54.5532L36.7175 54.5253L36.7597 54.4576C36.7878 54.4108 36.8163 54.3593 36.8402 54.3086C36.8972 54.2066 36.9473 54.1003 36.9901 53.9913C37.074 53.8022 37.1195 53.5984 37.1253 53.3913ZM36.6769 56.5399C36.6116 56.5088 36.5545 56.4644 36.5067 56.4102C36.4105 56.2989 36.4564 56.3014 36.3413 56.3724C36.1816 56.4678 36.0344 56.5786 35.8834 56.6833C35.6761 56.8404 35.4467 56.9653 35.2029 57.0553C35.3899 57.7902 35.5728 58.5248 35.8149 59.2381C36.1051 58.3424 36.3944 57.4369 36.6796 56.5423L36.6769 56.5399ZM35.7767 55.3861C35.7149 55.374 35.6535 55.3577 35.5956 55.3413C35.5377 55.3248 35.4827 55.2927 35.4285 55.2684L35.3855 55.2512L35.3544 55.2335L35.3389 55.2229L35.2797 55.1874C35.2521 55.1695 35.226 55.1506 35.2008 55.13C35.1677 55.1036 35.137 55.074 35.1093 55.0422C35.0971 55.0237 35.0885 55.0049 35.0765 54.9905L35.0647 54.991C34.88 55.0032 34.6969 54.9502 34.5467 54.8414C34.5075 54.8158 34.4711 54.7854 34.4396 54.7507C34.5372 54.9457 34.6237 55.146 34.6981 55.3515C34.7681 55.5515 34.8321 55.7553 34.8939 55.9552C35.0226 55.8902 35.1445 55.8111 35.2565 55.7196C35.4234 55.5996 35.5973 55.4891 35.7768 55.3887L35.7767 55.3861ZM35.2869 52.1561L35.286 52.1251C35.1326 52.1901 34.8772 52.3432 34.6577 52.4682C34.3651 52.6173 34.1096 52.8324 33.9124 53.0966C33.8393 53.2163 33.7988 53.3527 33.794 53.493C33.7949 53.524 33.7937 53.5546 33.7905 53.5852L33.8124 53.7223C33.8129 53.7337 33.8172 53.749 33.8179 53.7645C33.8874 53.8533 33.9558 53.9416 34.0173 54.035C34.0627 54.0365 34.108 54.0271 34.1499 54.0091C34.1754 53.994 34.1999 53.9779 34.2237 53.9597L34.2236 53.9561C34.2548 53.8202 34.3095 53.6904 34.3848 53.5726C34.4154 53.521 34.4523 53.4733 34.4935 53.43L34.6095 53.3134C34.7043 53.2175 34.8046 53.127 34.9098 53.0424C35.0201 52.8925 35.1119 52.73 35.1847 52.5585C35.2411 52.4318 35.2754 52.2967 35.2875 52.1586L35.2869 52.1561ZM35.4466 60.4252C35.4147 60.393 35.3903 60.3549 35.3729 60.3128C34.8956 59.0674 34.5099 57.7883 34.2188 56.4858C33.9719 55.5938 33.5524 54.7596 32.9843 54.0299C32.4797 53.3381 32.0145 52.6176 31.5913 51.8725C31.4032 51.5792 31.1847 51.3065 30.9396 51.0593C30.8351 50.9484 30.2934 50.2009 30.1712 50.2066C28.6915 50.367 25.497 49.9606 25.1353 51.8619C25.0076 52.5577 24.9625 53.5558 24.5189 54.1862C24.6861 55.6456 26.8626 56.3718 28.1909 56.7279C27.8282 56.1433 27.6531 55.6648 27.7716 55.5791C27.9154 55.4726 28.4464 56.0033 28.9614 56.7303C29.4543 57.4164 29.8871 58.0478 29.7487 58.1692C29.6795 58.2303 29.4589 58.133 29.1797 57.906C29.8342 60.2504 30.2754 62.4453 31.745 64.5232C31.8075 64.6056 31.844 64.7042 31.8498 64.8074C31.8869 64.8858 31.9078 64.9707 31.9113 65.0574C31.9295 65.5815 31.979 66.1036 32.0602 66.6216C32.8761 65.4764 33.742 64.3667 34.6581 63.2939C34.8845 62.3431 35.1564 61.3841 35.4475 60.4278L35.4466 60.4252ZM34.6363 51.1903C34.6402 51.019 34.5692 50.8542 34.4424 50.7396C34.4075 50.7185 34.3756 50.6848 34.3365 50.6638L34.2778 50.6397L34.2466 50.622L34.2387 50.6182C34.174 50.6099 34.1079 50.5938 34.0505 50.5887C34.029 50.6011 34.0041 50.6085 33.9789 50.6081C33.788 50.6873 33.6233 50.8196 33.5052 50.9901C33.3649 51.1817 33.2426 51.386 33.141 51.6012C33.1372 51.6091 33.1333 51.6129 33.1335 51.6165C33.1272 51.6474 33.1254 51.6748 33.1187 51.7093C33.0979 51.8364 33.0673 51.9873 33.0402 52.1572C33.0137 52.327 33.013 52.5458 33.0668 52.551C33.106 52.5523 33.1448 52.5469 33.1813 52.5338C33.2887 52.4994 33.3938 52.4572 33.4955 52.408C33.5105 52.3996 33.522 52.3918 33.5365 52.3828C33.5917 52.3306 33.6471 52.282 33.7023 52.2298C33.8307 52.1354 33.9656 52.05 34.1056 51.9737C34.1207 51.9652 34.1321 51.9569 34.1467 51.9485C34.2451 51.8519 34.3435 51.7558 34.4372 51.6454L34.5199 51.5304L34.5518 51.4865L34.5586 51.467L34.5758 51.4279C34.6162 51.3562 34.6377 51.2751 34.6364 51.1929L34.6363 51.1903ZM27.7421 5.99634C27.681 5.99918 27.6202 5.99787 27.5555 6.00088C26.9285 6.05176 26.3104 6.1829 25.7164 6.38947C25.3637 6.50775 25.0258 6.6662 24.7091 6.8614C24.3716 7.06069 24.0788 7.3272 23.8492 7.64558C23.6186 8.02038 23.4683 8.43954 23.4073 8.87626C23.3 9.31359 23.3348 9.77379 23.5064 10.1899C23.5267 10.2262 23.5514 10.2597 23.5795 10.2899C23.6558 10.3691 23.7482 10.4305 23.8508 10.4691C23.5885 10.0071 23.5889 9.44029 23.8505 8.9787C23.9329 8.79231 24.0343 8.61539 24.1537 8.45055C24.3473 8.19798 24.5665 7.96592 24.8079 7.75766C25.1952 7.41022 25.4261 7.19625 25.5051 7.24635C25.5841 7.29645 25.4614 7.62383 25.1498 8.0598C24.9997 8.27364 24.801 8.51663 24.6457 8.7845C24.5635 8.91917 24.4929 9.06105 24.4349 9.20803C24.3835 9.36297 24.3524 9.52423 24.3419 9.68709C24.2862 9.96119 24.3807 10.2438 24.5894 10.4286C24.7949 10.5985 25.0294 10.7277 25.2823 10.8101C25.7474 10.9725 26.0717 11.0531 26.0647 11.1455C26.0602 11.2145 25.8234 11.2907 25.4113 11.2716C25.5033 11.3671 25.5995 11.4661 25.6955 11.5728C25.7916 11.6795 25.8972 11.8044 26.0006 11.9371C26.5215 11.6636 27.0739 11.457 27.646 11.3212C27.3757 11.1869 27.1125 11.0378 26.8585 10.8748L26.6334 10.7053L26.4289 10.5007C26.3087 10.3621 26.1994 10.2141 26.1001 10.0594C26.0144 9.89738 25.9401 9.72913 25.8786 9.55617C25.8269 9.38532 25.793 9.21004 25.7775 9.03182C25.7225 8.37915 25.8959 7.72723 26.2682 7.18916C26.5898 6.72531 27.0205 6.34845 27.5216 6.09139C27.596 6.05328 27.6704 6.02656 27.7421 5.99634ZM29.3328 49.14C29.1083 48.8283 28.8912 48.5089 28.6894 48.1853C28.6323 48.2412 28.5643 48.2837 28.4894 48.3104C27.1029 48.8383 25.5326 48.345 24.4709 49.7043C23.7674 50.655 23.5277 51.8737 23.8184 53.0222C23.9649 52.4558 23.9801 51.6659 24.0774 51.378C24.2766 50.7699 24.6885 50.2548 25.2362 49.9278C26.5174 49.1944 27.9252 49.2365 29.3328 49.14ZM28.1264 47.2227C27.6173 46.2881 27.1754 45.3177 26.8052 44.3188C26.501 43.6307 26.0836 42.9984 25.5713 42.4488C25.4662 43.5541 25.1696 44.6327 25.0532 45.7371C25.0445 45.8388 25.0048 45.9359 24.94 46.0144C24.5977 46.7207 24.3914 47.4859 24.3316 48.2695C24.6052 48.0654 24.9036 47.8979 25.2198 47.7715C26.1685 47.4021 27.2044 47.5686 28.1264 47.2227ZM25.1355 12.5086C25.0741 12.4277 25.0026 12.3503 24.9339 12.2687C24.7208 12.0335 24.485 11.7993 24.2604 11.561L24.1402 11.4554L24.1361 11.4556C24.0712 11.4762 24.0039 11.4912 23.9364 11.499C23.8493 11.5067 23.7616 11.502 23.6763 11.4842C23.6082 11.4688 23.5409 11.4486 23.4754 11.4248C23.4131 11.4008 23.3776 11.3797 23.3271 11.3552C23.2692 11.3268 23.2126 11.2948 23.1585 11.2596C23.08 11.5197 22.9392 11.7564 22.7485 11.9494C22.3138 12.3714 21.7644 12.5201 21.4767 12.8055C21.1605 13.2106 20.9961 13.7147 21.0128 14.229C20.9919 14.5538 21.0112 14.8797 21.0693 15.1997C21.1053 15.4535 21.207 15.6934 21.3651 15.895C21.3815 15.8818 21.3984 15.8696 21.4164 15.8584C21.5284 15.7876 21.6312 15.7181 21.7346 15.6518C21.9343 15.5199 22.1123 15.4077 22.2559 15.2981C22.4953 15.123 22.7041 14.9101 22.8749 14.6674C23.1502 14.2791 23.2709 14.0858 23.3449 14.1165C23.3795 14.1304 23.39 14.1914 23.3767 14.3141C23.3505 14.5025 23.2989 14.6875 23.2231 14.8622C23.0923 15.192 22.8915 15.4889 22.6347 15.732C22.4725 15.8947 22.2999 16.0459 22.1181 16.1852C22.0263 16.2583 21.9311 16.3356 21.8275 16.4211C21.7798 16.458 21.7248 16.5024 21.6809 16.5438L21.5605 16.6652C21.1951 17.0628 21.0468 17.6153 21.164 18.1435C21.1769 18.2205 21.1933 18.2973 21.2133 18.3729C21.2393 18.4446 21.2654 18.52 21.2921 18.5953C21.3719 18.74 21.4692 18.8746 21.5814 18.9955C21.7668 19.1984 21.9146 19.4325 22.017 19.6879C22.1135 20.003 22.1122 20.3397 22.0125 20.6536C21.9301 20.9295 21.8189 21.1606 21.7734 21.3314C21.755 21.4243 21.7554 21.5204 21.7372 21.617C21.7342 21.7169 21.7468 21.8234 21.7441 21.9306C21.7998 22.3981 21.9779 22.8423 22.2614 23.2175C22.5571 23.6324 22.9686 23.9505 23.4438 24.1316C23.7046 24.2183 23.9841 24.2327 24.2526 24.1742C23.892 23.7017 23.6122 23.1722 23.4248 22.6074C23.309 22.2301 23.2251 21.843 23.175 21.4508C23.1117 21.6725 23.0609 21.8972 23.0237 22.125C22.9615 22.5147 22.9568 22.8231 22.8616 22.8338C22.7815 22.8375 22.63 22.6128 22.569 22.1192C22.5399 21.5145 22.6291 20.9099 22.8321 20.3404L22.862 20.2433L22.8906 20.1261C22.9101 20.0482 22.9294 19.9666 22.9481 19.8918C22.9673 19.8169 22.9905 19.7403 23.0102 19.6665C23.0149 19.6016 23.0197 19.5399 23.0246 19.4781C23.0339 19.4353 23.0401 19.391 23.0421 19.347C23.0422 19.2704 23.0384 19.1899 23.035 19.1156C22.1349 18.2069 22.5938 16.4346 23.5883 15.687C23.5751 14.4413 24.1486 13.2625 25.1355 12.5086ZM24.3243 43.1868C24.3261 43.1371 24.331 43.0867 24.3328 43.037C24.3131 42.9133 24.3006 42.7882 24.2964 42.6632C24.2744 42.5226 24.2047 42.3412 24.163 42.175L24.1419 42.1305L24.1405 42.1001L24.1052 41.9947C24.0716 41.9233 24.049 41.8478 24.0076 41.7768L24.0071 41.7758C23.9328 41.6288 23.851 41.4852 23.7622 41.3466C23.0603 40.361 22.2179 39.4848 21.2619 38.7462C20.5239 38.1253 20.0699 37.7011 20.1474 37.576C20.2249 37.4509 20.8034 37.6613 21.6763 38.142C22.1219 38.3954 22.5484 38.6807 22.9536 38.9954C22.5152 38.3001 22.1164 37.5807 21.7583 36.8402C21.6022 36.5056 21.4674 36.1613 21.3558 35.8086C21.3137 35.8995 21.2642 35.9866 21.2078 36.0689L21.172 36.116L21.154 36.1402L21.1469 36.1519C21.1395 36.16 21.1216 36.1836 21.1216 36.1836L21.005 36.3002C20.8325 36.4747 20.6155 36.5991 20.3775 36.6588C19.9269 36.7516 19.4589 36.703 19.0366 36.5184C18.8502 36.4505 18.6676 36.3747 18.4967 36.3061C18.4834 36.3409 18.4696 36.3762 18.4522 36.4111C18.4053 36.4873 18.3509 36.558 18.2891 36.622C18.2202 36.6908 18.1422 36.7498 18.0574 36.7972C17.9723 36.8379 17.8827 36.8679 17.7904 36.8867C17.5169 36.9263 17.2384 36.8803 16.9913 36.7558C16.836 36.6797 16.6872 36.5894 16.5481 36.4868C16.4483 36.6212 16.3229 36.7341 16.1781 36.8184C15.9639 36.9375 15.7129 36.9724 15.474 36.9158C15.2955 36.8713 15.1271 36.7923 14.9789 36.6823C14.5901 36.3777 14.2761 35.9874 14.0614 35.5412C13.7051 34.8415 13.6927 34.342 13.8025 34.323C13.9122 34.3039 14.1067 34.6693 14.5645 35.2075C14.8037 35.515 15.0943 35.7771 15.4234 35.9831C15.4881 36.0241 15.5614 36.0496 15.6369 36.058C15.6675 36.0628 15.6979 36.0526 15.72 36.0309C15.8315 35.8933 15.9088 35.7309 15.9455 35.557L16.1523 34.7577L16.768 35.3724C16.9506 35.5599 17.1656 35.7123 17.4028 35.8223C17.4541 35.851 17.5109 35.868 17.5693 35.8725C17.5725 35.8646 17.5937 35.7555 17.5937 35.7555L17.6101 35.6094L17.6673 34.9593L18.2513 35.1235C18.6402 35.2538 19.0204 35.4073 19.3904 35.584C19.6302 35.7047 19.8963 35.7622 20.1644 35.7507C20.258 35.7381 20.3467 35.6983 20.4184 35.636L20.4663 35.6033L20.4702 35.599L20.4811 35.5907L20.481 35.5866L20.4845 35.5864L20.5066 35.5626L20.5467 35.5183C20.5765 35.4833 20.6021 35.447 20.625 35.4077C20.7371 35.1971 20.814 34.9696 20.853 34.7341C20.8834 34.5682 20.9024 34.4137 20.9188 34.2676C20.7491 34.4483 20.5443 34.5917 20.3173 34.6902C19.9404 34.852 19.5224 34.8927 19.1217 34.8068C18.5275 34.6442 18.004 34.2868 17.6336 33.7921C17.5956 33.8161 17.5559 33.8376 17.5146 33.8555C17.3366 33.9352 17.1416 33.9696 16.947 33.9549C16.8519 33.9479 16.758 33.9316 16.6663 33.9064C16.6002 33.8908 16.5354 33.8695 16.4734 33.8424L16.4312 33.8299L16.4111 33.8195L16.3334 33.7848C16.3255 33.781 16.2237 33.717 16.2237 33.717C16.1568 33.6736 16.0943 33.6237 16.0377 33.5684C15.927 33.4681 15.8291 33.3542 15.7471 33.2292C15.6139 33.0203 15.5047 32.7968 15.4223 32.5627C15.362 32.4047 15.3055 32.2538 15.2499 32.1302C15.0909 32.2524 14.9103 32.3409 14.7171 32.3923C14.5006 32.4494 14.274 32.4564 14.0547 32.4112C14.0096 32.4035 13.9658 32.3916 13.9233 32.3749L13.8223 32.3377L13.7986 32.3275L13.7246 32.2962L13.713 32.289L13.6504 32.2495L13.5315 32.1713C13.2716 31.9605 13.0813 31.6756 12.9866 31.3537C12.9133 31.1171 12.8741 30.8712 12.8688 30.6232C12.8577 30.2974 12.8837 29.9709 12.9455 29.6511C12.9891 29.438 13.0368 29.3132 13.0899 29.3149C13.143 29.3166 13.2057 29.4254 13.2581 29.6443C13.3104 29.8632 13.3632 30.1798 13.4527 30.5433C13.5084 30.9219 13.704 31.2655 14.0002 31.5056L14.0592 31.5334L14.1758 31.5626C14.2148 31.5722 14.2535 31.5859 14.2566 31.5739C14.3297 31.5648 14.4016 31.549 14.4715 31.5261C14.6375 31.4672 14.7706 31.34 14.837 31.1761L15.0278 30.6076L15.5468 30.9471C15.7811 31.1058 15.9694 31.3246 16.0909 31.5811C16.2039 31.7983 16.2832 31.9973 16.3592 32.182C16.6637 32.911 16.9092 33.0221 17.3946 32.471C17.9636 31.8276 18.2471 33.098 18.6469 33.4854C18.8382 33.6921 19.0755 33.8502 19.3389 33.9471C19.5665 34.0161 19.8084 34.0183 20.037 33.9534C20.2502 33.8902 20.4461 33.7772 20.6088 33.6243C20.6237 33.6122 20.6348 33.5962 20.6531 33.5798C20.5178 33.5478 20.3864 33.5115 20.2353 33.4611C20.1312 33.4236 20.0259 33.383 19.9173 33.3378L19.7573 33.2724L19.6356 33.2015C19.5571 33.1514 19.4747 33.1055 19.3926 33.0556L19.3614 33.0379L19.3299 33.0119L19.3294 33.013C19.3246 33.0091 19.3193 33.0052 19.314 33.0018L19.2979 32.9876L19.2265 32.9252L19.0875 32.8019C18.7067 32.4369 18.4499 31.9612 18.3532 31.4418C18.3149 31.2698 18.2883 31.1071 18.2649 30.9479C18.075 30.9924 17.8779 30.9907 17.6889 30.9437C17.3621 30.8549 17.0844 30.6382 16.9173 30.3424C16.7989 30.1411 16.711 29.9233 16.6567 29.6962C16.5555 29.2572 16.4961 28.8095 16.4793 28.3594L16.4659 28.0704C16.2466 28.1478 16.0178 28.1957 15.786 28.2132C15.2079 28.2747 14.6309 28.0838 14.2019 27.689C14.1055 27.5958 14.0179 27.4933 13.9402 27.3832C13.8773 27.2702 13.8144 27.1573 13.757 27.0504C13.6714 26.8382 13.6163 26.6153 13.5929 26.3878C13.5551 26.0079 13.5934 25.6249 13.704 25.2599C13.8607 24.767 14.1405 24.3221 14.5173 23.9695C14.7787 23.7691 14.9466 23.6848 15.0018 23.7318C15.057 23.7789 14.9977 23.9637 14.8348 24.2454C14.7811 24.3973 14.7002 24.5505 14.6374 24.7489C14.6041 24.8503 14.5703 24.9548 14.5372 25.0717C14.5156 25.1838 14.4904 25.3055 14.4707 25.4352C14.4393 25.7009 14.4554 25.9701 14.5195 26.2299C14.5513 26.3613 14.5984 26.4889 14.6586 26.6102C14.6991 26.6616 14.7401 26.7135 14.7765 26.7656C14.8129 26.8177 14.8718 26.8449 14.9121 26.8932C15.1312 27.0454 15.4024 27.1005 15.6628 27.046C16.0262 26.9717 16.372 26.8269 16.6804 26.6196L17.3458 26.2442L17.5834 26.9282C17.6338 27.0702 17.6648 27.2177 17.6764 27.3676C17.6926 27.4827 17.6972 27.5818 17.7061 27.6848C17.7228 27.879 17.7355 28.0739 17.7483 28.2724C17.7705 28.6391 17.822 29.0033 17.9024 29.3611C17.9275 29.4701 17.9669 29.5753 18.0199 29.6737C18.0228 29.6808 18.0272 29.6868 18.032 29.6922C18.0519 29.6877 18.0711 29.6801 18.0887 29.6705C18.1926 29.6263 18.2909 29.5706 18.382 29.5043L19.1956 28.9529L19.3719 29.8761C19.4729 30.4004 19.4709 30.8561 19.5332 31.2096C19.5646 31.5081 19.6852 31.789 19.879 32.0173L20.0036 32.1527L20.2325 32.3158L20.3429 32.3986L20.4323 32.44C20.4912 32.4677 20.5502 32.496 20.6093 32.5279C20.7066 32.573 20.8193 32.618 20.932 32.6624C21.0015 30.7379 21.649 28.8813 22.7894 27.3346C21.4301 26.8212 20.3196 25.8028 19.6863 24.4898C18.9321 23.1451 17.5651 20.684 15.6634 21.0175C12.8195 21.5216 11.6046 26.3793 11.1021 28.6973C10.2425 32.665 10.9948 36.2279 13.1813 39.7126C15.7678 43.8305 19.4065 47.0635 22.8274 50.4568C22.9503 50.0678 23.3518 49.6049 23.3487 49.195C23.3446 49.0959 23.322 48.9987 23.2818 48.9085C23.149 48.653 22.9896 48.4127 22.8064 48.1911C22.8021 48.1871 22.6312 47.9536 22.6312 47.9536C22.5139 47.7987 22.3996 47.6427 22.2858 47.4871C22.1574 47.3478 22.029 47.2095 21.9048 47.0715C21.8403 47.0021 21.783 46.9318 21.7118 46.8622L21.4925 46.6614C21.349 46.53 21.2104 46.403 21.0665 46.2758C20.9227 46.1485 20.766 46.01 20.6215 45.8786C20.4769 45.7473 20.331 45.6201 20.187 45.4887L19.7834 45.0865C18.8532 44.1503 17.9959 43.1434 17.2181 42.076C15.9097 40.2549 15.2179 39.0651 15.3247 38.9836C15.4418 38.8902 16.349 39.9398 17.7844 41.6163C18.6172 42.5933 19.4999 43.5255 20.4302 44.4089C20.5615 44.5331 20.697 44.6572 20.8288 44.7813C20.9718 44.9009 21.1101 45.0212 21.2531 45.1412C21.3961 45.2607 21.5428 45.3842 21.6896 45.5077C21.8409 45.6424 21.9959 45.7774 22.1511 45.9155C22.4721 46.2016 22.7755 46.5076 23.0587 46.8311C23.0877 46.868 23.1115 46.9052 23.1406 46.9431C23.1075 46.8066 23.0667 46.6719 23.0184 46.5397C22.7431 45.9102 22.3783 45.3242 21.935 44.8002C21.5069 44.2688 21.0567 43.7835 20.6599 43.2847C20.2674 42.8013 19.9038 42.3507 19.5711 41.937C18.2511 40.2855 17.4856 39.2289 17.5878 39.1332C17.6899 39.0375 18.6427 39.9307 20.106 41.4648C20.4674 41.854 20.8606 42.2763 21.2857 42.7318C21.6958 43.1844 22.1745 43.6518 22.6503 44.2011C22.9725 44.5668 23.265 44.9586 23.5245 45.3716C23.2614 44.4385 22.8553 43.5523 22.3212 42.7451C21.4838 41.5801 20.5788 40.4659 19.6115 39.4073C18.8732 38.5376 18.5096 37.9333 18.6039 37.837C18.7097 37.7322 19.2714 38.17 20.1283 38.8924C21.2933 39.842 22.322 40.9501 23.1837 42.1843C23.5954 42.8053 23.9181 43.4818 24.1416 44.1934C24.2068 43.8568 24.2673 43.5209 24.3242 43.1847L24.3243 43.1868Z" fill="#FDFEFF"/>
<path d="M45.6259 33.3505L45.6334 33.346C45.676 33.3218 45.7125 33.287 45.7393 33.2454C45.8483 33.0878 45.9281 32.9114 45.9745 32.7251L46.3302 31.3562L46.9077 32.6201C46.9693 32.761 47.038 32.8985 47.1142 33.032C47.1205 33.0467 47.1289 33.0603 47.1387 33.0727C47.1719 33.0562 47.2034 33.0351 47.2316 33.0105L47.2683 32.9814C47.2728 32.9781 47.2778 32.9753 47.2828 32.9735L47.2936 32.9616L47.3814 32.881C47.4548 32.8196 47.4464 32.805 47.4828 32.7692C47.7036 32.3954 47.8002 31.9591 47.7574 31.5261C47.7493 31.1087 47.7102 30.7547 47.7099 30.5054C47.7096 30.2562 47.7332 30.1092 47.7933 30.0961C47.8539 30.0829 47.9354 30.1965 48.0446 30.4216C48.1978 30.7501 48.3136 31.0938 48.3898 31.4476C48.4503 31.7101 48.4783 31.9792 48.4733 32.2484C48.4719 32.6043 48.3749 32.9532 48.192 33.258C48.1394 33.3448 48.0794 33.4272 48.013 33.5037L47.9337 33.5922L47.9156 33.6122L47.8753 33.6523L47.824 33.7002C47.7457 33.7752 47.6587 33.8424 47.5662 33.9C47.4348 33.9836 47.2859 34.0356 47.1312 34.0505C46.931 34.0614 46.7341 33.9992 46.5761 33.8757C46.5701 33.8697 46.5647 33.8638 46.5598 33.8573C46.4327 34.0344 46.2654 34.1787 46.072 34.2787C45.9527 34.336 45.8236 34.3704 45.6918 34.3807C45.6147 34.3827 45.5373 34.3786 45.4607 34.3682L45.3442 34.3431C45.0222 34.2556 44.7482 34.0419 44.5839 33.7501C44.4702 33.5511 44.38 33.3391 44.3152 33.1187C44.2882 33.0352 44.2655 32.9561 44.2387 32.8771C44.1911 32.9176 44.1433 32.9617 44.0879 33C43.9951 33.0726 43.8912 33.1291 43.7798 33.1674C43.6339 33.2166 43.4767 33.2239 43.3269 33.1885C43.0867 33.1138 42.8888 32.941 42.7819 32.7122C42.6582 32.4526 42.5793 32.1739 42.5495 31.8873C42.5192 31.6673 42.5038 31.4452 42.5037 31.2228C42.5008 30.4301 42.6024 29.9812 42.7087 29.9762C42.815 29.9713 42.9275 30.4216 43.0954 31.1539C43.1378 31.3355 43.185 31.5324 43.248 31.7363C43.3014 31.9329 43.3822 32.1216 43.4871 32.2961C43.4905 32.3027 43.4949 32.3087 43.4998 32.3147C43.5107 32.3064 43.5256 32.2944 43.5405 32.2823C43.7138 32.1041 43.8609 31.9023 43.9773 31.6828L44.327 31.0806L44.7644 31.6348C44.9064 31.8231 45.016 32.0327 45.0902 32.2562C45.1476 32.4273 45.2095 32.607 45.2717 32.7841C45.3186 32.9298 45.3812 33.0696 45.4589 33.2015C45.5254 33.3143 45.5673 33.3304 45.5803 33.3339L45.6259 33.3505Z" fill="#FDFEFF"/>
<path d="M40.5622 16.2164L40.5707 16.2351C40.5706 16.233 40.5685 16.2316 40.5665 16.2322C40.5667 16.2265 40.565 16.2214 40.5622 16.2164Z" fill="#FDFEFF"/>
<path d="M34.4606 23.5618C34.5076 23.6755 34.1289 23.976 33.4484 24.3484C33.2735 24.4372 33.0794 24.5342 32.8752 24.6357C32.6705 24.7373 32.4099 24.811 32.1547 24.9009C32.0233 24.9417 31.8889 24.994 31.7571 25.027C31.3343 25.1418 30.9007 25.2111 30.4632 25.2325C29.866 25.2587 29.2694 25.1654 28.708 24.9578C28.2637 24.7974 27.8405 24.5839 27.447 24.3214C26.7858 23.8805 26.4573 23.5322 26.513 23.4257C26.5693 23.3196 27.0417 23.474 27.7382 23.7441C28.9709 24.2381 30.3147 24.3856 31.6241 24.1695C31.7485 24.1446 31.8577 24.1121 31.9708 24.0877C32.1985 24.0275 32.4126 23.9942 32.6194 23.9272C32.8262 23.8602 33.0259 23.8054 33.2062 23.7546C33.9342 23.5403 34.4135 23.4451 34.4606 23.5618Z" fill="#FDFEFF"/>
<path d="M32.4172 18.3162C32.4404 18.4517 32.434 18.5901 32.398 18.7226C32.3212 18.887 32.231 18.9827 32.1427 18.9754C32.0549 18.9681 31.9883 18.8528 31.9457 18.6784C31.8839 18.535 31.8046 18.3995 31.7098 18.2757C31.5584 18.1069 31.4352 17.9146 31.3442 17.7062C31.2857 17.5099 31.2984 17.3748 31.3762 17.3329C31.4546 17.291 31.5782 17.3385 31.7082 17.4333C31.8996 17.5537 32.0717 17.7034 32.2172 17.8772C32.2627 17.948 32.3082 18.0188 32.3453 18.0863C32.374 18.1615 32.3976 18.238 32.4172 18.3162Z" fill="#FDFEFF"/>
<path d="M30.4048 16.5431C30.4102 16.7931 30.3538 17.0409 30.2401 17.2634C30.1289 17.4951 29.973 17.7164 29.8775 17.9205C29.48 18.5559 29.8472 18.5078 30.2594 18.8294C30.3544 18.9016 30.3816 18.9774 30.3553 19.0086C30.3346 19.0519 30.2701 19.0591 30.1753 19.0666C30.0804 19.0746 29.9622 19.0879 29.7731 19.0936C29.6409 19.1049 29.5085 19.0805 29.3885 19.023C29.2885 18.9749 29.208 18.8933 29.1606 18.7921C29.1175 18.7062 29.0936 18.6122 29.0901 18.5156C29.0852 18.431 29.0874 18.3466 29.0974 18.2624C29.1066 18.1958 29.12 18.13 29.1381 18.065C29.1759 17.9143 29.2308 17.7675 29.301 17.6287C29.4257 17.4 29.5658 17.1809 29.7202 16.9721C29.8176 16.831 29.8943 16.6764 29.9469 16.5132C29.9686 16.4491 29.9873 16.3846 30.0022 16.3187C30.0039 16.255 30.0112 16.1921 30.0243 16.13C30.0426 16.0257 30.0742 15.9627 30.1189 15.9518C30.1637 15.9409 30.212 15.994 30.2696 16.0829C30.3025 16.1372 30.3319 16.1943 30.3578 16.2525C30.3833 16.3475 30.3992 16.4451 30.4048 16.5431Z" fill="#FDFEFF"/>
<path d="M26.7009 27.8852C27.8629 27.9532 28.7984 28.1512 28.7917 28.3278C28.785 28.5045 27.8292 28.5991 26.6733 28.5303C25.5175 28.4615 24.5834 28.2712 24.5868 28.091C24.5897 27.9104 25.5344 27.821 26.7009 27.8852Z" fill="#FDFEFF"/>
<path d="M11.842 43.1807L11.5308 43.3515L11.842 43.1807ZM20.6995 53.114L21.0448 53.197L21.0936 52.9938L20.9397 52.8525L20.6995 53.114ZM25.7903 59.3498L26.1312 59.2505L26.0677 59.0324L25.843 58.9986L25.7903 59.3498ZM28.0699 64.767L28.4044 64.6479L28.3591 64.5207L28.2407 64.4558L28.0699 64.767ZM28.6706 67.6327L28.8873 67.9139L29.0191 67.8125L29.0255 67.6463L28.6706 67.6327ZM27.8114 71.5083L27.5086 71.6938L27.8114 71.5083ZM18.6344 14.3045L18.9667 14.4296L18.6344 14.3045ZM11.0607 36.7328C11.1551 36.5609 11.0922 36.3451 10.9203 36.2507C10.7484 36.1564 10.5326 36.2192 10.4382 36.3911L11.0607 36.7328ZM9.432 38.4242C9.35616 38.6051 9.44128 38.8132 9.62212 38.889C9.80296 38.9648 10.011 38.8797 10.0869 38.6989L9.432 38.4242ZM11.8734 38.8365C11.9866 38.6764 11.9486 38.4548 11.7885 38.3416C11.6284 38.2284 11.4068 38.2664 11.2936 38.4265L11.8734 38.8365ZM10.8377 39.6568L11.17 39.7819L10.8377 39.6568ZM10.2825 40.1359C10.2028 40.315 10.2834 40.5249 10.4625 40.6047C10.6417 40.6844 10.8515 40.6038 10.9313 40.4247L10.2825 40.1359ZM12.9939 40.4013C13.0177 40.2067 12.8792 40.0296 12.6845 40.0059C12.4899 39.9821 12.3128 40.1206 12.289 40.3153L12.9939 40.4013ZM11.301 42.3563C11.2614 42.5483 11.385 42.7362 11.577 42.7758C11.7691 42.8154 11.9569 42.6918 11.9965 42.4998L11.301 42.3563ZM14.087 42.0517C14.1833 41.8809 14.1229 41.6643 13.952 41.568C13.7812 41.4717 13.5647 41.5321 13.4684 41.703L14.087 42.0517ZM12.2187 43.7919C12.1002 43.9481 12.1308 44.1708 12.287 44.2893C12.4432 44.4079 12.666 44.3773 12.7845 44.2211L12.2187 43.7919ZM15.0268 43.4704C15.1109 43.2932 15.0355 43.0815 14.8583 42.9974C14.6812 42.9133 14.4694 42.9887 14.3853 43.1659L15.0268 43.4704ZM13.2101 45.5793C13.2026 45.7753 13.3554 45.9402 13.5513 45.9478C13.7473 45.9553 13.9122 45.8025 13.9197 45.6066L13.2101 45.5793ZM15.6449 44.4081C15.6911 44.2175 15.574 44.0256 15.3834 43.9795C15.1928 43.9333 15.0009 44.0504 14.9547 44.2409L15.6449 44.4081ZM14.5986 46.3235L14.9099 46.4943L14.5986 46.3235ZM14.1466 46.8097C14.1391 47.0056 14.2919 47.1706 14.4878 47.1781C14.6838 47.1856 14.8487 47.0328 14.8562 46.8369L14.1466 46.8097ZM16.8532 45.6168C16.9203 45.4326 16.8252 45.2288 16.641 45.1618C16.4567 45.0947 16.2529 45.1898 16.1859 45.3741L16.8532 45.6168ZM15.3132 47.5546C15.1897 47.7068 15.2129 47.9304 15.3652 48.054C15.5174 48.1776 15.741 48.1544 15.8646 48.0021L15.3132 47.5546ZM18.2372 46.9494C18.3503 46.7892 18.3121 46.5676 18.1519 46.4545C17.9917 46.3415 17.7702 46.3796 17.6571 46.5398L18.2372 46.9494ZM16.3307 48.9591C16.2616 49.1426 16.3544 49.3474 16.5379 49.4165C16.7214 49.4856 16.9262 49.3928 16.9953 49.2093L16.3307 48.9591ZM19.1088 48.4347C19.2837 48.3461 19.3537 48.1325 19.2652 47.9575C19.1766 47.7826 18.9629 47.7126 18.788 47.8012L19.1088 48.4347ZM18.4149 49.206L18.0972 49.0474L18.4149 49.206ZM17.5505 50.13C17.4814 50.3136 17.5742 50.5183 17.7577 50.5874C17.9412 50.6565 18.146 50.5638 18.2151 50.3802L17.5505 50.13ZM20.527 49.1334C20.5574 48.9396 20.4249 48.758 20.2312 48.7276C20.0375 48.6973 19.8558 48.8297 19.8255 49.0234L20.527 49.1334ZM18.8966 51.4725C18.8418 51.6608 18.95 51.8579 19.1383 51.9127C19.3266 51.9675 19.5236 51.8593 19.5784 51.671L18.8966 51.4725ZM21.4964 50.6078C21.5826 50.4316 21.5097 50.219 21.3335 50.1328C21.1574 50.0466 20.9447 50.1195 20.8586 50.2957L21.4964 50.6078ZM19.7175 52.2507C19.6484 52.4342 19.7412 52.639 19.9247 52.7081C20.1082 52.7772 20.313 52.6844 20.3821 52.5009L19.7175 52.2507ZM20.4022 54.0755C20.3947 54.2715 20.5474 54.4364 20.7434 54.4439C20.9393 54.4514 21.1043 54.2987 21.1118 54.1027L20.4022 54.0755ZM21.268 52.7738L21.5715 52.958L21.268 52.7738ZM21.816 51.9204L21.4766 51.8159L21.816 51.9204ZM22.2929 51.7828C22.4648 51.6884 22.5276 51.4726 22.4333 51.3007C22.3389 51.1288 22.123 51.066 21.9511 51.1603L22.2929 51.7828ZM23.0676 53.4232C23.162 53.2513 23.0991 53.0355 22.9272 52.9411C22.7553 52.8468 22.5394 52.9097 22.4451 53.0816L23.0676 53.4232ZM21.5467 55.4817L21.1995 55.4075L21.5467 55.4817ZM21.3173 55.9686L21.651 56.0897L21.651 56.0897L21.3173 55.9686ZM21.3161 55.9717L20.9823 55.8506L20.9823 55.8507L21.3161 55.9717ZM21.5222 56.2263C21.5297 56.0303 21.3769 55.8654 21.181 55.8578C20.985 55.8503 20.8201 56.0031 20.8126 56.199L21.5222 56.2263ZM23.8049 54.8145C23.8764 54.6319 23.7863 54.426 23.6037 54.3545C23.4211 54.283 23.2151 54.3731 23.1436 54.5557L23.8049 54.8145ZM22.2399 56.7456L22.5355 56.9422L22.2399 56.7456ZM22.2977 57.0105C22.2168 56.8318 22.0064 56.7526 21.8278 56.8335C21.6492 56.9145 21.5699 57.1249 21.6509 57.3035L22.2977 57.0105ZM24.7535 55.8857C24.8146 55.6993 24.713 55.4988 24.5267 55.4377C24.3403 55.3767 24.1398 55.4782 24.0787 55.6646L24.7535 55.8857ZM23.1695 57.8313C23.083 58.0074 23.1556 58.2201 23.3316 58.3066C23.5076 58.393 23.7204 58.3204 23.8069 58.1444L23.1695 57.8313ZM26.4088 56.9557C26.444 56.7628 26.3161 56.5779 26.1232 56.5428C25.9302 56.5076 25.7453 56.6355 25.7102 56.8284L26.4088 56.9557ZM25.0628 58.9616C25.0552 59.1576 25.208 59.3225 25.404 59.3301C25.5999 59.3376 25.7648 59.1848 25.7724 58.9889L25.0628 58.9616ZM28.2439 58.2208C28.4295 58.1575 28.5286 57.9557 28.4653 57.7701C28.4019 57.5845 28.2002 57.4854 28.0146 57.5487L28.2439 58.2208ZM25.8718 59.2379C25.7681 59.4043 25.8189 59.6233 25.9853 59.7271C26.1517 59.8308 26.3707 59.78 26.4744 59.6136L25.8718 59.2379ZM28.4891 59.3189C28.6194 59.1724 28.6064 58.948 28.4599 58.8176C28.3134 58.6872 28.089 58.7003 27.9586 58.8468L28.4891 59.3189ZM27.0329 60.8249L27.349 60.9865L27.0329 60.8249ZM26.8215 61.656L27.1569 61.7723L26.8215 61.656ZM26.2896 61.9602C26.2438 62.1508 26.3613 62.3425 26.5519 62.3883C26.7426 62.4341 26.9343 62.3167 26.9801 62.126L26.2896 61.9602ZM29.3462 61.1599C29.4666 61.0051 29.4387 60.782 29.284 60.6616C29.1292 60.5412 28.9061 60.5691 28.7857 60.7239L29.3462 61.1599ZM26.9229 63.865C26.8681 64.0533 26.9763 64.2503 27.1646 64.3051C27.3529 64.36 27.5499 64.2518 27.6047 64.0635L26.9229 63.865ZM29.9852 63.2803C30.1366 63.1557 30.1584 62.9319 30.0339 62.7805C29.9093 62.629 29.6855 62.6072 29.5341 62.7318L29.9852 63.2803ZM28.5837 64.6628L28.2873 64.4673L28.5837 64.6628ZM27.9619 64.9563C27.8675 65.1282 27.9304 65.344 28.1023 65.4384C28.2742 65.5327 28.49 65.4698 28.5844 65.2979L27.9619 64.9563ZM30.6545 64.7586C30.7939 64.6207 30.795 64.3959 30.6571 64.2565C30.5192 64.1171 30.2944 64.1159 30.155 64.2538L30.6545 64.7586ZM28.875 66.126L28.5829 65.924L28.875 66.126ZM28.4772 66.0781C28.3334 66.2113 28.3247 66.436 28.458 66.5799C28.5912 66.7237 28.8159 66.7323 28.9598 66.5991L28.4772 66.0781ZM27.3516 69.0189C27.2254 69.169 27.2447 69.393 27.3947 69.5192C27.5448 69.6455 27.7688 69.6261 27.895 69.4761L27.3516 69.0189ZM30.073 67.0502L29.8509 66.7732L30.073 67.0502ZM31.1383 66.6279C31.3266 66.5731 31.4348 66.376 31.3799 66.1877C31.3251 65.9995 31.128 65.8913 30.9397 65.9461L31.1383 66.6279ZM29.4082 70.5104C29.5678 70.3965 29.6049 70.1748 29.491 70.0152C29.377 69.8555 29.1553 69.8185 28.9957 69.9324L29.4082 70.5104ZM27.7014 71.2459C27.6323 71.4295 27.7251 71.6342 27.9086 71.7033C28.0921 71.7724 28.2969 71.6797 28.366 71.4961L27.7014 71.2459ZM29.7631 72.5429C29.8754 72.3821 29.8361 72.1607 29.6753 72.0485C29.5146 71.9362 29.2932 71.9755 29.1809 72.1363L29.7631 72.5429ZM28.5119 73.0942C28.3996 73.255 28.4389 73.4764 28.5996 73.5886C28.7604 73.7009 28.9818 73.6616 29.094 73.5009L28.5119 73.0942ZM31.3162 73.109C31.3985 72.931 31.321 72.72 31.143 72.6377C30.965 72.5554 30.754 72.633 30.6717 72.811L31.3162 73.109ZM30.3515 73.5959C30.2824 73.7794 30.3751 73.9842 30.5586 74.0533C30.7422 74.1224 30.947 74.0296 31.016 73.8461L30.3515 73.5959ZM33.1262 73.4018C33.2154 73.2271 33.146 73.0133 32.9713 72.9241C32.7967 72.835 32.5828 72.9044 32.4937 73.0791L33.1262 73.4018ZM31.9529 74.1964C31.8714 74.3748 31.9498 74.5854 32.1282 74.667C32.3065 74.7486 32.5172 74.6701 32.5987 74.4918L31.9529 74.1964ZM34.7404 73.4627C34.8289 73.2877 34.7589 73.0741 34.584 72.9855C34.409 72.8969 34.1954 72.967 34.1068 73.1419L34.7404 73.4627ZM33.5293 74.5327C33.5218 74.7286 33.6745 74.8936 33.8705 74.9011C34.0664 74.9086 34.2314 74.7558 34.2389 74.5599L33.5293 74.5327ZM23.5809 25.5171C23.7691 25.4623 23.8773 25.2652 23.8225 25.0769C23.7676 24.8887 23.5705 24.7805 23.3823 24.8353L23.5809 25.5171ZM23.1039 25.7629L22.7665 25.6523L23.1039 25.7629ZM23.2401 26.0804C23.2477 25.8844 23.0949 25.7195 22.8989 25.7119C22.703 25.7044 22.5381 25.8572 22.5305 26.0531L23.2401 26.0804ZM22.1935 24.4727C22.304 24.3107 22.2624 24.0898 22.1004 23.9792C21.9385 23.8687 21.7176 23.9103 21.607 24.0723L22.1935 24.4727ZM20.8862 25.0032C20.7249 25.1148 20.6846 25.336 20.7962 25.4972C20.9077 25.6585 21.1289 25.6988 21.2902 25.5873L20.8862 25.0032ZM21.4513 23.1385C21.5776 22.9884 21.5582 22.7644 21.4082 22.6382C21.2581 22.512 21.0341 22.5313 20.9079 22.6813L21.4513 23.1385ZM20.512 23.9304L20.817 24.1123L20.512 23.9304ZM20.8566 23.888C20.9065 23.6983 20.7931 23.5042 20.6035 23.4543C20.4138 23.4045 20.2197 23.5178 20.1698 23.7075L20.8566 23.888ZM19.4384 22.0335C19.2597 22.1144 19.1805 22.3248 19.2614 22.5035C19.3423 22.6821 19.5527 22.7613 19.7314 22.6804L19.4384 22.0335ZM20.436 21.7416L20.6107 22.0507L20.436 21.7416ZM21.3541 21.6665C21.5214 21.5641 21.5739 21.3455 21.4714 21.1783C21.369 21.0111 21.1504 20.9586 20.9832 21.061L21.3541 21.6665ZM18.6525 21.0632C18.6101 21.2547 18.7309 21.4443 18.9223 21.4867C19.1138 21.5292 19.3034 21.4084 19.3458 21.2169L18.6525 21.0632ZM20.2888 20.081L20.4871 20.3755L20.2888 20.081ZM21.1773 19.7849C21.3559 19.704 21.4351 19.4936 21.3542 19.315C21.2733 19.1363 21.0629 19.0571 20.8843 19.138L21.1773 19.7849ZM18.9878 18.1044C18.8209 18.2074 18.7691 18.4262 18.872 18.593C18.975 18.7599 19.1937 18.8118 19.3606 18.7088L18.9878 18.1044ZM20.8107 17.778C20.939 17.6297 20.9228 17.4054 20.7744 17.2772C20.6261 17.1489 20.4019 17.1651 20.2736 17.3134L20.8107 17.778ZM18.4987 16.7214C18.3533 16.853 18.3421 17.0775 18.4737 17.2229C18.6053 17.3683 18.8298 17.3795 18.9752 17.2479L18.4987 16.7214ZM18.7447 16.9776L18.983 17.2409L18.983 17.2409L18.7447 16.9776ZM20.6121 16.1366C20.804 16.0964 20.927 15.9082 20.8868 15.7162C20.8465 15.5243 20.6583 15.4014 20.4664 15.4416L20.6121 16.1366ZM18.2079 14.7687C18.0391 14.8685 17.9832 15.0863 18.083 15.2551C18.1828 15.4238 18.4006 15.4797 18.5694 15.3799L18.2079 14.7687ZM20.4412 14.3245C20.6084 14.2221 20.6609 14.0035 20.5585 13.8362C20.4561 13.669 20.2375 13.6165 20.0702 13.719L20.4412 14.3245ZM18.763 13.1387C18.5762 13.1986 18.4734 13.3986 18.5333 13.5853C18.5932 13.772 18.7932 13.8748 18.9799 13.8149L18.763 13.1387ZM20.3437 13.2514C20.5382 13.2266 20.6758 13.0488 20.651 12.8543C20.6262 12.6598 20.4484 12.5222 20.2539 12.547L20.3437 13.2514ZM19.5953 11.3976C19.4008 11.4224 19.2632 11.6002 19.288 11.7947C19.3128 11.9892 19.4906 12.1268 19.6851 12.102L19.5953 11.3976ZM22.3249 11.365C22.5208 11.3725 22.6858 11.2197 22.6933 11.0238C22.7008 10.8278 22.548 10.6629 22.3521 10.6554L22.3249 11.365ZM21.2401 8.50492C21.0442 8.4974 20.8792 8.65016 20.8717 8.84612C20.8642 9.04207 21.017 9.20701 21.2129 9.21452L21.2401 8.50492ZM22.4056 9.26025C22.6015 9.26777 22.7665 9.11501 22.774 8.91906C22.7815 8.7231 22.6287 8.55816 22.4328 8.55065L22.4056 9.26025ZM10.3265 27.3991C8.89292 32.1684 8.67366 35.2413 9.08819 37.598C9.50199 39.9507 10.5474 41.5605 11.5308 43.3515L12.1532 43.0098C11.1438 41.1712 10.176 39.6835 9.78758 37.475C9.39985 35.2706 9.58926 32.3187 11.0066 27.6035L10.3265 27.3991ZM11.5308 43.3515C12.3513 44.8462 14.0217 46.8327 15.7506 48.6902C17.4869 50.5557 19.3095 52.3197 20.4594 53.3756L20.9397 52.8525C19.8013 51.8072 17.9922 50.0563 16.2704 48.2064C14.5411 46.3484 12.9269 44.4189 12.1532 43.0098L11.5308 43.3515ZM20.3543 53.0311C20.1267 53.9786 20.1267 55.4412 20.8681 56.7779C21.6196 58.1329 23.1032 59.3055 25.7376 59.7009L25.843 58.9986C23.3901 58.6305 22.1169 57.5654 21.4891 56.4335C20.8512 55.2834 20.8495 54.0099 21.0448 53.197L20.3543 53.0311ZM25.4494 59.4491C25.6827 60.2501 25.8545 60.9391 26.0036 61.5388C26.1516 62.1344 26.2799 62.6527 26.4237 63.0945C26.7165 63.994 27.0928 64.6358 27.899 65.0783L28.2407 64.4558C27.655 64.1343 27.3625 63.6844 27.099 62.8748C26.9646 62.4621 26.8429 61.9714 26.6927 61.3675C26.5436 60.7676 26.3689 60.0664 26.1312 59.2505L25.4494 59.4491ZM27.7354 64.8862C28.2377 66.2965 28.3273 67.3205 28.3158 67.6191L29.0255 67.6463C29.0412 67.2353 28.9286 66.1196 28.4044 64.6479L27.7354 64.8862ZM28.454 67.3514C28.0465 67.6653 27.5178 68.2481 27.233 69.0015C26.9424 69.7703 26.9089 70.7149 27.5086 71.6938L28.1142 71.3228C27.6438 70.555 27.6738 69.8439 27.8973 69.2526C28.1266 68.6459 28.5625 68.1642 28.8873 67.9139L28.454 67.3514ZM27.5086 71.6938C27.8339 72.2247 28.0115 72.5945 28.1276 72.8623C28.1881 73.0017 28.2286 73.1053 28.2732 73.212C28.3147 73.3114 28.3593 73.4121 28.4163 73.5052C28.5457 73.7164 28.7144 73.8483 28.9701 73.9754C29.2083 74.0938 29.5584 74.2251 30.0747 74.4194L30.3249 73.7549C29.7904 73.5536 29.4837 73.4376 29.2861 73.3394C29.1059 73.2499 29.0597 73.196 29.0218 73.1342C28.9953 73.0909 28.9682 73.0334 28.9284 72.9381C28.8916 72.8502 28.841 72.7226 28.7791 72.5798C28.6504 72.2829 28.4577 71.8835 28.1142 71.3228L27.5086 71.6938ZM30.0747 74.4194C30.5728 74.607 31.1545 74.8637 31.7396 75.0397C32.3379 75.2198 32.9885 75.3334 33.6826 75.2367C35.0909 75.0406 36.5356 74.0044 38.0798 71.3586L37.4664 71.0006C35.9681 73.568 34.6769 74.3812 33.5846 74.5334C33.0285 74.6108 32.4875 74.5232 31.9442 74.3598C31.3877 74.1923 30.8776 73.9629 30.3249 73.7549L30.0747 74.4194ZM20.9911 24.8271C20.1508 23.7363 19.6836 22.961 19.4675 22.2189C19.2546 21.488 19.2754 20.7542 19.4876 19.7255L18.7922 19.582C18.568 20.6685 18.5276 21.5313 18.7857 22.4174C19.0405 23.2923 19.5765 24.1544 20.4286 25.2605L20.9911 24.8271ZM19.4876 19.7255C19.7289 18.5563 19.3632 17.6501 19.0897 16.8581C18.8149 16.0625 18.6174 15.3573 18.9667 14.4296L18.3021 14.1794C17.8601 15.3533 18.1336 16.2651 18.4185 17.0899C18.7046 17.9184 18.9874 18.6359 18.7922 19.582L19.4876 19.7255ZM18.9667 14.4296C19.1689 13.8924 19.2987 13.4659 19.4018 13.1167C19.5068 12.761 19.5778 12.5088 19.6674 12.2891C19.8291 11.8925 20.0515 11.5972 20.7464 11.1165L20.3424 10.5325C19.5773 11.0618 19.2403 11.4556 19.0098 12.0211C18.9032 12.2825 18.82 12.5795 18.7208 12.9156C18.6197 13.258 18.4955 13.6657 18.3021 14.1794L18.9667 14.4296ZM20.7464 11.1165C21.2216 10.7878 21.3764 10.3506 21.4376 9.92404C21.4667 9.72097 21.4765 9.50592 21.4885 9.31396C21.5009 9.11454 21.5162 8.92692 21.5526 8.74217C21.6229 8.38641 21.7727 8.03512 22.1582 7.69627C22.5551 7.34742 23.2217 6.99436 24.3606 6.69118L24.178 6.00495C22.9834 6.32294 22.2003 6.71378 21.6894 7.16291C21.167 7.62205 20.9511 8.12284 20.856 8.60463C20.8098 8.83865 20.7924 9.06619 20.7797 9.2697C20.7665 9.48068 20.7586 9.65637 20.7346 9.82324C20.6897 10.1366 20.5973 10.3562 20.3424 10.5325L20.7464 11.1165ZM10.4382 36.3911C10.0758 37.0515 9.72359 37.729 9.432 38.4242L10.0869 38.6989C10.3641 38.0378 10.7024 37.3857 11.0607 36.7328L10.4382 36.3911ZM11.2936 38.4265C11.1766 38.5919 11.0577 38.7104 10.9034 38.8918C10.7591 39.0613 10.6065 39.2632 10.5054 39.5317L11.17 39.7819C11.2285 39.6264 11.3199 39.498 11.4441 39.3521C11.5583 39.218 11.7325 39.0358 11.8734 38.8365L11.2936 38.4265ZM10.5054 39.5317C10.4131 39.7769 10.3685 39.9428 10.2825 40.1359L10.9313 40.4247C11.0251 40.214 11.1058 39.9524 11.17 39.7819L10.5054 39.5317ZM12.289 40.3153C12.2501 40.6345 12.0909 40.893 11.874 41.2117C11.6699 41.5116 11.3986 41.8835 11.301 42.3563L11.9965 42.4998C12.0597 42.1935 12.2342 41.9444 12.461 41.6112C12.6751 41.2967 12.9319 40.91 12.9939 40.4013L12.289 40.3153ZM13.4684 41.703C13.0503 42.4446 12.6983 43.1598 12.2187 43.7919L12.7845 44.2211C13.3027 43.538 13.6949 42.7472 14.087 42.0517L13.4684 41.703ZM14.3853 43.1659C14.2231 43.5076 13.9813 43.8097 13.7179 44.2203C13.4736 44.6012 13.2303 45.0537 13.2101 45.5793L13.9197 45.6066C13.9322 45.2805 14.0849 44.9635 14.3156 44.6038C14.5273 44.2739 14.8397 43.8645 15.0268 43.4704L14.3853 43.1659ZM14.9547 44.2409C14.7897 44.9222 14.6042 45.5755 14.2874 46.1526L14.9099 46.4943C15.2751 45.829 15.4781 45.0968 15.6449 44.4081L14.9547 44.2409ZM14.2874 46.1526C14.1504 46.4023 14.1528 46.6485 14.1466 46.8097L14.8562 46.8369C14.8639 46.6374 14.8681 46.5705 14.9099 46.4943L14.2874 46.1526ZM16.1859 45.3741C16.1191 45.5577 16.0562 45.7594 15.9941 45.9596C15.9312 46.1627 15.8687 46.366 15.7999 46.565C15.6601 46.9692 15.5071 47.3157 15.3132 47.5546L15.8646 48.0021C16.141 47.6616 16.3265 47.2152 16.4711 46.797C16.5444 46.5849 16.6106 46.3695 16.6725 46.1698C16.7352 45.9672 16.7933 45.7817 16.8532 45.6168L16.1859 45.3741ZM17.6571 46.5398C17.1334 47.2817 16.6586 48.0882 16.3307 48.9591L16.9953 49.2093C17.2952 48.4128 17.7353 47.6604 18.2372 46.9494L17.6571 46.5398ZM18.788 47.8012C18.6319 47.8802 18.5339 48.0291 18.478 48.1257C18.4132 48.2375 18.3571 48.3671 18.31 48.4864C18.2625 48.6066 18.2183 48.7316 18.182 48.8318C18.1424 48.9409 18.1157 49.0104 18.0972 49.0474L18.7325 49.3647C18.7729 49.2837 18.8138 49.1727 18.8496 49.0737C18.8887 48.9659 18.9278 48.8552 18.9704 48.7474C19.0134 48.6386 19.0543 48.5476 19.0926 48.4814C19.1397 48.4001 19.1507 48.4135 19.1088 48.4347L18.788 47.8012ZM18.0972 49.0474C18.0131 49.2157 17.9226 49.3718 17.8229 49.5553C17.7269 49.7317 17.6283 49.9235 17.5505 50.13L18.2151 50.3802C18.2752 50.2206 18.3549 50.0633 18.4467 49.8945C18.5347 49.7327 18.6413 49.5473 18.7325 49.3647L18.0972 49.0474ZM19.8255 49.0234C19.7648 49.4106 19.6094 49.7879 19.4229 50.1957C19.243 50.5895 19.0268 51.0255 18.8966 51.4725L19.5784 51.671C19.69 51.2879 19.8742 50.9166 20.0688 50.4909C20.2569 50.0794 20.45 49.625 20.527 49.1334L19.8255 49.0234ZM20.8586 50.2957C20.7104 50.5986 20.5104 50.8841 20.2937 51.2082C20.0843 51.5213 19.8618 51.8675 19.7175 52.2507L20.3821 52.5009C20.4946 52.2021 20.6745 51.9162 20.884 51.6029C21.0862 51.3004 21.3217 50.9649 21.4964 50.6078L20.8586 50.2957ZM21.1118 54.1027C21.1278 53.6844 21.2966 53.4111 21.5715 52.958L20.9645 52.5896C20.7043 53.0183 20.4263 53.445 20.4022 54.0755L21.1118 54.1027ZM21.5715 52.958C21.6444 52.8379 21.7315 52.7376 21.8527 52.5756C21.961 52.4307 22.087 52.2467 22.1553 52.025L21.4766 51.8159C21.446 51.9154 21.3825 52.0185 21.284 52.1503C21.1982 52.2649 21.0608 52.4307 20.9645 52.5896L21.5715 52.958ZM22.1553 52.025C22.1812 51.9408 22.1962 51.8751 22.2059 51.8353C22.2174 51.7878 22.2177 51.7965 22.2095 51.8122C22.1951 51.8396 22.1777 51.8528 22.1824 51.8491C22.1944 51.8399 22.223 51.8212 22.2929 51.7828L21.9511 51.1603C21.8216 51.2315 21.6673 51.3169 21.5805 51.4824C21.5426 51.5549 21.5254 51.6284 21.5159 51.6675C21.5045 51.7142 21.4949 51.7567 21.4766 51.8159L22.1553 52.025ZM22.4451 53.0816C22.2617 53.4157 22.0248 53.7409 21.7713 54.1456C21.5331 54.526 21.296 54.9559 21.1995 55.4075L21.8939 55.5559C21.9629 55.2329 22.1422 54.8914 22.3732 54.5225C22.589 54.1778 22.8742 53.7756 23.0676 53.4232L22.4451 53.0816ZM21.1995 55.4075C21.1931 55.4372 21.1769 55.4743 21.1332 55.5505C21.0971 55.6134 21.0279 55.725 20.9835 55.8475L21.651 56.0897C21.6688 56.0407 21.6954 55.9975 21.749 55.9041C21.795 55.824 21.8624 55.7034 21.8939 55.5559L21.1995 55.4075ZM20.9835 55.8475L20.9823 55.8506L21.6499 56.0928L21.651 56.0897L20.9835 55.8475ZM20.9823 55.8507C20.9688 55.888 20.935 55.9805 20.9077 56.0393C20.9012 56.0533 20.8982 56.0584 20.8989 56.0572C20.8993 56.0566 20.9034 56.0496 20.9112 56.0393C20.9161 56.0328 20.938 56.0041 20.9771 55.976C21.009 55.9531 21.131 55.8759 21.2911 55.9306C21.4434 55.9827 21.4938 56.1092 21.5044 56.1382C21.5278 56.2026 21.5212 56.2517 21.5222 56.2263L20.8126 56.199C20.8117 56.221 20.8077 56.3002 20.837 56.3808C20.8504 56.4179 20.9046 56.549 21.0615 56.6026C21.2261 56.6588 21.3533 56.5801 21.3911 56.553C21.4647 56.5001 21.5044 56.4284 21.5105 56.4181C21.5267 56.3906 21.5408 56.362 21.5518 56.3384C21.5945 56.2464 21.6387 56.1238 21.6499 56.0927L20.9823 55.8507ZM23.1436 54.5557C22.8726 55.2482 22.4002 55.8633 21.9442 56.549L22.5355 56.9422C22.9532 56.3141 23.4973 55.6003 23.8049 54.8145L23.1436 54.5557ZM21.9442 56.549C21.9189 56.587 21.9 56.6278 21.8892 56.6522C21.8764 56.6808 21.8636 56.7121 21.8523 56.7404C21.8275 56.8024 21.8073 56.855 21.7863 56.9021C21.7762 56.9248 21.7688 56.9394 21.7642 56.9477C21.7571 56.9602 21.7633 56.9457 21.7847 56.924C21.7933 56.9153 21.8988 56.8067 22.072 56.8406C22.2399 56.8734 22.2962 57.0071 22.2977 57.0105L21.6509 57.3035C21.6704 57.3467 21.7466 57.5005 21.9357 57.5375C22.1302 57.5755 22.2583 57.4551 22.2902 57.4228C22.3656 57.3463 22.4136 57.2391 22.4349 57.1913C22.4633 57.1275 22.492 57.0532 22.5116 57.0042C22.5394 56.9348 22.5449 56.9281 22.5355 56.9422L21.9442 56.549ZM24.0787 55.6646C23.8417 56.3879 23.5102 57.1376 23.1695 57.8313L23.8069 58.1444C24.1549 57.4358 24.5021 56.6531 24.7535 55.8857L24.0787 55.6646ZM25.7102 56.8284C25.655 57.1314 25.522 57.4256 25.3729 57.7873C25.2318 58.1298 25.0794 58.5278 25.0628 58.9616L25.7724 58.9889C25.7837 58.6938 25.8885 58.4 26.0295 58.058C26.1625 57.7352 26.3366 57.3523 26.4088 56.9557L25.7102 56.8284ZM28.0146 57.5487C27.1776 57.8344 26.3454 58.4783 25.8718 59.2379L26.4744 59.6136C26.8583 58.9979 27.556 58.4556 28.2439 58.2208L28.0146 57.5487ZM27.9586 58.8468C27.4435 59.4256 27.0648 59.9825 26.7167 60.6633L27.349 60.9865C27.6699 60.3588 28.0146 59.852 28.4891 59.3189L27.9586 58.8468ZM26.7167 60.6633C26.6198 60.853 26.5845 61.0354 26.5603 61.1808C26.5344 61.3369 26.5222 61.4353 26.486 61.5397L27.1569 61.7723C27.2183 61.5954 27.2409 61.417 27.2608 61.2972C27.2825 61.1668 27.3041 61.0744 27.349 60.9865L26.7167 60.6633ZM26.486 61.5397C26.475 61.5715 26.461 61.594 26.4192 61.6628C26.3804 61.7268 26.322 61.8253 26.2896 61.9602L26.9801 62.126C26.9854 62.104 26.9943 62.0839 27.0264 62.0311C27.0555 61.9832 27.1159 61.8905 27.1569 61.7723L26.486 61.5397ZM28.7857 60.7239C28.0549 61.6634 27.286 62.618 26.9229 63.865L27.6047 64.0635C27.9229 62.9705 28.5965 62.1237 29.3462 61.1599L28.7857 60.7239ZM29.5341 62.7318C29.24 62.9737 29.0102 63.2927 28.8172 63.5973C28.72 63.7508 28.6277 63.9081 28.541 64.0545C28.4529 64.2033 28.3704 64.3413 28.2873 64.4673L28.88 64.8583C28.9739 64.7161 29.0644 64.5643 29.152 64.4163C29.241 64.266 29.327 64.1196 29.4171 63.9772C29.599 63.6902 29.7802 63.4488 29.9852 63.2803L29.5341 62.7318ZM28.2873 64.4673C28.2395 64.5397 28.1914 64.605 28.1323 64.6892C28.0768 64.7682 28.0157 64.8581 27.9619 64.9563L28.5844 65.2979C28.6188 65.2353 28.6614 65.1713 28.7133 65.0975C28.7616 65.0287 28.8247 64.9422 28.88 64.8583L28.2873 64.4673ZM30.155 64.2538C29.6654 64.7383 29.026 65.2834 28.5829 65.924L29.167 66.328C29.56 65.7597 30.1089 65.2985 30.6545 64.7586L30.155 64.2538ZM28.5829 65.924C28.5647 65.9503 28.5491 65.9746 28.5364 65.9944C28.5228 66.0156 28.5142 66.0292 28.5053 66.0423C28.4894 66.0658 28.4822 66.0735 28.4772 66.0781L28.9598 66.5991C29.0204 66.5429 29.0625 66.4862 29.0939 66.4396C29.1087 66.4177 29.1232 66.3948 29.1341 66.3778C29.146 66.3593 29.1562 66.3436 29.167 66.328L28.5829 65.924ZM27.895 69.4761C28.6098 68.6264 29.4015 68.0436 30.2951 67.3272L29.8509 66.7732C28.9858 67.4666 28.1229 68.1021 27.3516 69.0189L27.895 69.4761ZM30.2951 67.3272C30.3841 67.2559 30.4693 67.1745 30.5461 67.0991C30.6271 67.0196 30.6967 66.949 30.7715 66.8793C30.9244 66.7368 31.04 66.6566 31.1383 66.6279L30.9397 65.9461C30.6704 66.0246 30.4513 66.207 30.2873 66.3598C30.2037 66.4378 30.1192 66.523 30.0488 66.5922C29.9741 66.6654 29.9103 66.7255 29.8509 66.7732L30.2951 67.3272ZM28.9957 69.9324C28.8004 70.0718 28.5308 70.2483 28.2996 70.4477C28.064 70.6508 27.8282 70.9091 27.7014 71.2459L28.366 71.4961C28.4331 71.3179 28.5694 71.1527 28.7633 70.9855C28.9617 70.8145 29.1792 70.6739 29.4082 70.5104L28.9957 69.9324ZM29.1809 72.1363L28.5119 73.0942L29.094 73.5009L29.7631 72.5429L29.1809 72.1363ZM30.6717 72.811C30.5495 73.0753 30.4489 73.3369 30.3515 73.5959L31.016 73.8461C31.1132 73.5881 31.2059 73.3478 31.3162 73.109L30.6717 72.811ZM32.4937 73.0791C32.305 73.4488 32.1252 73.8196 31.9529 74.1964L32.5987 74.4918C32.7666 74.1247 32.942 73.763 33.1262 73.4018L32.4937 73.0791ZM34.1068 73.1419C34.0666 73.2213 34.0164 73.3087 33.9573 73.4113C33.9001 73.5107 33.8358 73.6224 33.7764 73.7375C33.6611 73.9607 33.5405 74.2401 33.5293 74.5327L34.2389 74.5599C34.2438 74.4304 34.3023 74.2669 34.4074 74.0632C34.4582 73.9649 34.5143 73.8671 34.5728 73.7656C34.6293 73.6673 34.6899 73.5624 34.7404 73.4627L34.1068 73.1419ZM23.3823 24.8353C23.243 24.8759 23.1462 24.9694 23.0893 25.0348C23.0271 25.1064 22.976 25.1877 22.936 25.2605C22.8557 25.4065 22.796 25.5622 22.7665 25.6523L23.4413 25.8734C23.4613 25.8125 23.5048 25.6998 23.5582 25.6027C23.585 25.5539 23.6084 25.52 23.6253 25.5006C23.6476 25.4749 23.6346 25.5015 23.5809 25.5171L23.3823 24.8353ZM22.7665 25.6523C22.7462 25.7141 22.6944 25.8595 22.6547 25.9407C22.6449 25.9609 22.642 25.964 22.6465 25.9576C22.6483 25.955 22.6599 25.9383 22.6816 25.9183C22.6958 25.9054 22.761 25.8463 22.8702 25.8347C23.0181 25.8189 23.1286 25.8978 23.1831 25.9721C23.2248 26.0289 23.2351 26.081 23.2369 26.0898C23.2419 26.1143 23.2387 26.119 23.2401 26.0804L22.5305 26.0531C22.5286 26.1037 22.5283 26.1698 22.5413 26.2329C22.5471 26.261 22.5626 26.3268 22.6105 26.3922C22.6714 26.4751 22.7892 26.5575 22.9454 26.5408C23.0629 26.5283 23.1373 26.464 23.1614 26.4419C23.1931 26.4129 23.2153 26.3833 23.2284 26.3646C23.2553 26.3262 23.2771 26.2846 23.2928 26.2525C23.3553 26.1246 23.4196 25.9397 23.4413 25.8734L22.7665 25.6523ZM21.607 24.0723C21.4804 24.2578 21.3802 24.425 21.2444 24.6131C21.1142 24.7936 20.9948 24.9281 20.8862 25.0032L21.2902 25.5873C21.5023 25.4405 21.6794 25.2239 21.8203 25.0287C21.9557 24.841 22.1012 24.6079 22.1935 24.4727L21.607 24.0723ZM20.9079 22.6813C20.6102 23.0352 20.4116 23.4056 20.2071 23.7486L20.817 24.1123C21.042 23.7349 21.2014 23.4356 21.4513 23.1385L20.9079 22.6813ZM20.2071 23.7486C20.1617 23.8247 20.1485 23.8447 20.1498 23.8429C20.1512 23.841 20.1552 23.8356 20.1612 23.8286C20.1654 23.8236 20.1798 23.8068 20.2021 23.7883C20.2132 23.779 20.2351 23.762 20.2661 23.7461C20.2936 23.732 20.3575 23.7035 20.4439 23.7076C20.5483 23.7125 20.643 23.7629 20.7054 23.8419C20.757 23.9072 20.7716 23.9727 20.7765 24.0018C20.7863 24.0592 20.7787 24.1045 20.7777 24.1114C20.7754 24.1267 20.7726 24.138 20.7715 24.1423C20.7692 24.1513 20.7674 24.1563 20.7684 24.1534C20.7711 24.1452 20.8278 23.9978 20.8566 23.888L20.1698 23.7075C20.1475 23.7926 20.1211 23.8497 20.0949 23.9282C20.0922 23.9362 20.0876 23.9502 20.0836 23.9661C20.0816 23.9739 20.0781 23.9881 20.0755 24.0058C20.0741 24.015 20.0665 24.0622 20.0764 24.1209C20.0815 24.1505 20.0963 24.2165 20.1481 24.2821C20.2108 24.3615 20.3058 24.412 20.4106 24.417C20.4974 24.421 20.5618 24.3925 20.5898 24.3781C20.6215 24.3619 20.644 24.3444 20.6558 24.3345C20.6943 24.3025 20.7191 24.2674 20.7212 24.2645C20.7457 24.2313 20.78 24.1743 20.817 24.1123L20.2071 23.7486ZM19.7314 22.6804C19.9496 22.5815 20.1163 22.4424 20.2488 22.3289C20.39 22.2079 20.4893 22.1193 20.6107 22.0507L20.2612 21.4325C20.066 21.5429 19.9078 21.6859 19.7867 21.7897C19.6568 21.901 19.5563 21.9801 19.4384 22.0335L19.7314 22.6804ZM20.6107 22.0507C20.7169 21.9907 20.833 21.9355 20.9636 21.8724C21.0885 21.8121 21.2276 21.7441 21.3541 21.6665L20.9832 21.061C20.8909 21.1175 20.7822 21.1714 20.6547 21.233C20.5329 21.2918 20.3921 21.3585 20.2612 21.4325L20.6107 22.0507ZM19.3458 21.2169C19.3541 21.1797 19.3809 21.1241 19.4513 21.0496C19.5214 20.9754 19.6189 20.8991 19.739 20.82C19.8583 20.7414 19.9875 20.6679 20.1185 20.5942C20.2433 20.5239 20.3788 20.4484 20.4871 20.3755L20.0906 19.7864C20.0113 19.8397 19.9053 19.8992 19.77 19.9754C19.6407 20.0483 19.4911 20.133 19.3483 20.227C19.2063 20.3206 19.0584 20.4315 18.9352 20.5619C18.8123 20.6919 18.698 20.8582 18.6525 21.0632L19.3458 21.2169ZM20.4871 20.3755C20.6651 20.2557 20.8065 20.1009 20.9057 20.0006C21.016 19.8889 21.0918 19.8236 21.1773 19.7849L20.8843 19.138C20.67 19.2351 20.5158 19.3848 20.4004 19.5015C20.274 19.6296 20.1942 19.7167 20.0906 19.7864L20.4871 20.3755ZM19.3606 18.7088C19.5611 18.5852 19.7824 18.4846 20.0649 18.3297C20.3194 18.1902 20.607 18.0136 20.8107 17.778L20.2736 17.3134C20.1591 17.4458 19.9699 17.5719 19.7236 17.707C19.5053 17.8267 19.2017 17.9725 18.9878 18.1044L19.3606 18.7088ZM18.9752 17.2479L18.983 17.2409L18.5065 16.7143L18.4987 16.7214L18.9752 17.2479ZM18.983 17.2409C19.2172 17.0289 19.496 16.777 19.7909 16.5615C20.0915 16.3419 20.3743 16.1865 20.6121 16.1366L20.4664 15.4416C20.0778 15.5231 19.6958 15.7515 19.372 15.9881C19.0424 16.2289 18.7372 16.5056 18.5065 16.7143L18.983 17.2409ZM18.5694 15.3799C18.871 15.2015 19.1796 15.0348 19.4955 14.8626C19.8092 14.6916 20.129 14.5158 20.4412 14.3245L20.0702 13.719C19.7751 13.8998 19.4696 14.0679 19.1557 14.2391C18.844 14.4089 18.5227 14.5825 18.2079 14.7687L18.5694 15.3799ZM18.9799 13.8149C19.2584 13.7256 19.5234 13.5774 19.7345 13.4711C19.9615 13.3567 20.1502 13.2761 20.3437 13.2514L20.2539 12.547C19.9318 12.5881 19.6508 12.7181 19.4149 12.8369C19.1632 12.9638 18.9723 13.0716 18.763 13.1387L18.9799 13.8149ZM19.6851 12.102C20.1895 12.0377 20.6887 11.8209 21.1148 11.6547C21.5662 11.4787 21.9529 11.3507 22.3249 11.365L22.3521 10.6554C21.8156 10.6348 21.3026 10.8193 20.8568 10.9931C20.3857 11.1768 19.99 11.3473 19.5953 11.3976L19.6851 12.102ZM21.2129 9.21452L22.4056 9.26025L22.4328 8.55065L21.2401 8.50492L21.2129 9.21452Z" fill="#FDFEFF"/>
</svg>
