<svg width="240" height="228" viewBox="0 0 240 228" fill="none" xmlns="http://www.w3.org/2000/svg">
<g clip-path="url(#clip0_4_51282)">
<rect width="240" height="228" fill="url(#paint0_linear_4_51282)" fill-opacity="0.25"/>
<path d="M139.498 263.179C142.783 264.433 144.452 268.178 143.195 271.472L136.551 288.1C136.181 289.069 135.112 289.548 134.146 289.179C133.179 288.81 132.703 287.74 133.073 286.771L139.46 270.045C139.978 268.689 139.302 267.173 137.949 266.657C136.597 266.14 135.083 266.82 134.565 268.176L134.491 268.37L133.48 271.018C133.11 271.987 132.04 272.466 131.075 272.097C130.108 271.728 129.632 270.658 130.001 269.69L132.048 264.33C132.591 262.909 131.851 261.368 130.498 260.852C129.081 260.311 127.543 261.055 127.025 262.411L125.94 265.253C125.57 266.222 124.501 266.701 123.535 266.333C122.568 265.964 122.092 264.893 122.462 263.925L124.533 258.5C125.076 257.079 124.336 255.539 122.983 255.022C121.566 254.481 120.027 255.225 119.509 256.582L118.424 259.423C118.054 260.392 116.985 260.872 116.019 260.503C115.053 260.134 114.576 259.064 114.946 258.095L122.887 237.301C123.134 236.655 123.123 235.911 122.845 235.287C122.566 234.662 122.086 234.183 121.377 233.912C120 233.46 118.486 234.14 117.968 235.496L106.427 265.719C106.008 266.817 104.994 267.54 103.791 267.598C102.587 267.657 101.462 266.931 100.985 265.861L98.1239 259.441C97.6318 258.217 96.3289 257.572 95.0271 257.888C94.2996 258.054 93.6666 258.553 93.2664 259.214C92.9304 259.9 92.8523 260.684 93.0815 261.437L96.5873 271.582C96.9356 272.602 96.4517 273.676 95.4323 274.026C94.9474 274.137 94.5117 274.119 94.1254 273.971C93.61 273.774 93.1935 273.319 93.0193 272.809L89.4492 262.64C88.8718 260.865 89.0229 258.925 89.9214 257.344C90.845 255.699 92.3782 254.583 94.1649 254.155C97.1643 253.451 100.286 254.938 101.558 257.792L103.625 262.429L113.439 236.727C113.784 235.822 114.575 233.86 114.989 233.249C116.525 230.579 119.81 229.318 122.773 230.449C124.383 231.064 125.643 232.212 126.358 233.816C126.914 235.065 127.05 236.448 126.775 237.749C126.721 238.043 125.891 240.256 125.483 241.325L121.76 251.078C122.656 251.05 123.567 251.176 124.469 251.52C126.852 252.43 128.37 254.638 128.572 257.009C129.671 256.836 130.889 256.931 131.984 257.35C134.367 258.259 135.885 260.467 136.087 262.838C137.186 262.666 138.404 262.761 139.498 263.179Z" fill="#26262E"/>
<path d="M35.075 102.075H197.4C201.556 102.075 204.925 105.444 204.925 109.6V125.725H42.6C38.4441 125.725 35.075 122.356 35.075 118.2V102.075Z" fill="#FDFEFF"/>
<path d="M185.125 110.763L190.5 116.138L195.875 110.763" stroke="#26262E" stroke-width="2.15" stroke-linecap="round" stroke-linejoin="round"/>
<path d="M35.075 102.075H197.4C201.556 102.075 204.925 105.444 204.925 109.6V125.725H42.6C38.4441 125.725 35.075 122.356 35.075 118.2V102.075Z" stroke="#BFC0C1" stroke-width="2.15"/>
</g>
<defs>
<linearGradient id="paint0_linear_4_51282" x1="120" y1="0" x2="120" y2="228" gradientUnits="userSpaceOnUse">
<stop offset="0.25" stop-color="#FDFEFF" stop-opacity="0"/>
<stop offset="0.75" stop-color="#FF8E0A" stop-opacity="0.534586"/>
<stop offset="1" stop-color="#FF8E0A" stop-opacity="0.9"/>
</linearGradient>
<clipPath id="clip0_4_51282">
<rect width="240" height="228" fill="white"/>
</clipPath>
</defs>
</svg>
