<svg width="240" height="228" viewBox="0 0 240 228" fill="none" xmlns="http://www.w3.org/2000/svg">
<rect width="240" height="228" fill="url(#paint0_linear_4_51319)" fill-opacity="0.25"/>
<path d="M158.783 148.374C158.378 148.012 158.137 147.567 158.061 147.04C158.031 146.461 158.222 145.942 158.633 145.482C158.999 145.073 159.364 144.664 159.73 144.256C160.095 143.847 160.461 143.438 160.826 143.029C162.811 141.218 164.919 139.931 167.151 139.168C169.48 138.4 171.798 137.898 174.106 137.663C176.511 137.422 178.821 137.235 181.038 137.102C183.305 137.014 185.346 136.771 187.163 136.372C189.075 135.967 190.655 135.219 191.904 134.129C193.381 132.783 194.196 131.259 194.35 129.558C194.554 127.901 194.251 126.251 193.441 124.607C192.727 122.957 191.686 121.521 190.317 120.297C187.935 118.167 185.458 117.01 182.887 116.826C180.315 116.642 177.586 117.603 174.698 119.711C173.998 120.188 173.333 120.421 172.705 120.411C172.121 120.349 171.526 120.046 170.917 119.502L164.455 113.724C163.999 113.317 163.731 112.801 163.65 112.177C163.666 111.547 163.925 110.952 164.427 110.389C166.305 108.391 168.521 106.831 171.073 105.711C173.721 104.585 176.567 104.003 179.61 103.966C182.704 103.974 185.856 104.631 189.065 105.937C192.32 107.193 195.519 109.225 198.662 112.035C202.108 115.117 204.586 118.16 206.095 121.164C207.701 124.163 208.548 126.989 208.637 129.643C208.777 132.343 208.397 134.808 207.498 137.038C206.644 139.217 205.484 141.076 204.017 142.614C202.179 144.466 200.195 145.818 198.064 146.671C195.933 147.524 193.717 148.116 191.414 148.448C189.156 148.729 186.874 148.986 184.566 149.222C182.304 149.406 180.145 149.728 178.091 150.19C176.087 150.697 174.293 151.53 172.71 152.689C172.197 153.058 171.71 153.45 171.248 153.865C170.832 154.228 170.416 154.592 170 154.955C169.249 155.387 168.561 155.646 167.937 155.732C167.359 155.766 166.791 155.535 166.234 155.036L158.783 148.374ZM145.671 162.58C145.164 162.127 144.894 161.563 144.859 160.888C144.824 160.213 145.035 159.62 145.491 159.109L151.454 152.441C151.956 151.879 152.545 151.578 153.219 151.537C153.894 151.497 154.485 151.703 154.992 152.156L162.366 158.75C162.924 159.248 163.22 159.835 163.255 160.51C163.29 161.185 163.056 161.803 162.554 162.365L156.591 169.034C156.134 169.545 155.569 169.82 154.894 169.861C154.22 169.901 153.603 169.672 153.046 169.174L145.671 162.58Z" fill="#FF8E0A"/>
<path d="M115.412 139.67C114.868 139.67 114.392 139.499 113.984 139.156C113.576 138.745 113.372 138.231 113.372 137.614C113.372 137.066 113.372 136.517 113.372 135.969C113.372 135.421 113.372 134.872 113.372 134.324C113.644 131.651 114.358 129.286 115.514 127.23C116.738 125.105 118.132 123.185 119.695 121.472C121.327 119.69 122.925 118.01 124.489 116.434C126.12 114.857 127.48 113.315 128.568 111.807C129.724 110.231 130.404 108.62 130.608 106.975C130.812 104.987 130.404 103.308 129.384 101.937C128.432 100.566 127.106 99.5376 125.406 98.8521C123.775 98.0981 122.041 97.7211 120.205 97.7211C117.01 97.7211 114.392 98.5094 112.352 100.086C110.313 101.662 108.919 104.199 108.171 107.694C107.967 108.517 107.627 109.134 107.151 109.545C106.675 109.888 106.029 110.059 105.214 110.059H96.5449C95.933 110.059 95.3891 109.854 94.9132 109.442C94.5052 108.962 94.3013 108.346 94.3013 107.592C94.3693 104.85 94.9812 102.211 96.137 99.6746C97.3608 97.07 99.0945 94.7394 101.338 92.6831C103.65 90.6268 106.437 89.016 109.701 87.8507C112.964 86.6169 116.704 86 120.919 86C125.542 86 129.418 86.6169 132.545 87.8507C135.741 89.016 138.257 90.5582 140.092 92.4775C141.996 94.3967 143.356 96.4873 144.172 98.7493C144.987 100.943 145.361 103.102 145.293 105.227C145.157 107.831 144.58 110.162 143.56 112.218C142.54 114.275 141.282 116.194 139.786 117.976C138.291 119.69 136.761 121.403 135.197 123.117C133.633 124.762 132.239 126.441 131.016 128.155C129.86 129.869 129.078 131.685 128.67 133.604C128.534 134.221 128.432 134.838 128.364 135.455C128.296 136.003 128.228 136.552 128.16 137.1C127.888 137.923 127.548 138.574 127.14 139.054C126.732 139.465 126.154 139.67 125.406 139.67H115.412ZM115.106 159C114.426 159 113.848 158.76 113.372 158.28C112.896 157.8 112.658 157.218 112.658 156.532V147.587C112.658 146.833 112.896 146.216 113.372 145.737C113.848 145.257 114.426 145.017 115.106 145.017H124.999C125.746 145.017 126.358 145.257 126.834 145.737C127.31 146.216 127.548 146.833 127.548 147.587V156.532C127.548 157.218 127.31 157.8 126.834 158.28C126.358 158.76 125.746 159 124.999 159H115.106Z" fill="#FF8E0A"/>
<path d="M72.6725 154.226C72.267 154.588 71.798 154.778 71.2655 154.794C70.6872 154.759 70.1925 154.512 69.7813 154.052C69.4158 153.643 69.0504 153.235 68.6849 152.826C68.3194 152.417 67.9539 152.008 67.5884 151.599C66.0093 149.425 64.9653 147.187 64.4563 144.883C63.9523 142.484 63.7121 140.124 63.7357 137.804C63.7642 135.388 63.836 133.071 63.9509 130.853C64.1166 128.591 64.1023 126.535 63.9081 124.685C63.7189 122.74 63.1521 121.086 62.2077 119.723C61.0348 118.106 59.6114 117.126 57.9374 116.783C56.314 116.396 54.6404 116.513 52.9164 117.135C51.1974 117.66 49.6537 118.535 48.2852 119.759C45.903 121.888 44.4771 124.221 44.0073 126.756C43.5376 129.29 44.189 132.11 45.9615 135.215C46.3577 135.964 46.5155 136.65 46.4348 137.274C46.3084 137.847 45.9412 138.405 45.3329 138.949L38.8707 144.727C38.4145 145.135 37.872 145.344 37.243 145.354C36.6191 145.269 36.0559 144.945 35.5533 144.383C33.7765 142.293 32.4737 139.918 31.6449 137.257C30.8212 134.5 30.5602 131.607 30.8622 128.578C31.2149 125.505 32.2193 122.446 33.8755 119.402C35.486 116.307 37.8624 113.355 41.0049 110.545C44.4514 107.463 47.7516 105.34 50.9055 104.175C54.0643 102.914 56.9676 102.387 59.6154 102.594C62.3138 102.756 64.7209 103.408 66.8368 104.551C68.907 105.642 70.6249 107.002 71.9906 108.632C73.6253 110.664 74.7478 112.787 75.3582 114.999C75.9685 117.212 76.3101 119.481 76.3829 121.807C76.41 124.081 76.4118 126.378 76.3883 128.698C76.319 130.967 76.3993 133.148 76.6292 135.241C76.9097 137.289 77.5375 139.164 78.5127 140.867C78.8225 141.417 79.1576 141.945 79.5181 142.45C79.833 142.904 80.1478 143.358 80.4626 143.812C80.8081 144.607 80.9887 145.319 81.0044 145.949C80.9744 146.527 80.6807 147.066 80.1231 147.564L72.6725 154.226ZM85.3282 168.839C84.8214 169.292 84.2306 169.499 83.556 169.458C82.8814 169.418 82.3157 169.142 81.8588 168.631L75.8966 161.963C75.3941 161.401 75.1603 160.782 75.1953 160.107C75.2303 159.432 75.5012 158.868 76.008 158.415L83.3826 151.822C83.9402 151.323 84.5562 151.094 85.2308 151.135C85.9054 151.175 86.494 151.476 86.9966 152.038L92.9588 158.707C93.4156 159.218 93.6266 159.811 93.5916 160.486C93.5566 161.16 93.2603 161.747 92.7028 162.246L85.3282 168.839Z" fill="#FF8E0A"/>
<defs>
<linearGradient id="paint0_linear_4_51319" x1="120" y1="0" x2="120" y2="228" gradientUnits="userSpaceOnUse">
<stop offset="0.25" stop-color="#FDFEFF" stop-opacity="0"/>
<stop offset="0.75" stop-color="#FF8E0A" stop-opacity="0.534586"/>
<stop offset="1" stop-color="#FF8E0A" stop-opacity="0.9"/>
</linearGradient>
</defs>
</svg>
