<svg width="240" height="228" viewBox="0 0 240 228" fill="none" xmlns="http://www.w3.org/2000/svg">
<rect width="240" height="228" fill="url(#paint0_linear_4_51297)" fill-opacity="0.25"/>
<path d="M35.075 102.075H197.4C201.556 102.075 204.925 105.444 204.925 109.6V125.725H42.6C38.4441 125.725 35.075 122.356 35.075 118.2V102.075Z" fill="#FDFEFF"/>
<path d="M185.125 110.763L190.5 116.138L195.875 110.763" stroke="#26262E" stroke-width="2.15" stroke-linecap="round" stroke-linejoin="round"/>
<path d="M35.075 102.075H197.4C201.556 102.075 204.925 105.444 204.925 109.6V125.725H42.6C38.4441 125.725 35.075 122.356 35.075 118.2V102.075Z" stroke="#BFC0C1" stroke-width="2.15"/>
<path d="M138.907 121.7C142.191 120.446 145.932 122.125 147.189 125.419L153.319 142.243C153.689 143.212 153.212 144.282 152.246 144.651C151.28 145.02 150.211 144.54 149.841 143.571L143.454 126.845C142.936 125.489 141.422 124.809 140.07 125.326C138.717 125.842 138.041 127.358 138.559 128.714L138.633 128.908L139.644 131.556C140.014 132.525 139.537 133.595 138.571 133.964C137.605 134.333 136.536 133.852 136.166 132.884L134.12 127.524C133.577 126.103 131.999 125.448 130.646 125.964C129.229 126.506 128.578 128.086 129.096 129.442L130.181 132.284C130.551 133.253 130.074 134.323 129.108 134.692C128.142 135.061 127.073 134.58 126.703 133.612L124.632 128.187C124.089 126.767 122.511 126.111 121.158 126.628C119.741 127.169 119.09 128.749 119.608 130.106L120.693 132.947C121.063 133.916 120.586 134.986 119.62 135.355C118.654 135.724 117.585 135.244 117.215 134.275L109.275 113.481C109.028 112.835 108.524 112.288 107.901 112.008C107.277 111.728 106.599 111.691 105.89 111.961C104.562 112.542 103.887 114.058 104.405 115.414L115.946 145.638C116.365 146.735 116.091 147.95 115.233 148.795C114.375 149.641 113.053 149.85 111.984 149.37L105.571 146.491C104.389 145.907 102.987 146.294 102.228 147.398C101.796 148.007 101.657 148.8 101.799 149.56C102.006 150.295 102.47 150.932 103.143 151.34L112.518 156.566C113.458 157.095 113.813 158.217 113.287 159.158C112.999 159.564 112.662 159.841 112.275 159.988C111.76 160.185 111.146 160.123 110.676 159.859L101.237 154.658C99.6235 153.72 98.4427 152.173 98.059 150.395C97.6512 148.554 98.0498 146.699 99.0969 145.19C100.863 142.665 104.182 141.694 107.032 142.973L111.664 145.053L101.849 119.35C101.503 118.446 100.785 116.456 100.686 115.725C100.051 112.711 101.66 109.581 104.623 108.449C106.233 107.835 107.937 107.85 109.54 108.57C110.787 109.13 111.81 110.071 112.472 111.224C112.628 111.479 113.484 113.681 113.892 114.751L117.617 124.503C118.266 123.885 119.03 123.371 119.932 123.027C122.314 122.117 124.918 122.751 126.648 124.384C127.353 123.523 128.324 122.782 129.419 122.364C131.802 121.454 134.406 122.087 136.136 123.72C136.84 122.859 137.812 122.118 138.907 121.7Z" fill="#26262E"/>
<defs>
<linearGradient id="paint0_linear_4_51297" x1="120" y1="0" x2="120" y2="228" gradientUnits="userSpaceOnUse">
<stop offset="0.25" stop-color="#FDFEFF" stop-opacity="0"/>
<stop offset="0.75" stop-color="#FF8E0A" stop-opacity="0.534586"/>
<stop offset="1" stop-color="#FF8E0A" stop-opacity="0.9"/>
</linearGradient>
</defs>
</svg>
