<svg width="240" height="228" viewBox="0 0 240 228" fill="none" xmlns="http://www.w3.org/2000/svg">
<g clip-path="url(#clip0_4_51323)">
<rect width="240" height="228" fill="url(#paint0_linear_4_51323)" fill-opacity="0.25"/>
<path d="M35.075 102.075H197.4C201.556 102.075 204.925 105.444 204.925 109.6V125.725H42.6C38.4441 125.725 35.075 122.356 35.075 118.2V102.075Z" fill="#FDFEFF"/>
<path d="M185.125 110.763L190.5 116.138L195.875 110.763" stroke="#26262E" stroke-width="2.15" stroke-linecap="round" stroke-linejoin="round"/>
<path d="M35.075 102.075H197.4C201.556 102.075 204.925 105.444 204.925 109.6V125.725H42.6C38.4441 125.725 35.075 122.356 35.075 118.2V102.075Z" stroke="#26262E" stroke-width="2.15"/>
<path d="M170.649 265.28C173.933 266.534 175.602 270.279 174.345 273.573L167.701 290.201C167.331 291.17 166.262 291.649 165.296 291.28C164.329 290.911 163.853 289.841 164.223 288.873L170.61 272.146C171.128 270.79 170.452 269.274 169.099 268.758C167.747 268.241 166.233 268.921 165.715 270.277L165.641 270.471L164.63 273.119C164.26 274.088 163.191 274.567 162.225 274.199C161.258 273.83 160.782 272.759 161.152 271.791L163.198 266.431C163.741 265.01 163.001 263.469 161.648 262.953C160.231 262.412 158.693 263.156 158.175 264.512L157.09 267.354C156.72 268.323 155.651 268.802 154.685 268.434C153.719 268.065 153.242 266.994 153.612 266.026L155.683 260.601C156.226 259.18 155.486 257.64 154.133 257.123C152.716 256.582 151.178 257.327 150.66 258.683L149.574 261.525C149.204 262.493 148.135 262.973 147.17 262.604C146.203 262.235 145.727 261.165 146.096 260.196L154.037 239.402C154.284 238.756 154.273 238.012 153.995 237.388C153.717 236.763 153.236 236.284 152.527 236.013C151.15 235.561 149.636 236.241 149.118 237.597L137.577 267.82C137.158 268.918 136.144 269.641 134.941 269.7C133.737 269.758 132.612 269.032 132.136 267.963L129.274 261.542C128.782 260.318 127.479 259.673 126.177 259.989C125.45 260.156 124.817 260.654 124.416 261.315C124.08 262.001 124.002 262.785 124.232 263.538L127.737 273.683C128.086 274.704 127.602 275.777 126.582 276.128C126.098 276.238 125.662 276.22 125.275 276.072C124.76 275.876 124.344 275.42 124.169 274.91L120.599 264.741C120.022 262.966 120.173 261.026 121.071 259.445C121.995 257.8 123.528 256.684 125.315 256.256C128.314 255.552 131.436 257.039 132.708 259.893L134.775 264.53L144.59 238.828C144.934 237.923 145.725 235.961 146.139 235.35C147.675 232.68 150.96 231.419 153.923 232.551C155.533 233.165 156.793 234.313 157.508 235.918C158.064 237.166 158.2 238.549 157.925 239.85C157.872 240.144 157.041 242.357 156.633 243.426L152.91 253.179C153.806 253.151 154.717 253.277 155.619 253.621C158.002 254.531 159.52 256.739 159.722 259.11C160.821 258.937 162.039 259.033 163.134 259.451C165.517 260.361 167.035 262.568 167.237 264.939C168.336 264.767 169.554 264.862 170.649 265.28Z" fill="#26262E"/>
</g>
<defs>
<linearGradient id="paint0_linear_4_51323" x1="120" y1="0" x2="120" y2="228" gradientUnits="userSpaceOnUse">
<stop offset="0.25" stop-color="#FDFEFF" stop-opacity="0"/>
<stop offset="0.75" stop-color="#FF8E0A" stop-opacity="0.534586"/>
<stop offset="1" stop-color="#FF8E0A" stop-opacity="0.9"/>
</linearGradient>
<clipPath id="clip0_4_51323">
<rect width="240" height="228" fill="white"/>
</clipPath>
</defs>
</svg>
