<svg width="240" height="228" viewBox="0 0 240 228" fill="none" xmlns="http://www.w3.org/2000/svg">
<rect width="240" height="228" fill="url(#paint0_linear_4_51293)" fill-opacity="0.25"/>
<path d="M142.274 136.975C141.766 136.781 141.383 136.451 141.124 135.985C140.889 135.456 140.882 134.902 141.102 134.326C141.298 133.814 141.494 133.302 141.689 132.789C141.885 132.277 142.08 131.765 142.276 131.253C143.484 128.852 144.994 126.898 146.808 125.389C148.709 123.84 150.696 122.545 152.768 121.502C154.928 120.419 157.02 119.42 159.043 118.505C161.13 117.614 162.95 116.659 164.505 115.638C166.147 114.578 167.356 113.315 168.134 111.851C169.034 110.067 169.252 108.353 168.788 106.708C168.388 105.088 167.516 103.654 166.173 102.408C164.917 101.121 163.432 100.15 161.717 99.4956C158.732 98.3556 156.005 98.1582 153.537 98.9034C151.069 99.6485 148.863 101.521 146.917 104.52C146.433 105.215 145.895 105.67 145.304 105.885C144.737 106.035 144.072 105.965 143.31 105.674L135.212 102.581C134.64 102.363 134.206 101.977 133.908 101.423C133.698 100.829 133.727 100.18 133.996 99.4756C135.038 96.9385 136.551 94.6914 138.535 92.7345C140.608 90.7377 143.059 89.179 145.889 88.0584C148.782 86.962 151.96 86.4516 155.425 86.5273C158.914 86.5388 162.627 87.2965 166.565 88.8003C170.884 90.4496 174.285 92.4084 176.766 94.6768C179.336 96.9053 181.136 99.2435 182.166 101.691C183.26 104.163 183.784 106.602 183.74 109.006C183.719 111.346 183.298 113.496 182.477 115.457C181.421 117.842 180.049 119.813 178.363 121.37C176.677 122.928 174.817 124.272 172.784 125.403C170.775 126.47 168.735 127.526 166.663 128.569C164.615 129.547 162.714 130.619 160.959 131.783C159.268 132.972 157.89 134.39 156.824 136.037C156.477 136.565 156.161 137.105 155.878 137.657C155.619 138.145 155.36 138.633 155.1 139.121C154.553 139.793 154.003 140.28 153.451 140.582C152.923 140.821 152.31 140.807 151.611 140.54L142.274 136.975ZM135.093 154.923C134.458 154.681 134.003 154.251 133.73 153.633C133.456 153.015 133.442 152.385 133.686 151.745L136.878 143.389C137.147 142.684 137.589 142.193 138.205 141.914C138.82 141.636 139.446 141.618 140.081 141.86L149.323 145.389C150.021 145.656 150.507 146.099 150.781 146.717C151.054 147.335 151.057 147.996 150.788 148.7L147.597 157.057C147.352 157.697 146.922 158.157 146.306 158.435C145.69 158.713 145.033 158.719 144.334 158.452L135.093 154.923Z" fill="#FF8E0A"/>
<path d="M142.274 136.975C141.766 136.781 141.383 136.451 141.124 135.985C140.889 135.456 140.882 134.902 141.102 134.326C141.298 133.814 141.494 133.302 141.689 132.789C141.885 132.277 142.08 131.765 142.276 131.253C143.484 128.852 144.994 126.898 146.808 125.389C148.709 123.84 150.696 122.545 152.768 121.502C154.928 120.419 157.02 119.42 159.043 118.505C161.13 117.614 162.95 116.659 164.505 115.638C166.147 114.578 167.356 113.315 168.134 111.851C169.034 110.067 169.252 108.353 168.788 106.708C168.388 105.088 167.516 103.654 166.173 102.408C164.917 101.121 163.432 100.15 161.717 99.4956C158.732 98.3556 156.005 98.1582 153.537 98.9034C151.069 99.6485 148.863 101.521 146.917 104.52C146.433 105.215 145.895 105.67 145.304 105.885C144.737 106.035 144.072 105.965 143.31 105.674L135.212 102.581C134.64 102.363 134.206 101.977 133.908 101.423C133.698 100.829 133.727 100.18 133.996 99.4756C135.038 96.9385 136.551 94.6914 138.535 92.7345C140.608 90.7377 143.059 89.179 145.889 88.0584C148.782 86.962 151.96 86.4516 155.425 86.5273C158.914 86.5388 162.627 87.2965 166.565 88.8003C170.884 90.4496 174.285 92.4084 176.766 94.6768C179.336 96.9053 181.136 99.2435 182.166 101.691C183.26 104.163 183.784 106.602 183.74 109.006C183.719 111.346 183.298 113.496 182.477 115.457C181.421 117.842 180.049 119.813 178.363 121.37C176.677 122.928 174.817 124.272 172.784 125.403C170.775 126.47 168.735 127.526 166.663 128.569C164.615 129.547 162.714 130.619 160.959 131.783C159.268 132.972 157.89 134.39 156.824 136.037C156.477 136.565 156.161 137.105 155.878 137.657C155.619 138.145 155.36 138.633 155.1 139.121C154.553 139.793 154.003 140.28 153.451 140.582C152.923 140.821 152.31 140.807 151.611 140.54L142.274 136.975ZM135.093 154.923C134.458 154.681 134.003 154.251 133.73 153.633C133.456 153.015 133.442 152.385 133.686 151.745L136.878 143.389C137.147 142.684 137.589 142.193 138.205 141.914C138.82 141.636 139.446 141.618 140.081 141.86L149.323 145.389C150.021 145.656 150.507 146.099 150.781 146.717C151.054 147.335 151.057 147.996 150.788 148.7L147.597 157.057C147.352 157.697 146.922 158.157 146.306 158.435C145.69 158.713 145.033 158.719 144.334 158.452L135.093 154.923Z" fill="#FF8E0A"/>
<path d="M90.5249 140.106C90.0168 140.3 89.511 140.31 89.0077 140.136C88.4799 139.897 88.1059 139.489 87.8858 138.913C87.6902 138.401 87.4946 137.888 87.299 137.376C87.1034 136.864 86.9077 136.352 86.7121 135.839C86.0125 133.245 85.8358 130.781 86.182 128.448C86.5673 126.026 87.1847 123.736 88.0343 121.577C88.9229 119.33 89.8165 117.191 90.7149 115.161C91.6769 113.106 92.397 111.18 92.8753 109.383C93.3927 107.498 93.4532 105.751 93.0569 104.141C92.5384 102.211 91.5582 100.788 90.1164 99.8711C88.7381 98.9299 87.1328 98.4424 85.3003 98.4084C83.507 98.2861 81.7528 98.5524 80.0379 99.2073C77.0526 100.347 74.8884 102.017 73.5454 104.218C72.2023 106.418 71.805 109.285 72.3534 112.817C72.4562 113.659 72.3587 114.356 72.0608 114.91C71.7385 115.4 71.1962 115.791 70.434 116.082L62.3357 119.174C61.7641 119.392 61.1826 119.394 60.5912 119.18C60.039 118.877 59.6284 118.374 59.3594 117.669C58.4448 115.084 58.075 112.4 58.2501 109.618C58.4642 106.748 59.2524 103.953 60.6149 101.231C62.0409 98.4856 64.0704 95.9864 66.7035 93.7336C69.3121 91.4168 72.5854 89.5064 76.5234 88.0027C80.8425 86.3534 84.683 85.5472 88.0449 85.5841C91.4459 85.5327 94.3461 86.0761 96.7457 87.2142C99.2089 88.328 101.225 89.796 102.794 91.6181C104.339 93.3762 105.458 95.2599 106.153 97.2692C106.955 99.751 107.247 102.134 107.027 104.419C106.808 106.704 106.318 108.946 105.556 111.144C104.77 113.279 103.952 115.425 103.103 117.584C102.229 119.679 101.526 121.745 100.994 123.782C100.525 125.795 100.443 127.771 100.747 129.71C100.84 130.335 100.964 130.947 101.121 131.548C101.253 132.084 101.385 132.621 101.517 133.157C101.557 134.023 101.471 134.752 101.261 135.346C101.027 135.876 100.56 136.274 99.8618 136.541L90.5249 140.106ZM97.1347 158.273C96.4995 158.516 95.874 158.498 95.2583 158.219C94.6425 157.941 94.2123 157.482 93.9678 156.841L90.7768 148.485C90.5078 147.78 90.51 147.119 90.7835 146.501C91.0569 145.883 91.5112 145.453 92.1464 145.21L101.388 141.681C102.087 141.414 102.744 141.42 103.36 141.699C103.975 141.977 104.418 142.469 104.687 143.173L107.878 151.53C108.122 152.17 108.108 152.799 107.834 153.417C107.561 154.035 107.075 154.478 106.376 154.744L97.1347 158.273Z" fill="#FF8E0A"/>
<defs>
<linearGradient id="paint0_linear_4_51293" x1="120" y1="0" x2="120" y2="228" gradientUnits="userSpaceOnUse">
<stop offset="0.25" stop-color="#FDFEFF" stop-opacity="0"/>
<stop offset="0.75" stop-color="#FF8E0A" stop-opacity="0.534586"/>
<stop offset="1" stop-color="#FF8E0A" stop-opacity="0.9"/>
</linearGradient>
</defs>
</svg>
