<svg width="240" height="228" viewBox="0 0 240 228" fill="none" xmlns="http://www.w3.org/2000/svg">
<g clip-path="url(#clip0_4_51268)">
<rect width="240" height="228" fill="url(#paint0_linear_4_51268)" fill-opacity="0.25"/>
<path d="M35.075 146.025H204.925V169.675H42.6C38.4441 169.675 35.075 166.306 35.075 162.15V146.025Z" fill="#FDFEFF"/>
<path d="M35.075 146.025H204.925V169.675H42.6C38.4441 169.675 35.075 166.306 35.075 162.15V146.025Z" stroke="#26262E" stroke-width="2.15"/>
<path d="M35.075 122.375H204.925V146.025H35.075V122.375Z" fill="#FDFEFF"/>
<path d="M35.075 122.375H204.925V146.025H35.075V122.375Z" stroke="#26262E" stroke-width="2.15"/>
<path d="M35.075 98.7249H204.925V122.375H35.075V98.7249Z" fill="#FDFEFF"/>
<path d="M35.075 98.7249H204.925V122.375H35.075V98.7249Z" stroke="#26262E" stroke-width="2.15"/>
<path d="M35.075 75.075H197.4C201.556 75.075 204.925 78.4441 204.925 82.6V98.725H35.075V75.075Z" fill="#FDFEFF"/>
<path d="M196.775 90.0376L191.4 84.6626L186.025 90.0376" stroke="#26262E" stroke-width="2.15" stroke-linecap="round" stroke-linejoin="round"/>
<path d="M35.075 75.075H197.4C201.556 75.075 204.925 78.4441 204.925 82.6V98.725H35.075V75.075Z" stroke="#FF8E0A" stroke-width="2.15"/>
<path d="M210.649 185.28C213.933 186.534 215.602 190.279 214.345 193.573L207.701 210.201C207.331 211.17 206.262 211.649 205.296 211.28C204.329 210.911 203.853 209.841 204.223 208.873L210.61 192.146C211.128 190.79 210.452 189.274 209.099 188.758C207.747 188.241 206.233 188.921 205.715 190.277L205.641 190.471L204.63 193.119C204.26 194.088 203.191 194.567 202.225 194.199C201.258 193.83 200.782 192.759 201.152 191.791L203.198 186.431C203.741 185.01 203.001 183.469 201.648 182.953C200.231 182.412 198.693 183.156 198.175 184.512L197.09 187.354C196.72 188.323 195.651 188.802 194.685 188.434C193.719 188.065 193.242 186.994 193.612 186.026L195.683 180.601C196.226 179.18 195.486 177.64 194.133 177.123C192.716 176.582 191.178 177.327 190.66 178.683L189.574 181.525C189.204 182.493 188.135 182.973 187.17 182.604C186.203 182.235 185.727 181.165 186.096 180.196L194.037 159.402C194.284 158.756 194.273 158.012 193.995 157.388C193.717 156.763 193.236 156.284 192.527 156.013C191.15 155.561 189.636 156.241 189.118 157.597L177.577 187.82C177.158 188.918 176.144 189.641 174.941 189.7C173.737 189.758 172.612 189.032 172.136 187.963L169.274 181.542C168.782 180.318 167.479 179.673 166.177 179.989C165.45 180.156 164.817 180.654 164.416 181.315C164.08 182.001 164.002 182.785 164.232 183.538L167.737 193.683C168.086 194.704 167.602 195.777 166.582 196.128C166.098 196.238 165.662 196.22 165.275 196.072C164.76 195.876 164.344 195.42 164.169 194.91L160.599 184.741C160.022 182.966 160.173 181.026 161.071 179.445C161.995 177.8 163.528 176.684 165.315 176.256C168.314 175.552 171.436 177.039 172.708 179.893L174.775 184.53L184.59 158.828C184.934 157.923 185.725 155.961 186.139 155.35C187.675 152.68 190.96 151.419 193.923 152.551C195.533 153.165 196.793 154.313 197.508 155.918C198.064 157.166 198.2 158.549 197.925 159.85C197.872 160.144 197.041 162.357 196.633 163.426L192.91 173.179C193.806 173.151 194.717 173.277 195.619 173.621C198.002 174.531 199.52 176.739 199.722 179.11C200.821 178.937 202.039 179.033 203.134 179.451C205.517 180.361 207.035 182.568 207.237 184.939C208.336 184.767 209.554 184.862 210.649 185.28Z" fill="#26262E"/>
</g>
<defs>
<linearGradient id="paint0_linear_4_51268" x1="120" y1="0" x2="120" y2="228" gradientUnits="userSpaceOnUse">
<stop offset="0.25" stop-color="#FDFEFF" stop-opacity="0"/>
<stop offset="0.75" stop-color="#FF8E0A" stop-opacity="0.534586"/>
<stop offset="1" stop-color="#FF8E0A" stop-opacity="0.9"/>
</linearGradient>
<clipPath id="clip0_4_51268">
<rect width="240" height="228" fill="white"/>
</clipPath>
</defs>
</svg>
