<svg width="240" height="228" viewBox="0 0 240 228" fill="none" xmlns="http://www.w3.org/2000/svg">
<rect width="240" height="228" fill="url(#paint0_linear_4_51308)" fill-opacity="0.25"/>
<path d="M35.075 146.025H204.925V169.675H42.6C38.4441 169.675 35.075 166.306 35.075 162.15V146.025Z" fill="#FDFEFF"/>
<path d="M35.075 146.025H204.925V169.675H42.6C38.4441 169.675 35.075 166.306 35.075 162.15V146.025Z" stroke="#26262E" stroke-width="2.15"/>
<path d="M35.075 122.375H204.925V146.025H35.075V122.375Z" fill="#FDFEFF"/>
<path d="M35.075 122.375H204.925V146.025H35.075V122.375Z" stroke="#26262E" stroke-width="2.15"/>
<path d="M35.075 98.7249H204.925V122.375H35.075V98.7249Z" fill="#FDFEFF"/>
<path d="M35.075 98.7249H204.925V122.375H35.075V98.7249Z" stroke="#26262E" stroke-width="2.15"/>
<path d="M35.075 75.075H197.4C201.556 75.075 204.925 78.4441 204.925 82.6V98.725H35.075V75.075Z" fill="#FDFEFF"/>
<path d="M196.775 90.0376L191.4 84.6626L186.025 90.0376" stroke="#26262E" stroke-width="2.15" stroke-linecap="round" stroke-linejoin="round"/>
<path d="M35.075 75.075H197.4C201.556 75.075 204.925 78.4441 204.925 82.6V98.725H35.075V75.075Z" stroke="#FF8E0A" stroke-width="2.15"/>
<path d="M170.057 146.277C173.341 145.023 177.082 146.702 178.339 149.996L184.47 166.82C184.84 167.789 184.362 168.859 183.396 169.228C182.43 169.597 181.361 169.117 180.991 168.148L174.604 151.422C174.086 150.066 172.572 149.386 171.22 149.902C169.867 150.419 169.191 151.935 169.709 153.291L169.783 153.485L170.795 156.133C171.165 157.102 170.687 158.172 169.721 158.541C168.755 158.91 167.686 158.429 167.316 157.461L165.27 152.101C164.727 150.68 163.149 150.025 161.796 150.541C160.379 151.082 159.728 152.663 160.246 154.019L161.331 156.861C161.701 157.83 161.224 158.9 160.258 159.269C159.292 159.638 158.223 159.157 157.853 158.189L155.782 152.764C155.239 151.344 153.661 150.688 152.308 151.205C150.891 151.746 150.24 153.326 150.758 154.683L151.843 157.524C152.213 158.493 151.736 159.563 150.77 159.932C149.804 160.301 148.735 159.821 148.365 158.852L140.425 138.058C140.178 137.412 139.674 136.865 139.051 136.584C138.427 136.304 137.749 136.268 137.04 136.538C135.712 137.119 135.037 138.635 135.555 139.991L147.096 170.214C147.515 171.312 147.241 172.527 146.383 173.372C145.525 174.218 144.203 174.427 143.134 173.947L136.722 171.068C135.539 170.484 134.137 170.871 133.378 171.975C132.946 172.584 132.807 173.377 132.949 174.137C133.156 174.872 133.62 175.508 134.293 175.917L143.668 181.143C144.608 181.672 144.963 182.794 144.437 183.735C144.149 184.141 143.812 184.418 143.426 184.565C142.91 184.762 142.296 184.7 141.826 184.436L132.387 179.235C130.774 178.297 129.593 176.75 129.209 174.972C128.801 173.131 129.2 171.276 130.247 169.767C132.013 167.242 135.332 166.271 138.182 167.55L142.814 169.63L132.999 143.927C132.653 143.023 131.935 141.033 131.836 140.302C131.202 137.288 132.81 134.158 135.773 133.026C137.383 132.411 139.087 132.427 140.69 133.147C141.937 133.707 142.96 134.648 143.622 135.801C143.778 136.055 144.634 138.258 145.042 139.328L148.767 149.08C149.417 148.461 150.18 147.948 151.082 147.604C153.464 146.694 156.068 147.328 157.798 148.961C158.503 148.1 159.474 147.359 160.569 146.94C162.952 146.031 165.556 146.664 167.286 148.297C167.99 147.436 168.962 146.695 170.057 146.277Z" fill="#26262E"/>
<defs>
<linearGradient id="paint0_linear_4_51308" x1="120" y1="0" x2="120" y2="228" gradientUnits="userSpaceOnUse">
<stop offset="0.25" stop-color="#FDFEFF" stop-opacity="0"/>
<stop offset="0.75" stop-color="#FF8E0A" stop-opacity="0.534586"/>
<stop offset="1" stop-color="#FF8E0A" stop-opacity="0.9"/>
</linearGradient>
</defs>
</svg>
