<svg width="240" height="228" viewBox="0 0 240 228" fill="none" xmlns="http://www.w3.org/2000/svg">
<rect width="240" height="228" fill="url(#paint0_linear_4_51234)" fill-opacity="0.25"/>
<g filter="url(#filter0_dd_4_51234)">
<path d="M18 40.5391L70.3154 20.5617C82.6982 15.8332 96.5696 22.0382 101.298 34.4209L121.275 86.7364L68.9599 106.714C56.5772 111.442 42.7058 105.237 37.9773 92.8545L18 40.5391Z" fill="#FDFEFF"/>
</g>
<path d="M49.2034 52.1731C47.9645 52.6462 46.9697 53.606 46.4378 54.8416C45.9059 56.0771 45.8804 57.487 46.367 58.7613L55.5403 82.7837C56.0268 84.0579 56.9856 85.092 58.2057 85.6585C59.4257 86.225 60.8071 86.2775 62.0459 85.8045L90.0721 75.1023C91.3109 74.6293 92.3057 73.6694 92.8376 72.4339C93.3695 71.1983 93.395 69.7884 92.9084 68.5141L83.7352 44.4917C83.2486 43.2175 82.2898 42.1834 81.0698 41.6169C79.8497 41.0504 78.4683 40.9979 77.2295 41.471L49.2034 52.1731ZM78.1468 43.8732C78.7662 43.6367 79.4569 43.6629 80.067 43.9462C80.677 44.2294 81.1564 44.7465 81.3997 45.3836L87.3623 60.9982L76.755 59.6895C76.4929 59.6603 76.23 59.7158 76.0035 59.8483C75.7769 59.9807 75.5983 60.1833 75.4928 60.4275L70.2313 72.6485L62.3933 70.7641C62.1104 70.6961 61.8149 70.7298 61.5571 70.8593C61.2993 70.9889 61.095 71.2064 60.9788 71.4749L56.9584 79.4896L48.7025 57.8694C48.4592 57.2323 48.472 56.5273 48.7379 55.9096C49.0039 55.2918 49.5013 54.8119 50.1207 54.5753L78.1468 43.8732Z" fill="#03A400"/>
<path d="M27.5862 157.801L41.8221 145.072L44.3563 147.907L30.1207 160.635L35.8712 160.964C36.9434 161.025 37.7267 161.901 37.6682 162.974C37.6415 163.461 37.4202 163.937 37.0602 164.259C36.7003 164.581 36.2025 164.748 35.715 164.72L25.3835 164.128C24.3113 164.067 23.528 163.191 23.5865 162.119L24.0986 151.832C24.1571 150.759 25.0307 149.978 26.1029 150.039C27.1751 150.101 27.9584 150.977 27.8999 152.049L27.5862 157.801Z" fill="#03A400"/>
<path d="M67.1215 127.529L52.8856 140.257L50.3514 137.423L64.587 124.695L58.8365 124.366C57.7643 124.304 56.981 123.428 57.0395 122.356C57.0662 121.868 57.2875 121.392 57.6475 121.07C58.0074 120.749 58.5052 120.582 58.9927 120.61L69.3242 121.201C70.3964 121.263 71.1797 122.139 71.1212 123.211L70.6091 133.498C70.5506 134.57 69.677 135.352 68.6048 135.29C67.5326 135.229 66.7493 134.353 66.8078 133.28L67.1215 127.529Z" fill="#26262E"/>
<path d="M78.8226 137.769C81.4435 135.425 85.5371 135.66 87.8869 138.288L99.6156 151.818C100.307 152.591 100.243 153.761 99.472 154.45C98.7009 155.14 97.5311 155.073 96.8401 154.3L84.9065 140.953C83.9388 139.87 82.282 139.775 81.2025 140.741C80.1231 141.706 80.0327 143.363 81.0004 144.445L81.1386 144.6L83.0278 146.713C83.7192 147.486 83.655 148.656 82.8843 149.345C82.1131 150.034 80.9434 149.967 80.2524 149.194L76.4281 144.917C75.4144 143.783 73.7063 143.734 72.6268 144.699C71.4961 145.71 71.4517 147.419 72.4195 148.501L74.4469 150.769C75.1382 151.542 75.074 152.712 74.3033 153.401C73.5322 154.09 72.3624 154.023 71.6714 153.25L67.8012 148.921C66.7875 147.788 65.0793 147.739 63.9999 148.704C62.8692 149.715 62.8247 151.423 63.7925 152.506L65.8199 154.773C66.5112 155.546 66.4471 156.716 65.6763 157.405C64.9052 158.095 63.7355 158.028 63.0445 157.255L48.2084 140.661C47.7476 140.145 47.0816 139.814 46.399 139.775C45.7163 139.736 45.0698 139.943 44.5044 140.449C43.471 141.465 43.3806 143.122 44.3483 144.205L65.9118 168.322C66.6951 169.198 66.8723 170.43 66.3726 171.526C65.8729 172.623 64.7119 173.289 63.5425 173.222L56.5247 172.821C55.2115 172.697 54.0401 173.558 53.7246 174.86C53.5385 175.583 53.6911 176.374 54.0951 177.033C54.5503 177.646 55.2113 178.075 55.9858 178.217L66.6083 179.754C67.6752 179.913 68.4068 180.835 68.2511 181.902C68.1269 182.384 67.9109 182.762 67.6026 183.038C67.1913 183.406 66.5957 183.567 66.0622 183.488L55.3885 181.996C53.5468 181.695 51.8918 180.671 50.8994 179.148C49.8613 177.573 49.5722 175.698 50.0118 173.914C50.7614 170.926 53.5152 168.834 56.6346 169.013L61.7031 169.303L43.365 148.793C42.719 148.072 41.3386 146.469 40.9846 145.821C39.3172 143.232 39.7033 139.734 42.0676 137.62C43.3525 136.471 44.9497 135.878 46.7038 135.979C48.0684 136.057 49.36 136.571 50.3897 137.412C50.6264 137.594 52.2118 139.347 52.975 140.2L59.9336 147.981C60.3198 147.172 60.8498 146.42 61.5693 145.777C63.4708 144.077 66.1292 143.74 68.3283 144.648C68.6791 143.593 69.3223 142.554 70.196 141.773C72.0974 140.073 74.7559 139.736 76.9549 140.644C77.3058 139.589 77.949 138.55 78.8226 137.769Z" fill="#26262E"/>
<defs>
<filter id="filter0_dd_4_51234" x="12" y="12.9761" width="115.275" height="101.323" filterUnits="userSpaceOnUse" color-interpolation-filters="sRGB">
<feFlood flood-opacity="0" result="BackgroundImageFix"/>
<feColorMatrix in="SourceAlpha" type="matrix" values="0 0 0 0 0 0 0 0 0 0 0 0 0 0 0 0 0 0 127 0" result="hardAlpha"/>
<feOffset dx="2" dy="2"/>
<feGaussianBlur stdDeviation="2"/>
<feColorMatrix type="matrix" values="0 0 0 0 0.0313726 0 0 0 0 0.0313726 0 0 0 0 0.0666667 0 0 0 0.08 0"/>
<feBlend mode="multiply" in2="BackgroundImageFix" result="effect1_dropShadow_4_51234"/>
<feColorMatrix in="SourceAlpha" type="matrix" values="0 0 0 0 0 0 0 0 0 0 0 0 0 0 0 0 0 0 127 0" result="hardAlpha"/>
<feOffset/>
<feGaussianBlur stdDeviation="3"/>
<feColorMatrix type="matrix" values="0 0 0 0 0.0313726 0 0 0 0 0.0313726 0 0 0 0 0.0666667 0 0 0 0.04 0"/>
<feBlend mode="multiply" in2="effect1_dropShadow_4_51234" result="effect2_dropShadow_4_51234"/>
<feBlend mode="normal" in="SourceGraphic" in2="effect2_dropShadow_4_51234" result="shape"/>
</filter>
<linearGradient id="paint0_linear_4_51234" x1="120" y1="0" x2="120" y2="228" gradientUnits="userSpaceOnUse">
<stop offset="0.25" stop-color="#FDFEFF" stop-opacity="0"/>
<stop offset="0.75" stop-color="#FF8E0A" stop-opacity="0.534586"/>
<stop offset="1" stop-color="#FF8E0A" stop-opacity="0.9"/>
</linearGradient>
</defs>
</svg>
