<svg width="240" height="228" viewBox="0 0 240 228" fill="none" xmlns="http://www.w3.org/2000/svg">
<rect width="240" height="228" fill="url(#paint0_linear_4_51226)" fill-opacity="0.25"/>
<g filter="url(#filter0_dd_4_51226)">
<path d="M148.539 12L200.855 31.9773C213.237 36.7058 219.442 50.5772 214.714 62.9599L194.736 115.275L142.421 95.2981C130.038 90.5696 123.833 76.6982 128.562 64.3154L148.539 12Z" fill="#FDFEFF"/>
</g>
<path d="M164.046 41.4709C162.807 40.9979 161.426 41.0504 160.206 41.6169C158.986 42.1834 158.027 43.2175 157.54 44.4917L148.367 68.5141C147.88 69.7884 147.906 71.1983 148.438 72.4338C148.97 73.6694 149.965 74.6292 151.203 75.1023L179.229 85.8044C180.468 86.2775 181.85 86.225 183.07 85.6585C184.29 85.092 185.249 84.0579 185.735 82.7837L194.908 58.7613C195.395 57.487 195.37 56.0771 194.838 54.8415C194.306 53.606 193.311 52.6461 192.072 52.1731L164.046 41.4709ZM191.155 54.5753C191.774 54.8119 192.272 55.2918 192.538 55.9096C192.803 56.5273 192.816 57.2323 192.573 57.8694L186.61 73.484L179.575 65.4383C179.399 65.2418 179.166 65.108 178.909 65.0557C178.652 65.0035 178.384 65.0354 178.142 65.1471L166.074 70.7507L161.487 64.1216C161.322 63.8824 161.079 63.7105 160.8 63.6353C160.522 63.56 160.225 63.586 159.959 63.7087L151.62 67.0037L159.876 45.3836C160.119 44.7465 160.598 44.2294 161.208 43.9462C161.818 43.6629 162.509 43.6367 163.129 43.8732L191.155 54.5753Z" fill="#EA0F0F"/>
<path d="M149.518 127.837L167.358 134.649L166.002 138.201L148.162 131.389L150.507 136.65C150.944 137.631 150.525 138.729 149.545 139.169C149.1 139.368 148.575 139.39 148.124 139.218C147.673 139.046 147.296 138.68 147.098 138.234L142.885 128.782C142.448 127.801 142.867 126.703 143.847 126.263L153.223 122C154.202 121.56 155.297 121.978 155.734 122.959C156.172 123.94 155.752 125.038 154.773 125.478L149.518 127.837Z" fill="#26262E"/>
<path d="M194.551 149.085L176.711 142.272L178.067 138.72L195.907 145.533L193.562 140.271C193.125 139.291 193.544 138.193 194.524 137.753C194.969 137.553 195.494 137.531 195.945 137.704C196.396 137.876 196.773 138.242 196.971 138.688L201.184 148.14C201.621 149.121 201.202 150.218 200.222 150.658L190.846 154.921C189.867 155.361 188.772 154.943 188.335 153.962C187.897 152.981 188.317 151.883 189.296 151.444L194.551 149.085Z" fill="#EA0F0F"/>
<path d="M190.818 164.179C194.103 165.433 195.772 169.178 194.514 172.472L187.871 189.1C187.501 190.069 186.432 190.548 185.466 190.179C184.499 189.81 184.023 188.74 184.392 187.771L190.78 171.045C191.297 169.689 190.622 168.173 189.269 167.657C187.917 167.14 186.403 167.82 185.885 169.176L185.811 169.37L184.799 172.018C184.429 172.987 183.36 173.466 182.395 173.097C181.428 172.728 180.952 171.658 181.321 170.69L183.368 165.33C183.911 163.909 183.171 162.368 181.818 161.852C180.401 161.311 178.863 162.055 178.345 163.411L177.26 166.253C176.89 167.222 175.821 167.701 174.855 167.333C173.888 166.964 173.412 165.893 173.782 164.925L175.853 159.5C176.396 158.079 175.656 156.539 174.303 156.022C172.886 155.481 171.347 156.225 170.829 157.582L169.744 160.423C169.374 161.392 168.305 161.872 167.339 161.503C166.373 161.134 165.896 160.064 166.266 159.095L174.207 138.301C174.454 137.655 174.443 136.911 174.165 136.287C173.886 135.662 173.405 135.183 172.697 134.912C171.32 134.46 169.806 135.14 169.288 136.496L157.747 166.719C157.327 167.817 156.314 168.54 155.111 168.598C153.907 168.657 152.782 167.931 152.305 166.861L149.444 160.441C148.952 159.217 147.649 158.572 146.347 158.888C145.62 159.054 144.987 159.553 144.586 160.214C144.25 160.9 144.172 161.684 144.401 162.437L147.907 172.582C148.256 173.602 147.772 174.676 146.752 175.026C146.267 175.137 145.832 175.119 145.445 174.971C144.93 174.774 144.513 174.319 144.339 173.809L140.769 163.64C140.192 161.865 140.343 159.925 141.241 158.344C142.165 156.699 143.698 155.583 145.485 155.155C148.484 154.451 151.606 155.938 152.878 158.792L154.945 163.429L164.759 137.727C165.104 136.822 165.895 134.86 166.309 134.249C167.845 131.579 171.13 130.318 174.093 131.449C175.703 132.064 176.963 133.212 177.678 134.816C178.234 136.065 178.37 137.448 178.095 138.749C178.041 139.043 177.211 141.256 176.803 142.325L173.08 152.078C173.976 152.05 174.887 152.176 175.789 152.52C178.172 153.43 179.69 155.638 179.892 158.009C180.991 157.836 182.209 157.931 183.304 158.35C185.686 159.259 187.205 161.467 187.406 163.838C188.505 163.666 189.724 163.761 190.818 164.179Z" fill="#26262E"/>
<defs>
<filter id="filter0_dd_4_51226" x="120.976" y="6" width="101.323" height="115.275" filterUnits="userSpaceOnUse" color-interpolation-filters="sRGB">
<feFlood flood-opacity="0" result="BackgroundImageFix"/>
<feColorMatrix in="SourceAlpha" type="matrix" values="0 0 0 0 0 0 0 0 0 0 0 0 0 0 0 0 0 0 127 0" result="hardAlpha"/>
<feOffset dx="2" dy="2"/>
<feGaussianBlur stdDeviation="2"/>
<feColorMatrix type="matrix" values="0 0 0 0 0.0313726 0 0 0 0 0.0313726 0 0 0 0 0.0666667 0 0 0 0.08 0"/>
<feBlend mode="multiply" in2="BackgroundImageFix" result="effect1_dropShadow_4_51226"/>
<feColorMatrix in="SourceAlpha" type="matrix" values="0 0 0 0 0 0 0 0 0 0 0 0 0 0 0 0 0 0 127 0" result="hardAlpha"/>
<feOffset/>
<feGaussianBlur stdDeviation="3"/>
<feColorMatrix type="matrix" values="0 0 0 0 0.0313726 0 0 0 0 0.0313726 0 0 0 0 0.0666667 0 0 0 0.04 0"/>
<feBlend mode="multiply" in2="effect1_dropShadow_4_51226" result="effect2_dropShadow_4_51226"/>
<feBlend mode="normal" in="SourceGraphic" in2="effect2_dropShadow_4_51226" result="shape"/>
</filter>
<linearGradient id="paint0_linear_4_51226" x1="120" y1="0" x2="120" y2="228" gradientUnits="userSpaceOnUse">
<stop offset="0.25" stop-color="#FDFEFF" stop-opacity="0"/>
<stop offset="0.75" stop-color="#FF8E0A" stop-opacity="0.534586"/>
<stop offset="1" stop-color="#FF8E0A" stop-opacity="0.9"/>
</linearGradient>
</defs>
</svg>
