<svg width="240" height="228" viewBox="0 0 240 228" fill="none" xmlns="http://www.w3.org/2000/svg">
<rect width="240" height="228" fill="url(#paint0_linear_4_51210)" fill-opacity="0.25"/>
<g filter="url(#filter0_dd_4_51210)">
<path d="M80 74H136C149.255 74 160 84.7452 160 98V154H104C90.7452 154 80 143.255 80 130V74Z" fill="#FDFEFF"/>
</g>
<path d="M105 96C103.674 96 102.402 96.5418 101.464 97.5063C100.527 98.4708 100 99.7789 100 101.143V126.857C100 128.221 100.527 129.529 101.464 130.494C102.402 131.458 103.674 132 105 132H135C136.326 132 137.598 131.458 138.536 130.494C139.473 129.529 140 128.221 140 126.857V101.143C140 99.7789 139.473 98.4708 138.536 97.5063C137.598 96.5418 136.326 96 135 96H105ZM135 98.5714C135.663 98.5714 136.299 98.8423 136.768 99.3246C137.237 99.8068 137.5 100.461 137.5 101.143V117.857L128.057 112.851C127.823 112.73 127.558 112.688 127.299 112.731C127.04 112.774 126.801 112.899 126.615 113.09L117.34 122.63L110.69 118.073C110.45 117.909 110.162 117.835 109.875 117.864C109.588 117.893 109.319 118.023 109.115 118.233L102.5 124.286V101.143C102.5 100.461 102.763 99.8068 103.232 99.3246C103.701 98.8423 104.337 98.5714 105 98.5714H135Z" fill="#FF8E0A"/>
<path d="M96.9437 126.717L115.723 123.253L116.413 126.992L97.6337 130.456L102.373 133.729C103.257 134.339 103.47 135.495 102.862 136.38C102.586 136.783 102.149 137.074 101.674 137.161C101.2 137.249 100.688 137.133 100.286 136.855L91.7705 130.975C90.8868 130.364 90.6736 129.209 91.2815 128.323L97.0708 119.805C97.6786 118.919 98.8311 118.707 99.7148 119.317C100.599 119.927 100.812 121.083 100.204 121.968L96.9437 126.717Z" fill="#26262E"/>
<path d="M146.456 121.433L127.677 124.897L126.987 121.158L145.766 117.694L141.027 114.421C140.143 113.811 139.93 112.656 140.538 111.77C140.814 111.368 141.251 111.076 141.726 110.989C142.201 110.901 142.712 111.018 143.114 111.295L151.63 117.175C152.513 117.786 152.726 118.941 152.119 119.827L146.329 128.345C145.721 129.231 144.569 129.443 143.685 128.833C142.802 128.223 142.588 127.067 143.196 126.182L146.456 121.433Z" fill="#26262E"/>
<path d="M151.122 136.266C154.579 135.628 157.953 137.958 158.593 141.425L161.57 159.082C161.758 160.102 161.094 161.068 160.078 161.255C159.06 161.443 158.096 160.777 157.908 159.757L154.661 142.15C154.398 140.722 153.032 139.779 151.608 140.042C150.184 140.305 149.245 141.673 149.508 143.101L149.546 143.304L150.06 146.092C150.248 147.112 149.585 148.078 148.568 148.265C147.551 148.453 146.587 147.787 146.399 146.767L145.358 141.125C145.082 139.629 143.649 138.698 142.225 138.961C140.733 139.236 139.806 140.672 140.07 142.1L140.622 145.091C140.81 146.111 140.146 147.077 139.129 147.264C138.112 147.452 137.148 146.786 136.96 145.767L135.907 140.056C135.631 138.561 134.198 137.63 132.774 137.893C131.282 138.168 130.356 139.604 130.619 141.032L131.171 144.023C131.359 145.043 130.695 146.009 129.679 146.196C128.661 146.384 127.697 145.718 127.509 144.698L123.473 122.808C123.347 122.128 122.951 121.499 122.388 121.11C121.826 120.722 121.165 120.562 120.42 120.7C119.008 121.03 118.069 122.399 118.332 123.826L124.2 155.641C124.413 156.797 123.924 157.942 122.926 158.618C121.929 159.294 120.591 159.259 119.627 158.594L113.843 154.599C112.786 153.81 111.337 153.937 110.391 154.885C109.856 155.405 109.574 156.16 109.577 156.933C109.646 157.693 109.988 158.403 110.575 158.928L118.847 165.767C119.676 166.458 119.821 167.626 119.133 168.456C118.776 168.803 118.395 169.014 117.988 169.089C117.445 169.189 116.853 169.017 116.438 168.671L108.099 161.844C106.683 160.629 105.802 158.894 105.747 157.076C105.68 155.191 106.409 153.44 107.712 152.145C109.907 149.983 113.347 149.629 115.918 151.405L120.095 154.29L115.105 127.233C114.929 126.282 114.584 124.194 114.619 123.457C114.542 120.378 116.691 117.592 119.81 117.017C121.505 116.704 123.178 117.028 124.624 118.027C125.748 118.803 126.584 119.914 127.026 121.169C127.133 121.447 127.575 123.769 127.783 124.895L129.677 135.16C130.428 134.67 131.272 134.304 132.221 134.129C134.729 133.666 137.175 134.762 138.58 136.681C139.429 135.962 140.519 135.41 141.671 135.197C144.18 134.735 146.625 135.83 148.031 137.75C148.88 137.031 149.969 136.478 151.122 136.266Z" fill="#26262E"/>
<defs>
<filter id="filter0_dd_4_51210" x="74" y="68" width="92" height="92" filterUnits="userSpaceOnUse" color-interpolation-filters="sRGB">
<feFlood flood-opacity="0" result="BackgroundImageFix"/>
<feColorMatrix in="SourceAlpha" type="matrix" values="0 0 0 0 0 0 0 0 0 0 0 0 0 0 0 0 0 0 127 0" result="hardAlpha"/>
<feOffset dx="2" dy="2"/>
<feGaussianBlur stdDeviation="2"/>
<feColorMatrix type="matrix" values="0 0 0 0 0.0313726 0 0 0 0 0.0313726 0 0 0 0 0.0666667 0 0 0 0.08 0"/>
<feBlend mode="multiply" in2="BackgroundImageFix" result="effect1_dropShadow_4_51210"/>
<feColorMatrix in="SourceAlpha" type="matrix" values="0 0 0 0 0 0 0 0 0 0 0 0 0 0 0 0 0 0 127 0" result="hardAlpha"/>
<feOffset/>
<feGaussianBlur stdDeviation="3"/>
<feColorMatrix type="matrix" values="0 0 0 0 0.0313726 0 0 0 0 0.0313726 0 0 0 0 0.0666667 0 0 0 0.04 0"/>
<feBlend mode="multiply" in2="effect1_dropShadow_4_51210" result="effect2_dropShadow_4_51210"/>
<feBlend mode="normal" in="SourceGraphic" in2="effect2_dropShadow_4_51210" result="shape"/>
</filter>
<linearGradient id="paint0_linear_4_51210" x1="120" y1="0" x2="120" y2="228" gradientUnits="userSpaceOnUse">
<stop offset="0.25" stop-color="#FDFEFF" stop-opacity="0"/>
<stop offset="0.75" stop-color="#FF8E0A" stop-opacity="0.534586"/>
<stop offset="1" stop-color="#FF8E0A" stop-opacity="0.9"/>
</linearGradient>
</defs>
</svg>
