<svg width="20" height="24" viewBox="0 0 20 24" fill="none" xmlns="http://www.w3.org/2000/svg">
<path id="apple-logo" d="M14.5741 0.51151C14.5252 0.456885 12.7643 0.533072 11.2319 2.19625C9.69953 3.85799 9.93528 5.76411 9.96978 5.81298C10.0043 5.86186 12.1548 5.93804 13.5276 4.00462C14.9004 2.07119 14.6229 0.567572 14.5741 0.51151V0.51151ZM19.3379 17.3776C19.2689 17.2396 15.9958 15.6037 16.3005 12.4585C16.6052 9.31184 18.7083 8.44934 18.7414 8.35591C18.7744 8.26247 17.8832 7.22029 16.9387 6.69273C16.2453 6.32078 15.4779 6.10768 14.6919 6.06886C14.5367 6.06454 13.9976 5.93229 12.8893 6.23561C12.1591 6.43542 10.5132 7.08229 10.0603 7.10816C9.60609 7.13404 8.25485 6.35779 6.80155 6.15223C5.87149 5.97254 4.88537 6.34054 4.17956 6.62373C3.47519 6.90548 2.13545 7.7076 1.1982 9.8394C0.260955 11.9698 0.75114 15.345 1.10189 16.3944C1.45264 17.4423 2.00032 19.1601 2.93182 20.4136C3.75981 21.8281 4.85806 22.8099 5.31662 23.1434C5.77518 23.4769 7.06892 23.6983 7.96592 23.2397C8.68754 22.797 9.98991 22.5425 10.5045 22.5612C11.0177 22.5799 12.0297 22.7826 13.0661 23.336C13.8869 23.6192 14.6632 23.5013 15.4409 23.1851C16.2186 22.8674 17.3441 21.6628 18.658 19.2205C19.1568 18.0849 19.3839 17.471 19.3379 17.3776V17.3776Z" fill="#26262E"/>
</svg>
