<svg width="24" height="24" viewBox="0 0 24 24" fill="none" xmlns="http://www.w3.org/2000/svg">
<g id="display=big">
<g id="Vector">
<path fill-rule="evenodd" clip-rule="evenodd" d="M3 4C3 3.44772 3.44772 3 4 3L14 3C14.5523 3 15 3.44772 15 4C15 4.55229 14.5523 5 14 5L4 5C3.44772 5 3 4.55228 3 4Z" fill="#26262E"/>
<path fill-rule="evenodd" clip-rule="evenodd" d="M18 10.75H6C4.75736 10.75 3.75 11.7574 3.75 13V17C3.75 18.2426 4.75736 19.25 6 19.25H18C19.2426 19.25 20.25 18.2426 20.25 17V13C20.25 11.7574 19.2426 10.75 18 10.75ZM6 9C3.79086 9 2 10.7909 2 13V17C2 19.2091 3.79086 21 6 21H18C20.2091 21 22 19.2091 22 17V13C22 10.7909 20.2091 9 18 9H6Z" fill="#26262E"/>
</g>
</g>
</svg>
