<svg width="24" height="24" viewBox="0 0 24 24" fill="none" xmlns="http://www.w3.org/2000/svg">
<g id="display=small">
<g id="Vector">
<path fill-rule="evenodd" clip-rule="evenodd" d="M8 9C8 8.44772 8.44772 8 9 8L21 8C21.5523 8 22 8.44772 22 9C22 9.55229 21.5523 10 21 10L9 10C8.44772 10 8 9.55228 8 9Z" fill="#26262E"/>
<path fill-rule="evenodd" clip-rule="evenodd" d="M8 15C8 14.4477 8.44772 14 9 14L21 14C21.5523 14 22 14.4477 22 15C22 15.5523 21.5523 16 21 16L9 16C8.44772 16 8 15.5523 8 15Z" fill="#26262E"/>
<path d="M6 9C6 10.1046 5.10457 11 4 11C2.89543 11 2 10.1046 2 9C2 7.89543 2.89543 7 4 7C5.10457 7 6 7.89543 6 9Z" fill="#26262E"/>
<path d="M6 15C6 16.1046 5.10457 17 4 17C2.89543 17 2 16.1046 2 15C2 13.8954 2.89543 13 4 13C5.10457 13 6 13.8954 6 15Z" fill="#26262E"/>
</g>
</g>
</svg>
