<svg width="24" height="24" viewBox="0 0 24 24" fill="none" xmlns="http://www.w3.org/2000/svg">
<g id="function=back, state=inactive" opacity="0.4">
<path id="Vector" d="M7.512 12.96L21.918 22.858C23.062 23.624 24 23.062 24 21.608L24 2.39C24 0.939999 23.062 0.377999 21.918 1.14L7.512 11.042C7.512 11.042 6.954 11.44 6.954 11.998C6.954 12.558 7.512 12.96 7.512 12.96ZM4 24L2 24C0.894 24 8.39257e-09 23.904 1.04907e-07 22.8L1.99324e-06 1.2C2.08975e-06 0.0959987 0.894002 -2.01999e-06 2 -1.9233e-06L4 -1.74846e-06C5.106 -1.65177e-06 6 0.0959992 6 1.2L6 22.8C6 23.904 5.106 24 4 24Z" fill="#26262E"/>
</g>
</svg>
