<svg width="24" height="24" viewBox="0 0 24 24" fill="none" xmlns="http://www.w3.org/2000/svg">
<g id="function=next, state=Default">
<path id="Vector" d="M16.488 11.04L2.082 1.142C0.938 0.376 0 0.938 0 2.392V21.61C0 23.06 0.938 23.622 2.082 22.86L16.488 12.958C16.488 12.958 17.046 12.56 17.046 12.002C17.046 11.442 16.488 11.04 16.488 11.04ZM20 0H22C23.106 0 24 0.0959998 24 1.2V22.8C24 23.904 23.106 24 22 24H20C18.894 24 18 23.904 18 22.8V1.2C18 0.0959998 18.894 0 20 0V0Z" fill="#26262E"/>
</g>
</svg>
