<svg width="22" height="22" viewBox="0 0 22 22" fill="none" xmlns="http://www.w3.org/2000/svg">
<path id="google-logo" d="M21.0867 9.03098C21.2179 9.7339 21.2894 10.4688 21.2894 11.2357C21.2894 17.2345 17.2745 21.5 11.2107 21.5C9.83169 21.5004 8.46613 21.2291 7.19202 20.7016C5.91791 20.1741 4.76023 19.4007 3.78513 18.4256C2.81004 17.4505 2.03663 16.2928 1.5091 15.0187C0.981577 13.7446 0.710273 12.379 0.710694 11C0.710273 9.621 0.981577 8.25544 1.5091 6.98133C2.03663 5.70722 2.81004 4.54954 3.78513 3.57444C4.76023 2.59934 5.91791 1.82593 7.19202 1.29841C8.46613 0.770884 9.83169 0.49958 11.2107 0.5C14.0458 0.5 16.4148 1.54317 18.2324 3.237L15.2725 6.19692V6.18946C14.1706 5.13988 12.7723 4.60123 11.2107 4.60123C7.74625 4.60123 4.93032 7.52809 4.93032 10.9936C4.93032 14.458 7.74625 17.3913 11.2107 17.3913C14.3541 17.3913 16.4938 15.594 16.9332 13.1258H11.2107V9.03098H21.0878H21.0867Z" fill="#26262E"/>
</svg>
