<svg width="26" height="26" viewBox="0 0 26 26" fill="none" xmlns="http://www.w3.org/2000/svg">
<g id="state=active">
<path id="Vector" d="M22.491 8.03177C22.7335 8.03163 22.9725 8.09033 23.1874 8.20281C23.4022 8.3153 23.5866 8.47822 23.7247 8.67762L23.8047 8.80958C24.5326 9.99277 24.9398 11.3451 24.9861 12.7335C25.0325 14.1219 24.7164 15.4984 24.0691 16.7276C23.4217 17.9567 22.4654 18.996 21.2943 19.7431C20.1232 20.4903 18.7777 20.9196 17.3902 20.9886L16.9923 20.9986L12.1035 20.9966L13.5471 22.4403C13.8016 22.6943 13.9564 23.0314 13.9832 23.3899C14.01 23.7485 13.907 24.1048 13.6931 24.3938L13.5471 24.5618C13.293 24.8155 12.9562 24.9695 12.5981 24.9959C12.24 25.0224 11.8843 24.9194 11.5956 24.7058L11.4277 24.5618L7.42462 20.5588C7.17065 20.3048 7.01623 19.9682 6.98944 19.6101C6.96266 19.2519 7.06528 18.8961 7.27866 18.6072L7.42462 18.4373L11.4277 14.4362C11.6956 14.1704 12.0539 14.0153 12.4311 14.0021C12.8083 13.9888 13.1767 14.1182 13.4627 14.3646C13.7486 14.6109 13.9312 14.956 13.9739 15.3311C14.0166 15.7061 13.9164 16.0834 13.6931 16.3878L13.5471 16.5557L12.1055 17.9974H16.9923C18.2611 17.9976 19.4825 17.5153 20.4089 16.6483C21.3353 15.7814 21.8974 14.5945 21.9811 13.3285L21.9911 13.0006C21.9911 12.0108 21.7032 11.089 21.2093 10.3132C21.0703 10.0857 20.9945 9.82534 20.9896 9.55882C20.9848 9.2923 21.051 9.0293 21.1816 8.7969C21.3121 8.5645 21.5023 8.3711 21.7324 8.23661C21.9626 8.10213 22.2244 8.03142 22.491 8.03177V8.03177ZM12.4334 1.43936C12.6873 1.18538 13.024 1.03097 13.3821 1.00418C13.7402 0.977393 14.0961 1.08002 14.3849 1.29339L14.5529 1.43936L18.5559 5.44039L18.7019 5.61035C18.8902 5.86514 18.993 6.17304 18.9956 6.48987C18.9981 6.8067 18.9002 7.11618 18.7159 7.37393L18.5559 7.56188L14.5529 11.5649L14.3849 11.7089C14.1304 11.8975 13.8226 12.0007 13.5058 12.0035C13.1889 12.0064 12.8793 11.9089 12.6214 11.7249L12.4334 11.5649L12.2875 11.397C12.0987 11.142 11.9956 10.8337 11.9931 10.5165C11.9906 10.1992 12.0887 9.88932 12.2735 9.63139L12.4334 9.44343L13.8751 7.99978H8.99425C7.72511 7.99958 6.50342 8.48213 5.57698 9.34953C4.65053 10.2169 4.0887 11.4043 4.00545 12.6707L3.99545 13.0006C3.99545 13.8424 4.2034 14.6362 4.57131 15.334L4.79126 15.7019C4.99303 16.042 5.05235 16.4479 4.9563 16.8315C4.86026 17.215 4.61663 17.5451 4.27842 17.7499C3.94022 17.9548 3.53481 18.0177 3.15041 17.9251C2.76601 17.8326 2.43373 17.5919 2.22588 17.2555C1.48367 16.0743 1.06333 14.7195 1.00661 13.3256C0.949895 11.9316 1.25876 10.5471 1.90254 9.30949C2.54633 8.07185 3.50264 7.02413 4.67653 6.27034C5.85042 5.51655 7.20105 5.08292 8.59434 5.0125L8.99425 5.0025L13.8731 5.0005L12.4334 3.56085L12.2875 3.39089C12.0741 3.10202 11.9715 2.74616 11.9982 2.38803C12.025 2.0299 12.1794 1.69327 12.4334 1.43936Z" fill="#26262E"/>
</g>
</svg>
