<svg width="24" height="24" viewBox="0 0 24 24" fill="none" xmlns="http://www.w3.org/2000/svg">
<g id="state=inactive" opacity="0.4" clip-path="url(#clip0_1236_98727)">
<path id="Vector" d="M1.33333 7.33333H6C6.98133 7.33333 7.85733 7.85467 8.468 8.668C8.90172 7.8653 9.4353 7.12072 10.056 6.452C8.98533 5.35467 7.568 4.66667 6 4.66667H1.33333C0.979711 4.66667 0.640573 4.80714 0.390524 5.05719C0.140476 5.30724 0 5.64638 0 6C0 6.35362 0.140476 6.69276 0.390524 6.94281C0.640573 7.19286 0.979711 7.33333 1.33333 7.33333V7.33333ZM11.58 11.4813C12.3147 9.272 14.588 7.33333 16.4453 7.33333H18.896L17.172 9.05734C17.0482 9.18113 16.95 9.32809 16.883 9.48983C16.816 9.65158 16.7815 9.82493 16.7815 10C16.7815 10.1751 16.816 10.3484 16.883 10.5102C16.95 10.6719 17.0482 10.8189 17.172 10.9427C17.2958 11.0665 17.4428 11.1647 17.6045 11.2317C17.7662 11.2987 17.9396 11.3331 18.1147 11.3331C18.2897 11.3331 18.4631 11.2987 18.6248 11.2317C18.7866 11.1647 18.9335 11.0665 19.0573 10.9427L24 6L19.0573 1.05734C18.9335 0.933543 18.7866 0.835345 18.6248 0.768349C18.4631 0.701353 18.2897 0.66687 18.1147 0.66687C17.9396 0.66687 17.7662 0.701353 17.6045 0.768349C17.4428 0.835345 17.2958 0.933543 17.172 1.05734C17.0482 1.18113 16.95 1.32809 16.883 1.48983C16.816 1.65158 16.7815 1.82493 16.7815 2C16.7815 2.17507 16.816 2.34843 16.883 2.51017C16.95 2.67191 17.0482 2.81888 17.172 2.94267L18.896 4.66667H16.4453C13.4133 4.66667 10.164 7.28933 9.04933 10.6387L8.42 12.52C7.56533 15.088 5.65733 16.6667 4.66667 16.6667H1.33333C0.979711 16.6667 0.640573 16.8071 0.390524 17.0572C0.140476 17.3072 0 17.6464 0 18C0 18.3536 0.140476 18.6928 0.390524 18.9428C0.640573 19.1929 0.979711 19.3333 1.33333 19.3333H4.66667C7.116 19.3333 9.81733 16.7667 10.9507 13.3613L11.58 11.4813V11.4813ZM17.172 13.0573C17.0481 13.1811 16.9498 13.328 16.8827 13.4897C16.8156 13.6515 16.7811 13.8249 16.7811 14C16.7811 14.1751 16.8156 14.3485 16.8827 14.5103C16.9498 14.672 17.0481 14.8189 17.172 14.9427L18.896 16.6667H15.7787C14.088 16.6667 12.672 15.4787 12.1907 13.856C11.8359 14.8866 11.3472 15.866 10.7373 16.7693C11.9187 18.3187 13.728 19.3333 15.7787 19.3333H18.896L17.172 21.0573C17.0482 21.1811 16.95 21.3281 16.883 21.4898C16.816 21.6516 16.7815 21.8249 16.7815 22C16.7815 22.1751 16.816 22.3484 16.883 22.5102C16.95 22.6719 17.0482 22.8189 17.172 22.9427C17.2958 23.0665 17.4428 23.1647 17.6045 23.2317C17.7662 23.2987 17.9396 23.3331 18.1147 23.3331C18.2897 23.3331 18.4631 23.2987 18.6248 23.2317C18.7866 23.1647 18.9335 23.0665 19.0573 22.9427L24 18L19.0573 13.0573C18.9336 12.9334 18.7867 12.8351 18.6249 12.768C18.4632 12.7009 18.2898 12.6664 18.1147 12.6664C17.9396 12.6664 17.7662 12.7009 17.6044 12.768C17.4427 12.8351 17.2957 12.9334 17.172 13.0573V13.0573Z" fill="#26262E"/>
</g>
<defs>
<clipPath id="clip0_1236_98727">
<rect width="24" height="24" fill="white"/>
</clipPath>
</defs>
</svg>
