<svg width="24" height="34" viewBox="0 0 24 34" fill="none" xmlns="http://www.w3.org/2000/svg">
<g id="state=infinite-loop">
<path id="Vector" d="M21.4956 7.03177C21.7382 7.03163 21.9771 7.09033 22.192 7.20281C22.4069 7.3153 22.5913 7.47822 22.7293 7.67762L22.8093 7.80958C23.5372 8.99277 23.9444 10.3451 23.9908 11.7335C24.0371 13.1219 23.7211 14.4984 23.0737 15.7276C22.4264 16.9567 21.4701 17.996 20.299 18.7431C19.1278 19.4903 17.7823 19.9196 16.3949 19.9886L15.997 19.9986L11.1081 19.9966L12.5518 21.4403C12.8063 21.6943 12.961 22.0314 12.9878 22.3899C13.0146 22.7485 12.9117 23.1048 12.6978 23.3938L12.5518 23.5618C12.2976 23.8155 11.9609 23.9695 11.6027 23.9959C11.2446 24.0224 10.8889 23.9194 10.6003 23.7058L10.4323 23.5618L6.42926 19.5588C6.17529 19.3048 6.02087 18.9682 5.99408 18.6101C5.9673 18.2519 6.06992 17.8961 6.2833 17.6072L6.42926 17.4373L10.4323 13.4362C10.7002 13.1704 11.0586 13.0153 11.4358 13.0021C11.813 12.9888 12.1813 13.1182 12.4673 13.3646C12.7533 13.6109 12.9358 13.956 12.9786 14.3311C13.0213 14.7061 12.921 15.0834 12.6978 15.3878L12.5518 15.5557L11.1101 16.9974H15.997C17.2658 16.9976 18.4872 16.5153 19.4136 15.6483C20.34 14.7814 20.902 13.5945 20.9858 12.3285L20.9958 12.0006C20.9958 11.0108 20.7078 10.089 20.2139 9.31322C20.075 9.08575 19.9991 8.82534 19.9943 8.55882C19.9894 8.2923 20.0557 8.0293 20.1862 7.7969C20.3168 7.5645 20.5069 7.3711 20.7371 7.23661C20.9672 7.10213 21.2291 7.03142 21.4956 7.03177V7.03177ZM11.4381 0.439359C11.692 0.185384 12.0286 0.0309658 12.3867 0.00417927C12.7449 -0.0226072 13.1007 0.0800174 13.3896 0.293394L13.5575 0.439359L17.5606 4.44039L17.7065 4.61035C17.8949 4.86514 17.9977 5.17304 18.0002 5.48987C18.0027 5.8067 17.9048 6.11618 17.7205 6.37393L17.5606 6.56188L13.5575 10.5649L13.3896 10.7089C13.135 10.8975 12.8272 11.0007 12.5104 11.0035C12.1936 11.0064 11.884 10.9089 11.626 10.7249L11.4381 10.5649L11.2921 10.397C11.1033 10.142 11.0002 9.8337 10.9977 9.51645C10.9952 9.1992 11.0934 8.88932 11.2781 8.63139L11.4381 8.44343L12.8797 6.99978H7.99888C6.72975 6.99958 5.50806 7.48213 4.58162 8.34953C3.65517 9.21694 3.09334 10.4043 3.01009 11.6707L3.00009 12.0006C3.00009 12.8424 3.20804 13.6362 3.57595 14.334L3.7959 14.7019C3.99767 15.042 4.05699 15.4479 3.96094 15.8315C3.8649 16.215 3.62127 16.5451 3.28306 16.7499C2.94486 16.9548 2.53945 17.0177 2.15505 16.9251C1.77065 16.8326 1.43837 16.5919 1.23051 16.2555C0.488304 15.0743 0.0679728 13.7195 0.011253 12.3256C-0.0454668 10.9316 0.263398 9.54713 0.907182 8.30949C1.55097 7.07185 2.50727 6.02413 3.68116 5.27034C4.85505 4.51655 6.20569 4.08292 7.59898 4.0125L7.99888 4.0025L12.8777 4.0005L11.4381 2.56085L11.2921 2.39089C11.0787 2.10202 10.9761 1.74616 11.0029 1.38803C11.0297 1.0299 11.1841 0.693274 11.4381 0.439359Z" fill="#26262E"/>
<circle id="Ellipse 1" cx="12" cy="31" r="3" fill="#FF8E0A"/>
</g>
</svg>
