<svg width="24" height="24" viewBox="0 0 24 24" fill="none" xmlns="http://www.w3.org/2000/svg">
<g id="state=inactive, step=default" opacity="0.4">
<path id="Vector" d="M13.0313 12.6281V20.4216C13.0313 20.6951 12.9226 20.9574 12.7292 21.1508C12.5358 21.3442 12.2735 21.4529 12 21.4529C11.7265 21.4529 11.4642 21.3442 11.2708 21.1508C11.0774 20.9574 10.9688 20.6951 10.9688 20.4216V12.6281C10.4751 12.394 10.0759 11.9989 9.83668 11.5077C9.59746 11.0165 9.53251 10.4585 9.65252 9.92555C9.77252 9.39256 10.0703 8.91627 10.497 8.57501C10.9236 8.23375 11.4537 8.04783 12 8.04783C12.5463 8.04783 13.0764 8.23375 13.503 8.57501C13.9297 8.91627 14.2275 9.39256 14.3475 9.92555C14.4675 10.4585 14.4025 11.0165 14.1633 11.5077C13.9241 11.9989 13.5249 12.394 13.0313 12.6281ZM18.5079 2.83128C18.7059 2.64282 18.9707 2.54073 19.244 2.54743C19.5173 2.55413 19.7768 2.66909 19.9654 2.86703C21.9162 4.9104 23.0033 7.6278 23 10.4529C23 13.394 21.845 16.067 19.9654 18.0388C19.873 18.1408 19.7612 18.2233 19.6365 18.2815C19.5117 18.3397 19.3766 18.3723 19.2391 18.3774C19.1015 18.3825 18.9644 18.36 18.8357 18.3113C18.7069 18.2626 18.5893 18.1886 18.4896 18.0937C18.3899 17.9988 18.3103 17.8849 18.2553 17.7587C18.2003 17.6326 18.1712 17.4967 18.1695 17.359C18.1679 17.2214 18.1938 17.0849 18.2458 16.9574C18.2978 16.83 18.3747 16.7143 18.4721 16.617C20.058 14.9571 20.9413 12.7486 20.9375 10.4529C20.9413 8.15715 20.058 5.9487 18.4721 4.28877C18.2837 4.09072 18.1816 3.82593 18.1883 3.55262C18.195 3.27932 18.3099 3.01986 18.5079 2.83128ZM5.49213 2.83128C5.90463 3.22452 5.92113 3.87627 5.52788 4.28877C3.94198 5.9487 3.0587 8.15715 3.06251 10.4529C3.05812 12.7487 3.94149 14.9574 5.52788 16.617C5.70835 16.8165 5.80376 17.0785 5.79375 17.3473C5.78375 17.6161 5.66912 17.8703 5.47432 18.0558C5.27952 18.2413 5.01996 18.3433 4.75101 18.3401C4.48205 18.3369 4.22499 18.2288 4.03463 18.0388C2.08342 15.9956 0.996305 13.2781 1.00001 10.4529C1.00001 7.51177 2.15501 4.83877 4.03463 2.86703C4.22321 2.66909 4.48267 2.55413 4.75598 2.54743C5.02929 2.54073 5.29407 2.64282 5.49213 2.83128ZM17.2566 6.02265C18.3029 7.26163 18.8763 8.83126 18.875 10.4529C18.8763 12.0745 18.3029 13.6442 17.2566 14.8831C17.1706 14.9907 17.064 15.08 16.9429 15.1457C16.8218 15.2114 16.6888 15.2522 16.5518 15.2656C16.4147 15.2791 16.2763 15.2649 16.1448 15.224C16.0133 15.1831 15.8913 15.1163 15.786 15.0275C15.6807 14.9386 15.5943 14.8296 15.5319 14.7069C15.4694 14.5841 15.4322 14.4501 15.4224 14.3127C15.4126 14.1753 15.4304 14.0373 15.4748 13.9069C15.5192 13.7766 15.5893 13.6564 15.6809 13.5535C16.4132 12.6865 16.8141 11.5878 16.8125 10.4529C16.8125 9.2704 16.3876 8.19102 15.6809 7.35227C15.5131 7.14233 15.4339 6.87519 15.4601 6.60772C15.4864 6.34026 15.616 6.09361 15.8214 5.92029C16.0268 5.74698 16.2917 5.66069 16.5598 5.67981C16.8279 5.69893 17.0779 5.82194 17.2566 6.02265ZM8.33013 7.3399C7.59038 8.2082 7.18515 9.3122 7.1875 10.4529C7.18503 11.5879 7.58611 12.6869 8.31913 13.5535C8.48691 13.7635 8.56612 14.0306 8.53987 14.2981C8.51362 14.5655 8.38399 14.8122 8.1786 14.9855C7.9732 15.1588 7.70826 15.2451 7.44019 15.226C7.17212 15.2069 6.9221 15.0839 6.74338 14.8831C5.6964 13.6446 5.12292 12.0747 5.12501 10.4529C5.12269 8.8226 5.70188 7.24493 6.75851 6.0034C6.93574 5.79499 7.1885 5.66552 7.46119 5.64347C7.73388 5.62142 8.00416 5.7086 8.21257 5.88584C8.42098 6.06307 8.55045 6.31583 8.57249 6.58852C8.59454 6.86121 8.50736 7.13149 8.33013 7.3399Z" fill="#26262E"/>
</g>
</svg>
