<svg width="24" height="24" viewBox="0 0 24 24" fill="none" xmlns="http://www.w3.org/2000/svg">
<g id="state=inactive" opacity="0.4" clip-path="url(#clip0_1236_98734)">
<path id="Vector" d="M10.0365 4.819L19.1808 13.9646L9.90326 23.2434C9.47382 23.6728 8.90698 23.9374 8.30204 23.9909L8.0744 24H1.30608C0.984255 24 0.673753 23.8812 0.434114 23.6664C0.194475 23.4516 0.0425667 23.1559 0.00751626 22.8359L-0.000244141 22.6937V15.9254C-9.57483e-05 15.318 0.213727 14.7301 0.60377 14.2646L0.758977 14.0965L10.0365 4.819ZM14.0977 0.757753C14.5555 0.299958 15.1682 0.0304421 15.815 0.00242545C16.4618 -0.0255912 17.0956 0.189929 17.5912 0.606426L17.7554 0.757753L23.2433 6.24561C23.7007 6.70329 23.97 7.31579 23.998 7.96227C24.026 8.60874 23.8108 9.24224 23.3946 9.73777L23.2433 9.90333L21.0109 12.1357L11.8666 2.99015L14.0977 0.757753Z" fill="#26262E"/>
</g>
<defs>
<clipPath id="clip0_1236_98734">
<rect width="24" height="24" fill="white"/>
</clipPath>
</defs>
</svg>
