<svg width="24" height="24" viewBox="0 0 24 24" fill="none" xmlns="http://www.w3.org/2000/svg">
<g id="state=synching, step=1">
<path id="Vector" fill-rule="evenodd" clip-rule="evenodd" d="M13.0312 12.6281V20.4216C13.0312 20.6951 12.9226 20.9574 12.7292 21.1508C12.5358 21.3442 12.2735 21.4529 12 21.4529C11.7265 21.4529 11.4642 21.3442 11.2708 21.1508C11.0774 20.9574 10.9688 20.6951 10.9688 20.4216V12.6281C10.4751 12.394 10.0759 11.9989 9.83668 11.5077C9.59746 11.0165 9.53251 10.4585 9.65252 9.92555C9.77252 9.39256 10.0703 8.91627 10.497 8.57501C10.9236 8.23375 11.4537 8.04783 12 8.04783C12.5463 8.04783 13.0764 8.23375 13.503 8.57501C13.9297 8.91627 14.2275 9.39256 14.3475 9.92555C14.4675 10.4585 14.4025 11.0165 14.1633 11.5077C13.9241 11.9989 13.5249 12.394 13.0312 12.6281ZM17.2566 6.02265C18.3029 7.26163 18.8762 8.83126 18.875 10.4529C18.8762 12.0745 18.3029 13.6442 17.2566 14.8831C17.1706 14.9907 17.064 15.08 16.9429 15.1457C16.8218 15.2114 16.6888 15.2522 16.5518 15.2656C16.4147 15.2791 16.2763 15.2649 16.1448 15.224C16.0133 15.1831 15.8913 15.1163 15.786 15.0275C15.6807 14.9386 15.5943 14.8296 15.5319 14.7069C15.4694 14.5841 15.4322 14.4501 15.4224 14.3127C15.4126 14.1753 15.4304 14.0373 15.4748 13.9069C15.5192 13.7766 15.5893 13.6564 15.6809 13.5535C16.4132 12.6865 16.8141 11.5878 16.8125 10.4529C16.8125 9.2704 16.3876 8.19102 15.6809 7.35227C15.5131 7.14233 15.4339 6.87519 15.4601 6.60772C15.4864 6.34026 15.616 6.09361 15.8214 5.92029C16.0268 5.74698 16.2917 5.66069 16.5598 5.67981C16.8279 5.69893 17.0779 5.82194 17.2566 6.02265ZM8.33013 7.3399C7.59038 8.2082 7.18515 9.31221 7.1875 10.4529C7.18502 11.5879 7.58611 12.6869 8.31913 13.5535C8.48691 13.7635 8.56611 14.0306 8.53987 14.2981C8.51362 14.5655 8.38399 14.8122 8.17859 14.9855C7.9732 15.1588 7.70825 15.2451 7.44019 15.226C7.17212 15.2069 6.9221 15.0839 6.74338 14.8831C5.6964 13.6446 5.12292 12.0747 5.12501 10.4529C5.12269 8.8226 5.70188 7.24493 6.7585 6.0034C6.93574 5.79499 7.1885 5.66552 7.46119 5.64347C7.73388 5.62142 8.00416 5.7086 8.21257 5.88584C8.42098 6.06307 8.55045 6.31583 8.57249 6.58852C8.59454 6.86121 8.50736 7.13149 8.33013 7.3399Z" fill="#FF8E0A"/>
</g>
</svg>
