<svg width="24" height="24" viewBox="0 0 24 24" fill="none" xmlns="http://www.w3.org/2000/svg">
<g id="step=2">
<g id="Vector">
<path d="M24 9.6C24 10.5548 23.6207 11.4705 22.9456 12.1456C22.2705 12.8207 21.3548 13.2 20.4 13.2C19.4452 13.2 18.5295 12.8207 17.8544 12.1456C17.1793 11.4705 16.8 10.5548 16.8 9.6C16.8 8.64522 17.1793 7.72955 17.8544 7.05442C18.5295 6.37928 19.4452 6 20.4 6C21.3548 6 22.2705 6.37929 22.9456 7.05442C23.6207 7.72955 24 8.64522 24 9.6Z" fill="#26262E"/>
<path d="M16.8 3C16.8 3.79565 16.4839 4.55871 15.9213 5.12132C15.3587 5.68393 14.5956 6 13.8 6C13.0043 6 12.2413 5.68393 11.6787 5.12132C11.1161 4.55871 10.8 3.79565 10.8 3C10.8 2.20435 11.1161 1.44129 11.6787 0.878679C12.2413 0.31607 13.0043 -4.80635e-07 13.8 -4.45856e-07C14.5956 -4.11077e-07 15.3587 0.31607 15.9213 0.878679C16.4839 1.44129 16.8 2.20435 16.8 3Z" fill="#26262E" fill-opacity="0.9"/>
<path d="M8.4 5.6892C8.4 6.48485 8.08393 7.24791 7.52132 7.81052C6.95871 8.37313 6.19565 8.6892 5.4 8.6892C4.60435 8.6892 3.84129 8.37313 3.27868 7.81052C2.71607 7.24791 2.4 6.48485 2.4 5.6892C2.4 4.89355 2.71607 4.13049 3.27868 3.56788C3.84129 3.00527 4.60435 2.6892 5.4 2.6892C6.19565 2.6892 6.95871 3.00527 7.52132 3.56788C8.08393 4.13049 8.4 4.89355 8.4 5.6892Z" fill="#26262E" fill-opacity="0.8"/>
<path d="M4.8 13.2C4.8 13.8365 4.54714 14.447 4.09705 14.8971C3.64697 15.3471 3.03652 15.6 2.4 15.6C1.76348 15.6 1.15303 15.3471 0.702943 14.8971C0.252855 14.447 -1.32007e-06 13.8365 -1.29225e-06 13.2C-1.26442e-06 12.5635 0.252855 11.953 0.702943 11.5029C1.15303 11.0529 1.76348 10.8 2.4 10.8C3.03652 10.8 3.64697 11.0529 4.09705 11.5029C4.54714 11.953 4.8 12.5635 4.8 13.2Z" fill="#26262E" fill-opacity="0.7"/>
<path d="M7.8 19.5828C7.8 20.2193 7.54714 20.8298 7.09705 21.2799C6.64697 21.7299 6.03652 21.9828 5.4 21.9828C4.76348 21.9828 4.15303 21.7299 3.70294 21.2799C3.25286 20.8298 3 20.2193 3 19.5828C3 18.9463 3.25286 18.3358 3.70294 17.8857C4.15303 17.4357 4.76348 17.1828 5.4 17.1828C6.03652 17.1828 6.64697 17.4357 7.09705 17.8857C7.54714 18.3358 7.8 18.9463 7.8 19.5828Z" fill="#26262E" fill-opacity="0.6"/>
<path d="M12.8172 22.2C12.8172 22.6774 12.6276 23.1352 12.29 23.4728C11.9524 23.8104 11.4946 24 11.0172 24C10.5398 24 10.082 23.8104 9.74441 23.4728C9.40684 23.1352 9.2172 22.6774 9.2172 22.2C9.2172 21.7226 9.40684 21.2648 9.74441 20.9272C10.082 20.5896 10.5398 20.4 11.0172 20.4C11.4946 20.4 11.9524 20.5896 12.29 20.9272C12.6276 21.2648 12.8172 21.7226 12.8172 22.2Z" fill="#26262E" fill-opacity="0.5"/>
<path d="M17.7516 21.3432C17.7516 21.6615 17.6252 21.9667 17.4001 22.1917C17.1751 22.4168 16.8699 22.5432 16.5516 22.5432C16.2333 22.5432 15.9281 22.4168 15.7031 22.1917C15.478 21.9667 15.3516 21.6615 15.3516 21.3432C15.3516 21.0249 15.478 20.7197 15.7031 20.4947C15.9281 20.2696 16.2333 20.1432 16.5516 20.1432C16.8699 20.1432 17.1751 20.2696 17.4001 20.4947C17.6252 20.7197 17.7516 21.0249 17.7516 21.3432Z" fill="#26262E" fill-opacity="0.4"/>
<path d="M20.4 18.6C20.4 18.7591 20.3368 18.9117 20.2243 19.0243C20.1117 19.1368 19.9591 19.2 19.8 19.2C19.6409 19.2 19.4883 19.1368 19.3757 19.0243C19.2632 18.9117 19.2 18.7591 19.2 18.6C19.2 18.4409 19.2632 18.2883 19.3757 18.1757C19.4883 18.0632 19.6409 18 19.8 18C19.9591 18 20.1117 18.0632 20.2243 18.1757C20.3368 18.2883 20.4 18.4409 20.4 18.6Z" fill="#26262E" fill-opacity="0.3"/>
</g>
</g>
</svg>
