<svg width="24" height="24" viewBox="0 0 24 24" fill="none" xmlns="http://www.w3.org/2000/svg">
<g id="step=4">
<g id="Vector">
<path d="M-4.19629e-07 14.4C-4.61364e-07 13.4452 0.379284 12.5295 1.05442 11.8544C1.72955 11.1793 2.64522 10.8 3.6 10.8C4.55478 10.8 5.47045 11.1793 6.14558 11.8544C6.82072 12.5295 7.2 13.4452 7.2 14.4C7.2 15.3548 6.82072 16.2705 6.14558 16.9456C5.47045 17.6207 4.55478 18 3.6 18C2.64522 18 1.72955 17.6207 1.05442 16.9456C0.379284 16.2705 -3.77895e-07 15.3548 -4.19629e-07 14.4Z" fill="#26262E"/>
<path d="M7.2 21C7.2 20.2044 7.51607 19.4413 8.07868 18.8787C8.64129 18.3161 9.40435 18 10.2 18C10.9956 18 11.7587 18.3161 12.3213 18.8787C12.8839 19.4413 13.2 20.2043 13.2 21C13.2 21.7956 12.8839 22.5587 12.3213 23.1213C11.7587 23.6839 10.9957 24 10.2 24C9.40435 24 8.64129 23.6839 8.07868 23.1213C7.51607 22.5587 7.2 21.7956 7.2 21Z" fill="#26262E" fill-opacity="0.9"/>
<path d="M15.6 18.3108C15.6 17.5151 15.9161 16.7521 16.4787 16.1895C17.0413 15.6269 17.8044 15.3108 18.6 15.3108C19.3957 15.3108 20.1587 15.6269 20.7213 16.1895C21.2839 16.7521 21.6 17.5151 21.6 18.3108C21.6 19.1064 21.2839 19.8695 20.7213 20.4321C20.1587 20.9947 19.3957 21.3108 18.6 21.3108C17.8044 21.3108 17.0413 20.9947 16.4787 20.4321C15.9161 19.8695 15.6 19.1064 15.6 18.3108Z" fill="#26262E" fill-opacity="0.8"/>
<path d="M19.2 10.8C19.2 10.1635 19.4529 9.55303 19.9029 9.10294C20.353 8.65286 20.9635 8.4 21.6 8.4C22.2365 8.4 22.847 8.65285 23.2971 9.10294C23.7471 9.55303 24 10.1635 24 10.8C24 11.4365 23.7471 12.047 23.2971 12.4971C22.847 12.9471 22.2365 13.2 21.6 13.2C20.9635 13.2 20.353 12.9471 19.9029 12.4971C19.4529 12.047 19.2 11.4365 19.2 10.8Z" fill="#26262E" fill-opacity="0.7"/>
<path d="M16.2 4.4172C16.2 3.78068 16.4529 3.17023 16.9029 2.72014C17.353 2.27006 17.9635 2.0172 18.6 2.0172C19.2365 2.0172 19.847 2.27006 20.2971 2.72014C20.7471 3.17023 21 3.78068 21 4.4172C21 5.05372 20.7471 5.66417 20.2971 6.11425C19.847 6.56434 19.2365 6.8172 18.6 6.8172C17.9635 6.8172 17.353 6.56434 16.9029 6.11425C16.4529 5.66417 16.2 5.05372 16.2 4.4172Z" fill="#26262E" fill-opacity="0.6"/>
<path d="M11.1828 1.8C11.1828 1.32261 11.3724 0.864773 11.71 0.527207C12.0476 0.189642 12.5054 -1.26188e-06 12.9828 -1.28275e-06C13.4602 -1.30362e-06 13.918 0.189642 14.2556 0.527207C14.5932 0.864773 14.7828 1.32261 14.7828 1.8C14.7828 2.27739 14.5932 2.73522 14.2556 3.07279C13.918 3.41035 13.4602 3.6 12.9828 3.6C12.5054 3.6 12.0476 3.41036 11.71 3.07279C11.3724 2.73522 11.1828 2.27739 11.1828 1.8Z" fill="#26262E" fill-opacity="0.5"/>
<path d="M6.2484 2.6568C6.2484 2.33854 6.37483 2.03331 6.59987 1.80827C6.82491 1.58323 7.13014 1.4568 7.4484 1.4568C7.76666 1.4568 8.07188 1.58323 8.29693 1.80827C8.52197 2.03331 8.6484 2.33854 8.6484 2.6568C8.6484 2.97506 8.52197 3.28028 8.29693 3.50533C8.07188 3.73037 7.76666 3.8568 7.4484 3.8568C7.13014 3.8568 6.82491 3.73037 6.59987 3.50533C6.37483 3.28028 6.2484 2.97506 6.2484 2.6568Z" fill="#26262E" fill-opacity="0.4"/>
<path d="M3.6 5.4C3.6 5.24087 3.66321 5.08826 3.77574 4.97573C3.88826 4.86321 4.04087 4.8 4.2 4.8C4.35913 4.8 4.51174 4.86321 4.62426 4.97573C4.73679 5.08826 4.8 5.24087 4.8 5.4C4.8 5.55913 4.73679 5.71174 4.62426 5.82426C4.51174 5.93679 4.35913 6 4.2 6C4.04087 6 3.88826 5.93679 3.77574 5.82426C3.66321 5.71174 3.6 5.55913 3.6 5.4Z" fill="#26262E" fill-opacity="0.3"/>
</g>
</g>
</svg>
