<svg width="24" height="24" viewBox="0 0 24 24" fill="none" xmlns="http://www.w3.org/2000/svg">
<g id="step=3">
<g id="Vector">
<path d="M14.4 24C13.4452 24 12.5295 23.6207 11.8544 22.9456C11.1793 22.2705 10.8 21.3548 10.8 20.4C10.8 19.4452 11.1793 18.5295 11.8544 17.8544C12.5295 17.1793 13.4452 16.8 14.4 16.8C15.3548 16.8 16.2705 17.1793 16.9456 17.8544C17.6207 18.5295 18 19.4452 18 20.4C18 21.3548 17.6207 22.2705 16.9456 22.9456C16.2705 23.6207 15.3548 24 14.4 24Z" fill="#26262E"/>
<path d="M21 16.8C20.2044 16.8 19.4413 16.4839 18.8787 15.9213C18.3161 15.3587 18 14.5956 18 13.8C18 13.0043 18.3161 12.2413 18.8787 11.6787C19.4413 11.1161 20.2044 10.8 21 10.8C21.7957 10.8 22.5587 11.1161 23.1213 11.6787C23.6839 12.2413 24 13.0043 24 13.8C24 14.5956 23.6839 15.3587 23.1213 15.9213C22.5587 16.4839 21.7957 16.8 21 16.8Z" fill="#26262E" fill-opacity="0.9"/>
<path d="M18.3108 8.4C17.5152 8.4 16.7521 8.08393 16.1895 7.52132C15.6269 6.95871 15.3108 6.19565 15.3108 5.4C15.3108 4.60435 15.6269 3.84129 16.1895 3.27868C16.7521 2.71607 17.5152 2.4 18.3108 2.4C19.1065 2.4 19.8695 2.71607 20.4321 3.27868C20.9947 3.84129 21.3108 4.60435 21.3108 5.4C21.3108 6.19565 20.9947 6.95871 20.4321 7.52132C19.8695 8.08393 19.1065 8.4 18.3108 8.4Z" fill="#26262E" fill-opacity="0.8"/>
<path d="M10.8 4.8C10.1635 4.8 9.55303 4.54714 9.10295 4.09705C8.65286 3.64697 8.4 3.03652 8.4 2.4C8.4 1.76348 8.65286 1.15303 9.10295 0.702942C9.55303 0.252855 10.1635 -1.92488e-06 10.8 -1.86924e-06C11.4365 -1.81359e-06 12.047 0.252855 12.4971 0.702942C12.9471 1.15303 13.2 1.76348 13.2 2.4C13.2 3.03652 12.9471 3.64697 12.4971 4.09705C12.047 4.54714 11.4365 4.8 10.8 4.8Z" fill="#26262E" fill-opacity="0.7"/>
<path d="M4.4172 7.8C3.78068 7.8 3.17023 7.54714 2.72014 7.09705C2.27006 6.64697 2.0172 6.03652 2.0172 5.4C2.0172 4.76348 2.27006 4.15303 2.72015 3.70294C3.17023 3.25285 3.78068 3 4.4172 3C5.05372 3 5.66417 3.25285 6.11426 3.70294C6.56434 4.15303 6.8172 4.76348 6.8172 5.4C6.8172 6.03652 6.56434 6.64697 6.11426 7.09705C5.66417 7.54714 5.05372 7.8 4.4172 7.8Z" fill="#26262E" fill-opacity="0.6"/>
<path d="M1.8 12.8172C1.32261 12.8172 0.864774 12.6276 0.527209 12.29C0.189643 11.9524 3.78002e-07 11.4946 4.19737e-07 11.0172C4.61472e-07 10.5398 0.189644 10.082 0.527209 9.7444C0.864775 9.40684 1.32261 9.2172 1.8 9.2172C2.27739 9.2172 2.73523 9.40684 3.07279 9.7444C3.41036 10.082 3.6 10.5398 3.6 11.0172C3.6 11.4946 3.41036 11.9524 3.07279 12.29C2.73523 12.6276 2.27739 12.8172 1.8 12.8172Z" fill="#26262E" fill-opacity="0.5"/>
<path d="M2.6568 17.7516C2.33854 17.7516 2.03331 17.6252 1.80827 17.4001C1.58323 17.1751 1.4568 16.8699 1.4568 16.5516C1.4568 16.2333 1.58323 15.9281 1.80827 15.7031C2.03331 15.478 2.33854 15.3516 2.6568 15.3516C2.97506 15.3516 3.28028 15.478 3.50533 15.7031C3.73037 15.9281 3.8568 16.2333 3.8568 16.5516C3.8568 16.8699 3.73037 17.1751 3.50533 17.4001C3.28028 17.6252 2.97506 17.7516 2.6568 17.7516Z" fill="#26262E" fill-opacity="0.4"/>
<path d="M5.4 20.4C5.24087 20.4 5.08826 20.3368 4.97573 20.2243C4.86321 20.1117 4.8 19.9591 4.8 19.8C4.8 19.6409 4.86321 19.4883 4.97573 19.3757C5.08826 19.2632 5.24087 19.2 5.4 19.2C5.55913 19.2 5.71174 19.2632 5.82426 19.3757C5.93679 19.4883 6 19.6409 6 19.8C6 19.9591 5.93679 20.1117 5.82426 20.2243C5.71174 20.3368 5.55913 20.4 5.4 20.4Z" fill="#26262E" fill-opacity="0.3"/>
</g>
</g>
</svg>
