<svg width="24" height="24" viewBox="0 0 24 24" fill="none" xmlns="http://www.w3.org/2000/svg">
<g id="style=default, state=alt-transition-1">
<path id="Vector" d="M4.24864 15.8936C4.10669 16.0929 4.02236 16.3275 4.00487 16.5717C3.98739 16.8158 4.03743 17.06 4.14952 17.2776C4.2616 17.4951 4.43141 17.6776 4.64034 17.8051C4.84926 17.9326 5.08924 18.0001 5.33398 18.0002L18.6673 18.0002C18.912 18.0001 19.152 17.9326 19.3609 17.8051C19.5699 17.6776 19.7397 17.4951 19.8518 17.2776C19.9639 17.06 20.0139 16.8158 19.9964 16.5717C19.9789 16.3275 19.8946 16.0929 19.7526 15.8936L13.086 6.56024C12.9626 6.3874 12.7998 6.24652 12.611 6.14932C12.4222 6.05211 12.213 6.0014 12.0006 6.0014C11.7883 6.0014 11.579 6.05211 11.3903 6.14932C11.2015 6.24652 11.0386 6.3874 10.9153 6.56024L4.24864 15.8936Z" fill="#26262E"/>
</g>
</svg>
