<svg width="24" height="24" viewBox="0 0 24 24" fill="none" xmlns="http://www.w3.org/2000/svg">
<g id="style=contained, state=play">
<path id="Vector" d="M24 12C24 15.1826 22.7357 18.2348 20.4853 20.4853C18.2348 22.7357 15.1826 24 12 24C8.8174 24 5.76516 22.7357 3.51472 20.4853C1.26428 18.2348 0 15.1826 0 12C0 8.8174 1.26428 5.76516 3.51472 3.51472C5.76516 1.26428 8.8174 0 12 0C15.1826 0 18.2348 1.26428 20.4853 3.51472C22.7357 5.76516 24 8.8174 24 12ZM10.7785 7.6395C10.6663 7.55965 10.5344 7.51221 10.3971 7.50238C10.2598 7.49254 10.1224 7.52069 10 7.58374C9.87762 7.64679 9.77495 7.74231 9.70325 7.85983C9.63155 7.97735 9.59357 8.11233 9.59349 8.25V15.75C9.59357 15.8877 9.63155 16.0227 9.70325 16.1402C9.77495 16.2577 9.87762 16.3532 10 16.4163C10.1224 16.4793 10.2598 16.5075 10.3971 16.4976C10.5344 16.4878 10.6663 16.4403 10.7785 16.3605L16.0285 12.6105C16.1257 12.5411 16.205 12.4495 16.2596 12.3433C16.3143 12.2371 16.3428 12.1194 16.3428 12C16.3428 11.8806 16.3143 11.7628 16.2596 11.6567C16.205 11.5505 16.1257 11.4589 16.0285 11.3895L10.7785 7.6395Z" fill="#26262E"/>
</g>
</svg>
