<svg width="24" height="24" viewBox="0 0 24 24" fill="none" xmlns="http://www.w3.org/2000/svg">
<g id="style=default, state=play">
<path id="Vector" d="M8.10667 4.24718C7.9073 4.10523 7.6727 4.02089 7.42859 4.00341C7.18447 3.98592 6.94025 4.03596 6.72269 4.14805C6.50512 4.26014 6.32261 4.42995 6.19513 4.63887C6.06766 4.84779 6.00015 5.08777 6 5.33251V18.6658C6.00015 18.9106 6.06766 19.1506 6.19513 19.3595C6.32261 19.5684 6.50512 19.7382 6.72269 19.8503C6.94025 19.9624 7.18447 20.0124 7.42859 19.9949C7.6727 19.9775 7.9073 19.8931 8.10667 19.7512L17.44 13.0845C17.6128 12.9612 17.7537 12.7983 17.8509 12.6096C17.9481 12.4208 17.9988 12.2115 17.9988 11.9992C17.9988 11.7868 17.9481 11.5776 17.8509 11.3888C17.7537 11.2 17.6128 11.0372 17.44 10.9138L8.10667 4.24718Z" fill="#26262E"/>
</g>
</svg>
