<svg width="24" height="24" viewBox="0 0 24 24" fill="none" xmlns="http://www.w3.org/2000/svg">
<g id="style=contained, state=alt-transition-1">
<path id="Vector" d="M12 5.24537e-07C15.1826 6.63652e-07 18.2348 1.26428 20.4853 3.51472C22.7357 5.76515 24 8.8174 24 12C24 15.1826 22.7357 18.2348 20.4853 20.4853C18.2348 22.7357 15.1826 24 12 24C8.8174 24 5.76516 22.7357 3.51472 20.4853C1.26428 18.2348 3.85421e-07 15.1826 5.24537e-07 12C6.63652e-07 8.8174 1.26428 5.76515 3.51472 3.51472C5.76516 1.26428 8.8174 3.85421e-07 12 5.24537e-07ZM7.6395 13.2215C7.55965 13.3337 7.51221 13.4656 7.50238 13.6029C7.49254 13.7402 7.52069 13.8776 7.58374 14C7.64679 14.1224 7.74231 14.225 7.85983 14.2967C7.97735 14.3685 8.11233 14.4064 8.25 14.4065L15.75 14.4065C15.8877 14.4064 16.0227 14.3685 16.1402 14.2967C16.2577 14.225 16.3532 14.1224 16.4163 14C16.4793 13.8776 16.5075 13.7402 16.4976 13.6029C16.4878 13.4656 16.4403 13.3337 16.3605 13.2215L12.6105 7.97151C12.5411 7.87429 12.4495 7.79504 12.3433 7.74036C12.2372 7.68569 12.1194 7.65716 12 7.65716C11.8806 7.65716 11.7629 7.68569 11.6567 7.74036C11.5505 7.79504 11.4589 7.87429 11.3895 7.97151L7.6395 13.2215Z" fill="#26262E"/>
</g>
</svg>
