<svg width="24" height="24" viewBox="0 0 24 24" fill="none" xmlns="http://www.w3.org/2000/svg">
<g id="style=default, state=transition-1">
<path id="Vector" d="M19.7514 8.10642C19.8933 7.90705 19.9776 7.67246 19.9951 7.42834C20.0126 7.18423 19.9626 6.94001 19.8505 6.72244C19.7384 6.50488 19.5686 6.32236 19.3597 6.19489C19.1507 6.06742 18.9108 5.99991 18.666 5.99976L5.33269 5.99976C5.08795 5.99991 4.84797 6.06742 4.63905 6.19489C4.43013 6.32236 4.26032 6.50488 4.14823 6.72244C4.03614 6.94001 3.9861 7.18423 4.00359 7.42834C4.02107 7.67246 4.10541 7.90705 4.24736 8.10642L10.914 17.4398C11.0374 17.6126 11.2002 17.7535 11.389 17.8507C11.5778 17.9479 11.787 17.9986 11.9994 17.9986C12.2117 17.9986 12.421 17.9479 12.6097 17.8507C12.7985 17.7535 12.9614 17.6126 13.0847 17.4398L19.7514 8.10642Z" fill="#26262E"/>
</g>
</svg>
