<svg width="26" height="24" viewBox="0 0 26 24" fill="none" xmlns="http://www.w3.org/2000/svg">
<g id="style=fill, state=inactive" opacity="0.4">
<path id="Vector" d="M12.9023 9.60009C14.0428 9.60009 15.1365 9.14705 15.9429 8.34064C16.7493 7.53422 17.2024 6.44049 17.2024 5.30004C17.2024 4.1596 16.7493 3.06587 15.9429 2.25945C15.1365 1.45304 14.0428 1 12.9023 1C11.7619 1 10.6681 1.45304 9.86172 2.25945C9.0553 3.06587 8.60226 4.1596 8.60226 5.30004C8.60226 6.44049 9.0553 7.53422 9.86172 8.34064C10.6681 9.14705 11.7619 9.60009 12.9023 9.60009V9.60009ZM7.16891 8.16674C7.16891 8.92704 6.86689 9.65619 6.32928 10.1938C5.79167 10.7314 5.06251 11.0334 4.30222 11.0334C3.54192 11.0334 2.81277 10.7314 2.27516 10.1938C1.73755 9.65619 1.43552 8.92704 1.43552 8.16674C1.43552 7.40645 1.73755 6.67729 2.27516 6.13968C2.81277 5.60207 3.54192 5.30004 4.30222 5.30004C5.06251 5.30004 5.79167 5.60207 6.32928 6.13968C6.86689 6.67729 7.16891 7.40645 7.16891 8.16674V8.16674ZM0.704513 18.6675C0.459821 18.5284 0.27658 18.3022 0.191375 18.0339C-0.0611734 17.2159 -0.0638218 16.3412 0.183769 15.5217C0.431359 14.7022 0.917918 13.9753 1.58114 13.434C2.24436 12.8927 3.05405 12.5617 3.90653 12.4834C4.75901 12.405 5.61547 12.5829 6.36624 12.9943C4.82343 14.5104 3.85778 16.5172 3.63571 18.6689C3.60274 18.9871 3.61564 19.3024 3.67154 19.6063C2.62543 19.5158 1.61225 19.1952 0.704513 18.6675V18.6675ZM22.1331 19.6049C23.1791 19.5148 24.1923 19.1947 25.1001 18.6675C25.3443 18.5281 25.527 18.3019 25.6118 18.0339C25.8648 17.2158 25.8677 16.3409 25.6203 15.5211C25.3729 14.7014 24.8863 13.9742 24.223 13.4327C23.5597 12.8911 22.7499 12.56 21.8972 12.4816C21.0445 12.4033 20.1878 12.5813 19.4369 12.9928C20.9811 14.5089 21.9478 16.5163 22.1703 18.6689C22.2023 18.9815 22.1897 19.2972 22.1331 19.6063V19.6049ZM24.3691 8.16674C24.3691 8.92704 24.0671 9.65619 23.5295 10.1938C22.9919 10.7314 22.2627 11.0334 21.5024 11.0334C20.7421 11.0334 20.0129 10.7314 19.4753 10.1938C18.9377 9.65619 18.6357 8.92704 18.6357 8.16674C18.6357 7.40645 18.9377 6.67729 19.4753 6.13968C20.0129 5.60207 20.7421 5.30004 21.5024 5.30004C22.2627 5.30004 22.9919 5.60207 23.5295 6.13968C24.0671 6.67729 24.3691 7.40645 24.3691 8.16674V8.16674ZM6.1713 19.9059C6.02994 19.7793 5.92035 19.6212 5.85138 19.4444C5.78241 19.2676 5.75599 19.0771 5.77427 18.8882C5.95658 17.1244 6.78627 15.4909 8.10297 14.3033C9.41966 13.1157 11.1299 12.4583 12.903 12.4583C14.6762 12.4583 16.3864 13.1157 17.7031 14.3033C19.0198 15.4909 19.8495 17.1244 20.0318 18.8882C20.0502 19.0771 20.0238 19.2676 19.9548 19.4445C19.8859 19.6213 19.7762 19.7793 19.6347 19.9059C17.7918 21.5785 15.3911 22.5036 12.9023 22.5002C10.4139 22.5034 8.01385 21.5783 6.1713 19.9059V19.9059Z" fill="#26262E"/>
</g>
</svg>
