<svg width="24" height="24" viewBox="0 0 24 24" fill="none" xmlns="http://www.w3.org/2000/svg">
<g id="style=fill, state=unlocked">
<g id="Vector">
<path fill-rule="evenodd" clip-rule="evenodd" d="M6.09524 20.9048H18.6667V10.4286H6.09524V20.9048ZM13.8612 17.147C13.4506 17.5569 12.9571 17.7619 12.381 17.7619C11.8048 17.7619 11.3117 17.5569 10.9017 17.147C10.491 16.7363 10.2857 16.2429 10.2857 15.6667C10.2857 15.0905 10.491 14.597 10.9017 14.1864C11.3117 13.7764 11.8048 13.5714 12.381 13.5714C12.9571 13.5714 13.4506 13.7764 13.8612 14.1864C14.2712 14.597 14.4762 15.0905 14.4762 15.6667C14.4762 16.2429 14.2712 16.7363 13.8612 17.147Z" fill="#26262E"/>
<path fill-rule="evenodd" clip-rule="evenodd" d="M15.5238 8.33333H6.09524C5.51905 8.33333 5.02597 8.53832 4.616 8.94829C4.20533 9.35895 4 9.85238 4 10.4286V20.9048C4 21.481 4.20533 21.9744 4.616 22.385C5.02597 22.795 5.51905 23 6.09524 23H18.6667C19.2429 23 19.7363 22.795 20.147 22.385C20.5569 21.9744 20.7619 21.481 20.7619 20.9048V10.4286C20.7619 9.85238 20.5569 9.35895 20.147 8.94829C19.7363 8.53832 19.2429 8.33333 18.6667 8.33333H17.619V6.23809C17.619 4.78889 17.1085 3.5534 16.0874 2.53162C15.0657 1.51054 13.8302 1 12.381 1C10.9317 1 9.6966 1.51054 8.67552 2.53162C7.65375 3.5534 7.14286 4.78889 7.14286 6.23809H9.2381C9.2381 5.36508 9.54365 4.62302 10.1548 4.0119C10.7659 3.40079 11.5079 3.09524 12.381 3.09524C13.254 3.09524 13.996 3.40079 14.6071 4.0119C15.2183 4.62302 15.5238 5.36508 15.5238 6.23809V8.33333ZM18.6667 10.4286V20.9048H6.09524V10.4286H18.6667Z" fill="#26262E"/>
</g>
</g>
</svg>
