<svg width="24" height="24" viewBox="0 0 24 24" fill="none" xmlns="http://www.w3.org/2000/svg">
<g id="style=contained, state=pause">
<path id="Vector" d="M12 24C18.6281 24 24 18.6281 24 12C24 5.37188 18.6281 0 12 0C5.37188 0 0 5.37188 0 12C0 18.6281 5.37188 24 12 24ZM10.5 9V15C10.5 15.8297 9.82969 16.5 9 16.5C8.17031 16.5 7.5 15.8297 7.5 15V9C7.5 8.17031 8.17031 7.5 9 7.5C9.82969 7.5 10.5 8.17031 10.5 9ZM16.5 9V15C16.5 15.8297 15.8297 16.5 15 16.5C14.1703 16.5 13.5 15.8297 13.5 15V9C13.5 8.17031 14.1703 7.5 15 7.5C15.8297 7.5 16.5 8.17031 16.5 9Z" fill="#26262E"/>
</g>
</svg>
