<svg width="24" height="24" viewBox="0 0 24 24" fill="none" xmlns="http://www.w3.org/2000/svg">
<g id="style=outline, state=active">
<path id="Vector" d="M20 10.6C20 12.5803 19.1571 14.4795 17.6569 15.8797C16.1566 17.28 14.1217 18.0667 12 18.0667M12 18.0667C9.87827 18.0667 7.84344 17.28 6.34315 15.8797C4.84285 14.4795 4 12.5803 4 10.6M12 18.0667V22.3333M12 22.3333H7.42857M12 22.3333H16.5714M12 13.8C11.0907 13.8 10.2186 13.4629 9.57563 12.8627C8.93265 12.2626 8.57143 11.4487 8.57143 10.6V4.2C8.57143 3.35131 8.93265 2.53737 9.57563 1.93726C10.2186 1.33714 11.0907 1 12 1C12.9093 1 13.7814 1.33714 14.4244 1.93726C15.0673 2.53737 15.4286 3.35131 15.4286 4.2V10.6C15.4286 11.4487 15.0673 12.2626 14.4244 12.8627C13.7814 13.4629 12.9093 13.8 12 13.8V13.8Z" stroke="#26262E" stroke-width="2" stroke-linecap="round" stroke-linejoin="round"/>
</g>
</svg>
