<svg width="24" height="24" viewBox="0 0 24 24" fill="none" xmlns="http://www.w3.org/2000/svg">
<g id="style=default, state=alt-transition-2">
<g id="Vector">
<path d="M6.66667 14.6667L17.3333 14.6667C18.8083 14.6667 20 15.8583 20 17.3333C20 18.8083 18.8083 20 17.3333 20L6.66667 20C5.19167 20 4 18.8083 4 17.3333C4 15.8583 5.19167 14.6667 6.66667 14.6667Z" fill="#26262E"/>
<path d="M6.66667 4L17.3333 4C18.8083 4 20 5.19167 20 6.66667C20 8.14167 18.8083 9.33333 17.3333 9.33333L6.66667 9.33333C5.19167 9.33333 4 8.14167 4 6.66667C4 5.19167 5.19167 4 6.66667 4Z" fill="#26262E"/>
</g>
</g>
</svg>
