<svg width="24" height="24" viewBox="0 0 24 24" fill="none" xmlns="http://www.w3.org/2000/svg">
<g id="style=outline, state=locked">
<path id="Vector" d="M6.09524 23C5.51905 23 5.02597 22.795 4.616 22.385C4.20533 21.9744 4 21.481 4 20.9048V10.4286C4 9.85238 4.20533 9.35895 4.616 8.94829C5.02597 8.53832 5.51905 8.33333 6.09524 8.33333H7.14286V6.2381C7.14286 4.78889 7.65375 3.5534 8.67552 2.53162C9.6966 1.51054 10.9317 1 12.381 1C13.8302 1 15.0657 1.51054 16.0874 2.53162C17.1085 3.5534 17.619 4.78889 17.619 6.2381V8.33333H18.6667C19.2429 8.33333 19.7363 8.53832 20.147 8.94829C20.5569 9.35895 20.7619 9.85238 20.7619 10.4286V20.9048C20.7619 21.481 20.5569 21.9744 20.147 22.385C19.7363 22.795 19.2429 23 18.6667 23H6.09524ZM6.09524 20.9048H18.6667V10.4286H6.09524V20.9048ZM12.381 17.7619C12.9571 17.7619 13.4506 17.5569 13.8612 17.147C14.2712 16.7363 14.4762 16.2429 14.4762 15.6667C14.4762 15.0905 14.2712 14.597 13.8612 14.1864C13.4506 13.7764 12.9571 13.5714 12.381 13.5714C11.8048 13.5714 11.3117 13.7764 10.9017 14.1864C10.491 14.597 10.2857 15.0905 10.2857 15.6667C10.2857 16.2429 10.491 16.7363 10.9017 17.147C11.3117 17.5569 11.8048 17.7619 12.381 17.7619ZM9.2381 8.33333H15.5238V6.2381C15.5238 5.36508 15.2183 4.62302 14.6071 4.0119C13.996 3.40079 13.254 3.09524 12.381 3.09524C11.5079 3.09524 10.7659 3.40079 10.1548 4.0119C9.54365 4.62302 9.2381 5.36508 9.2381 6.2381V8.33333ZM6.09524 20.9048V10.4286V20.9048Z" fill="#26262E"/>
</g>
</svg>
