<svg width="24" height="24" viewBox="0 0 24 24" fill="none" xmlns="http://www.w3.org/2000/svg">
<g id="style=fill, state=active">
<g id="Vector">
<path d="M18.8367 16.2653C18.037 16.2653 17.299 16.5459 16.7209 17.0145L10.9066 12.8082C11.004 12.2738 11.004 11.7262 10.9066 11.1918L16.7209 6.98546C17.299 7.45408 18.037 7.73469 18.8367 7.73469C20.6944 7.73469 22.2041 6.225 22.2041 4.36735C22.2041 2.50969 20.6944 1 18.8367 1C16.9791 1 15.4694 2.50969 15.4694 4.36735C15.4694 4.69286 15.5143 5.00434 15.6013 5.30179L10.0788 9.30051C9.25944 8.21454 7.9574 7.5102 6.4898 7.5102C4.00918 7.5102 2 9.51939 2 12C2 14.4806 4.00918 16.4898 6.4898 16.4898C7.9574 16.4898 9.25944 15.7855 10.0788 14.6995L15.6013 18.6982C15.5143 18.9957 15.4694 19.3099 15.4694 19.6327C15.4694 21.4903 16.9791 23 18.8367 23C20.6944 23 22.2041 21.4903 22.2041 19.6327C22.2041 17.775 20.6944 16.2653 18.8367 16.2653ZM18.8367 2.90816C19.6421 2.90816 20.2959 3.56199 20.2959 4.36735C20.2959 5.1727 19.6421 5.82653 18.8367 5.82653C18.0314 5.82653 17.3776 5.1727 17.3776 4.36735C17.3776 3.56199 18.0314 2.90816 18.8367 2.90816ZM6.4898 14.4694C5.12883 14.4694 4.02041 13.361 4.02041 12C4.02041 10.639 5.12883 9.53061 6.4898 9.53061C7.85077 9.53061 8.95918 10.639 8.95918 12C8.95918 13.361 7.85077 14.4694 6.4898 14.4694ZM18.8367 21.0918C18.0314 21.0918 17.3776 20.438 17.3776 19.6327C17.3776 18.8273 18.0314 18.1735 18.8367 18.1735C19.6421 18.1735 20.2959 18.8273 20.2959 19.6327C20.2959 20.438 19.6421 21.0918 18.8367 21.0918Z" fill="#26262E"/>
<path d="M6.4898 14.4694C5.12883 14.4694 4.02041 13.361 4.02041 12C4.02041 10.639 5.12883 9.53061 6.4898 9.53061C7.85077 9.53061 8.95918 10.639 8.95918 12C8.95918 13.361 7.85077 14.4694 6.4898 14.4694Z" fill="#26262E"/>
<path d="M18.8367 2.90816C19.6421 2.90816 20.2959 3.56199 20.2959 4.36735C20.2959 5.1727 19.6421 5.82653 18.8367 5.82653C18.0314 5.82653 17.3776 5.1727 17.3776 4.36735C17.3776 3.56199 18.0314 2.90816 18.8367 2.90816Z" fill="#26262E"/>
<path d="M18.8367 21.0918C18.0314 21.0918 17.3776 20.438 17.3776 19.6327C17.3776 18.8273 18.0314 18.1735 18.8367 18.1735C19.6421 18.1735 20.2959 18.8273 20.2959 19.6327C20.2959 20.438 19.6421 21.0918 18.8367 21.0918Z" fill="#26262E"/>
</g>
</g>
</svg>
