<svg width="24" height="24" viewBox="0 0 24 24" fill="none" xmlns="http://www.w3.org/2000/svg">
<g id="style=fill, state=inactive" opacity="0.4">
<path id="Vector" fill-rule="evenodd" clip-rule="evenodd" d="M12 1L8.7 4.3H4.3V8.7L1 12L4.3 15.3V19.7H8.7L12 23L15.3 19.7H19.7V15.3L23 12L19.7 8.7V4.3H15.3L12 1ZM14.3335 14.3335C13.7146 14.9523 12.8752 15.3 12 15.3C11.1248 15.3 10.2854 14.9523 9.66657 14.3335C9.0477 13.7146 8.70002 12.8752 8.70002 12C8.70002 11.1248 9.0477 10.2854 9.66657 9.66657C10.2854 9.0477 11.1248 8.70002 12 8.70002C12.8752 8.70002 13.7146 9.0477 14.3335 9.66657C14.9523 10.2854 15.3 11.1248 15.3 12C15.3 12.8752 14.9523 13.7146 14.3335 14.3335Z" fill="#26262E" stroke="#26262E" stroke-width="2" stroke-linejoin="round"/>
</g>
</svg>
