<svg width="24" height="24" viewBox="0 0 24 24" fill="none" xmlns="http://www.w3.org/2000/svg">
<g id="style=contained, state=alt-transition-2">
<path id="Vector" d="M24 12C24 5.37188 18.6281 2.22138e-07 12 1.43099e-07C5.37188 6.4059e-08 2.22138e-07 5.37188 1.43099e-07 12C6.4059e-08 18.6281 5.37188 24 12 24C18.6281 24 24 18.6281 24 12ZM9 13.5L15 13.5C15.8297 13.5 16.5 14.1703 16.5 15C16.5 15.8297 15.8297 16.5 15 16.5L9 16.5C8.17031 16.5 7.5 15.8297 7.5 15C7.5 14.1703 8.17031 13.5 9 13.5ZM9 7.5L15 7.5C15.8297 7.5 16.5 8.17031 16.5 9C16.5 9.82969 15.8297 10.5 15 10.5L9 10.5C8.17031 10.5 7.5 9.82969 7.5 9C7.5 8.17031 8.17031 7.5 9 7.5Z" fill="#26262E"/>
</g>
</svg>
