<svg width="24" height="24" viewBox="0 0 24 24" fill="none" xmlns="http://www.w3.org/2000/svg">
<g id="style=contained, state=transition-1">
<path id="Vector" d="M12 24C8.8174 24 5.76515 22.7357 3.51472 20.4853C1.26428 18.2348 -6.63652e-07 15.1826 -5.24537e-07 12C-3.85421e-07 8.8174 1.26428 5.76515 3.51472 3.51472C5.76515 1.26428 8.8174 -6.63652e-07 12 -5.24537e-07C15.1826 -3.85421e-07 18.2348 1.26428 20.4853 3.51472C22.7357 5.76516 24 8.8174 24 12C24 15.1826 22.7357 18.2348 20.4853 20.4853C18.2348 22.7357 15.1826 24 12 24ZM16.3605 10.7785C16.4403 10.6663 16.4878 10.5344 16.4976 10.3971C16.5075 10.2598 16.4793 10.1224 16.4163 10C16.3532 9.87762 16.2577 9.77495 16.1402 9.70325C16.0227 9.63155 15.8877 9.59357 15.75 9.59349L8.25 9.59349C8.11233 9.59357 7.97735 9.63155 7.85983 9.70325C7.74231 9.77495 7.64679 9.87762 7.58374 10C7.52069 10.1224 7.49254 10.2598 7.50238 10.3971C7.51221 10.5344 7.55965 10.6663 7.6395 10.7785L11.3895 16.0285C11.4589 16.1257 11.5505 16.205 11.6567 16.2596C11.7628 16.3143 11.8806 16.3428 12 16.3428C12.1194 16.3428 12.2371 16.3143 12.3433 16.2596C12.4495 16.205 12.5411 16.1257 12.6105 16.0285L16.3605 10.7785Z" fill="#26262E"/>
</g>
</svg>
