<svg width="24" height="24" viewBox="0 0 24 24" fill="none" xmlns="http://www.w3.org/2000/svg">
<path id="vector" d="M22.057 11.3248L18.4677 14.914C17.8517 15.5301 17.1204 16.0188 16.3156 16.3522C15.5107 16.6856 14.648 16.8572 13.7768 16.8572C12.9057 16.8572 12.043 16.6856 11.2381 16.3522C10.4333 16.0188 9.70196 15.5301 9.08597 14.914C8.9341 14.7876 8.81026 14.6309 8.72234 14.454C8.63443 14.277 8.58437 14.0837 8.57536 13.8863C8.56635 13.6889 8.59859 13.4918 8.67002 13.3076C8.74145 13.1234 8.85051 12.9561 8.99022 12.8164C9.12994 12.6767 9.29725 12.5676 9.48147 12.4962C9.6657 12.4247 9.86279 12.3925 10.0602 12.4015C10.2576 12.4105 10.4509 12.4606 10.6278 12.5485C10.8048 12.6364 10.9615 12.7603 11.0879 12.9121C11.802 13.6189 12.7662 14.0153 13.7709 14.0153C14.7757 14.0153 15.7398 13.6189 16.454 12.9121L20.0432 9.32288C20.7548 8.61129 21.1546 7.64617 21.1546 6.63984C21.1546 5.6335 20.7548 4.66838 20.0432 3.95679C19.3316 3.2452 18.3665 2.84544 17.3602 2.84544C16.3538 2.84544 15.3887 3.2452 14.6771 3.95679L13.5399 5.10582C13.2729 5.37286 12.9107 5.52289 12.5331 5.52289C12.1554 5.52289 11.7932 5.37286 11.5262 5.10582C11.2591 4.83878 11.1091 4.47659 11.1091 4.09894C11.1091 3.72129 11.2591 3.3591 11.5262 3.09206L12.6752 1.94303C13.9193 0.698928 15.6067 0 17.3661 0C19.1255 0 20.8129 0.698928 22.057 1.94303C23.3011 3.18713 24 4.87449 24 6.63391C24 8.39333 23.3011 10.0807 22.057 11.3248V11.3248ZM10.4601 18.8942L9.32288 20.0432C8.61129 20.7548 7.64617 21.1546 6.63984 21.1546C5.6335 21.1546 4.66838 20.7548 3.95679 20.0432C3.2452 19.3316 2.84544 18.3665 2.84544 17.3602C2.84544 16.3538 3.2452 15.3887 3.95679 14.6771L7.54603 11.0879C8.26017 10.3811 9.22434 9.9847 10.2291 9.9847C11.2338 9.9847 12.198 10.3811 12.9121 11.0879C13.1846 11.3147 13.5321 11.4315 13.8863 11.4154C14.2405 11.3992 14.5759 11.2512 14.8266 11.0005C15.0774 10.7498 15.2253 10.4144 15.2415 10.0602C15.2577 9.70596 15.1409 9.35849 14.914 9.08597C14.2988 8.4685 13.5678 7.97856 12.7628 7.64426C11.9578 7.30996 11.0948 7.13788 10.2231 7.13788C9.35152 7.13788 8.48847 7.30996 7.68349 7.64426C6.87852 7.97856 6.14746 8.4685 5.53227 9.08597L1.94303 12.6752C0.698928 13.9193 0 15.6067 0 17.3661C0 19.1255 0.698928 20.8129 1.94303 22.057C3.18713 23.3011 4.87449 24 6.63391 24C8.39333 24 10.0807 23.3011 11.3248 22.057L12.4738 20.9079C12.7409 20.6409 12.8909 20.2787 12.8909 19.9011C12.8909 19.5234 12.7409 19.1612 12.4738 18.8942C12.2068 18.6271 11.8446 18.4771 11.4669 18.4771C11.0893 18.4771 10.7271 18.6271 10.4601 18.8942V18.8942Z" fill="#26262E"/>
</svg>
