<svg width="24" height="20" viewBox="0 0 24 20" fill="none" xmlns="http://www.w3.org/2000/svg">
<g id="Vector">
<path fill-rule="evenodd" clip-rule="evenodd" d="M3 0.25H21C22.6569 0.25 24 1.59315 24 3.25C24 4.90685 22.6569 6.25 21 6.25H3C1.34315 6.25 0 4.90685 0 3.25C0 1.59315 1.34315 0.25 3 0.25ZM3 1.75C2.17157 1.75 1.5 2.42157 1.5 3.25C1.5 4.07843 2.17157 4.75 3 4.75H21C21.8284 4.75 22.5 4.07843 22.5 3.25C22.5 2.42157 21.8284 1.75 21 1.75H3Z" fill="#26262E"/>
<path d="M1.5 11.25C1.5 10.4216 2.17157 9.75 3 9.75H21C21.8284 9.75 22.5 10.4216 22.5 11.25C22.5 12.0784 21.8284 12.75 21 12.75H3C2.17157 12.75 1.5 12.0784 1.5 11.25Z" fill="#26262E"/>
<path d="M1.5 18.25C1.5 17.4216 2.17157 16.75 3 16.75H21C21.8284 16.75 22.5 17.4216 22.5 18.25C22.5 19.0784 21.8284 19.75 21 19.75H3C2.17157 19.75 1.5 19.0784 1.5 18.25Z" fill="#26262E"/>
</g>
</svg>
