<svg width="24" height="24" viewBox="0 0 24 24" fill="none" xmlns="http://www.w3.org/2000/svg">
<g id="Vector">
<path fill-rule="evenodd" clip-rule="evenodd" d="M7.07845 21.0358C7.70195 20.7608 8.40053 20.7098 9.05662 20.8903C9.97592 21.1431 10.9624 21.28 12 21.28C17.7283 21.28 22 17.1522 22 11.64C22 6.12782 17.7283 2 12 2C6.27166 2 2 6.12782 2 11.64C2 14.5693 3.19131 17.0501 5.10188 18.7587C5.6909 19.2859 6.0647 20.0424 6.0901 20.8726V20.8726L6.10821 21.4641L7.07845 21.0358ZM8.52636 22.8187C8.3136 22.7602 8.08735 22.7767 7.88544 22.8658L5.50361 23.9172C4.88057 24.1922 4.17727 23.7492 4.15639 23.0683L4.09104 20.9338C4.083 20.6707 3.96468 20.425 3.76867 20.2495C1.43376 18.1615 0 15.1384 0 11.64C0 4.95168 5.24004 0 12 0C18.76 0 24 4.95168 24 11.64C24 18.3283 18.76 23.28 12 23.28C10.7858 23.28 9.62088 23.1197 8.52636 22.8187Z" fill="#26262E"/>
<path d="M8.61764 9.45157L5.09264 15.044C4.75436 15.5807 5.41407 16.1855 5.91944 15.802L9.70587 12.9284C9.962 12.734 10.316 12.733 10.5732 12.9259L13.3768 15.0286C14.2181 15.6596 15.4188 15.4381 15.9796 14.5484L19.5046 8.95592C19.8428 8.41921 19.1831 7.81441 18.6777 8.19793L14.8913 11.0716C14.6352 11.266 14.2812 11.267 14.024 11.074L11.2204 8.97133C10.3791 8.34037 9.17835 8.56189 8.61764 9.45157Z" fill="#26262E"/>
</g>
</svg>
