<svg width="24" height="24" viewBox="0 0 24 24" fill="none" xmlns="http://www.w3.org/2000/svg">
<g id="Vector">
<path d="M13.25 14.85H15.5714L16.5 11.25H13.25V9.45C13.25 8.523 13.25 7.65 15.1071 7.65H16.5V4.626C16.1973 4.5873 15.0542 4.5 13.8471 4.5C11.326 4.5 9.53571 5.9913 9.53571 8.73V11.25H6.75V14.85H9.53571V22.5H13.25V14.85Z" fill="#26262E"/>
<path fill-rule="evenodd" clip-rule="evenodd" d="M12 22C17.5228 22 22 17.5228 22 12C22 6.47715 17.5228 2 12 2C6.47715 2 2 6.47715 2 12C2 17.5228 6.47715 22 12 22ZM12 24C18.6274 24 24 18.6274 24 12C24 5.37258 18.6274 0 12 0C5.37258 0 0 5.37258 0 12C0 18.6274 5.37258 24 12 24Z" fill="#26262E"/>
</g>
</svg>
