<svg width="24" height="20" viewBox="0 0 24 20" fill="none" xmlns="http://www.w3.org/2000/svg">
<path id="Vector" d="M24 2.67763C23.1014 3.06914 22.1481 3.32558 21.172 3.43837C22.1996 2.83281 22.9686 1.88046 23.336 0.75854C22.3696 1.3222 21.3129 1.7202 20.211 1.93558C19.536 1.22537 18.6594 0.731473 17.6954 0.518104C16.7313 0.304735 15.7243 0.381767 14.8053 0.739184C13.8863 1.0966 13.0978 1.71787 12.5424 2.5222C11.987 3.32653 11.6903 4.27671 11.691 5.2492C11.691 5.63006 11.734 5.99912 11.821 6.35243C9.86251 6.25756 7.94632 5.75762 6.19729 4.88518C4.44826 4.01274 2.90565 2.7874 1.67 1.28899C1.23098 2.02859 1.0007 2.87018 1.003 3.72673C1.003 5.40666 1.87 6.89076 3.194 7.75976C2.41196 7.73534 1.64726 7.52677 0.964 7.15155V7.21356C0.963323 8.3327 1.35643 9.41755 2.07651 10.2837C2.79659 11.1499 3.79922 11.744 4.914 11.965C4.18907 12.1607 3.42812 12.1896 2.69 12.0497C3.00441 13.0124 3.61654 13.8546 4.44088 14.4583C5.26523 15.0621 6.26061 15.3974 7.288 15.4174C6.26664 16.2064 5.09721 16.7894 3.84665 17.133C2.59608 17.4767 1.28893 17.5742 0 17.4201C2.25052 18.8455 4.87074 19.6023 7.547 19.6C16.605 19.6 21.559 12.215 21.559 5.81016C21.559 5.60349 21.551 5.39092 21.543 5.18326C22.5055 4.49736 23.3373 3.64944 24 2.67861V2.67763Z" fill="#26262E"/>
</svg>
