<svg width="22" height="21" viewBox="0 0 22 21" fill="none" xmlns="http://www.w3.org/2000/svg">
<path id="Vector" d="M6.6 9.9C6.91167 9.9 7.1731 9.7944 7.3843 9.5832C7.59477 9.37273 7.7 9.11167 7.7 8.8C7.7 8.48833 7.59477 8.2269 7.3843 8.0157C7.1731 7.80523 6.91167 7.7 6.6 7.7C6.28833 7.7 6.0269 7.80523 5.8157 8.0157C5.60523 8.2269 5.5 8.48833 5.5 8.8C5.5 9.11167 5.60523 9.37273 5.8157 9.5832C6.0269 9.7944 6.28833 9.9 6.6 9.9ZM11 9.9C11.3117 9.9 11.5731 9.7944 11.7843 9.5832C11.9948 9.37273 12.1 9.11167 12.1 8.8C12.1 8.48833 11.9948 8.2269 11.7843 8.0157C11.5731 7.80523 11.3117 7.7 11 7.7C10.6883 7.7 10.4273 7.80523 10.2168 8.0157C10.0056 8.2269 9.9 8.48833 9.9 8.8C9.9 9.11167 10.0056 9.37273 10.2168 9.5832C10.4273 9.7944 10.6883 9.9 11 9.9ZM15.4 9.9C15.7117 9.9 15.9727 9.7944 16.1832 9.5832C16.3944 9.37273 16.5 9.11167 16.5 8.8C16.5 8.48833 16.3944 8.2269 16.1832 8.0157C15.9727 7.80523 15.7117 7.7 15.4 7.7C15.0883 7.7 14.8273 7.80523 14.6168 8.0157C14.4056 8.2269 14.3 8.48833 14.3 8.8C14.3 9.11167 14.4056 9.37273 14.6168 9.5832C14.8273 9.7944 15.0883 9.9 15.4 9.9ZM0 19.3325V2.2C0 1.595 0.2156 1.0769 0.6468 0.6457C1.07727 0.215233 1.595 0 2.2 0H19.8C20.405 0 20.9231 0.215233 21.3543 0.6457C21.7848 1.0769 22 1.595 22 2.2V15.4C22 16.005 21.7848 16.5231 21.3543 16.9543C20.9231 17.3848 20.405 17.6 19.8 17.6H4.4L1.87 20.13C1.52167 20.4783 1.12273 20.5561 0.6732 20.3632C0.2244 20.1711 0 19.8275 0 19.3325ZM2.2 16.6925L3.4925 15.4H19.8V2.2H2.2V16.6925ZM2.2 2.2V16.6925V2.2Z" fill="#26262E"/>
</svg>
