<svg width="24" height="24" viewBox="0 0 24 24" fill="none" xmlns="http://www.w3.org/2000/svg">
<path id="verified" d="M21.1406 12L22.5938 13.8164C22.7344 13.9961 22.8438 14.1914 22.9219 14.4023C23 14.6133 23.0391 14.8359 23.0391 15.0703C23.0391 15.3047 23.0039 15.5273 22.9336 15.7383C22.8633 15.9492 22.7617 16.1406 22.6289 16.3125C22.4961 16.4844 22.3359 16.6328 22.1484 16.7578C21.9609 16.8828 21.7578 16.9766 21.5391 17.0391L19.3008 17.6602C19.3164 18.0586 19.3359 18.4609 19.3594 18.8672C19.3828 19.2734 19.3984 19.6797 19.4062 20.0859C19.4062 20.3672 19.3555 20.6289 19.2539 20.8711C19.1523 21.1133 19.0078 21.3242 18.8203 21.5039C18.6328 21.6836 18.418 21.8281 18.1758 21.9375C17.9336 22.0469 17.668 22.1016 17.3789 22.1016C17.1367 22.1016 16.8984 22.0586 16.6641 21.9727L14.4961 21.1523L13.2188 23.0859C13.0312 23.375 12.7891 23.5977 12.4922 23.7539C12.1953 23.9102 11.8711 23.9922 11.5195 24C11.1758 24 10.8555 23.9219 10.5586 23.7656C10.2617 23.6094 10.0156 23.3828 9.82031 23.0859L8.54297 21.1523L6.375 21.9727C6.14062 22.0586 5.90234 22.1016 5.66016 22.1016C5.37891 22.1016 5.11719 22.0508 4.875 21.9492C4.63281 21.8477 4.41797 21.7031 4.23047 21.5156C4.04297 21.3281 3.89844 21.1133 3.79688 20.8711C3.69531 20.6289 3.64063 20.3672 3.63281 20.0859C3.63281 19.6797 3.64453 19.2734 3.66797 18.8672C3.69141 18.4609 3.71484 18.0586 3.73828 17.6602L1.5 17.0391C1.27344 16.9766 1.07031 16.8828 0.890625 16.7578C0.710938 16.6328 0.554687 16.4844 0.421875 16.3125C0.289063 16.1406 0.1875 15.9492 0.117188 15.7383C0.046875 15.5273 0.0078125 15.3047 0 15.0703C0 14.8437 0.0390625 14.625 0.117188 14.4141C0.195312 14.2031 0.304688 14.0039 0.445312 13.8164L1.89844 12L0.445312 10.1836C0.148437 9.81641 0 9.39844 0 8.92969C0 8.69531 0.0351562 8.47266 0.105469 8.26172C0.175781 8.05078 0.277344 7.85938 0.410156 7.6875C0.542969 7.51562 0.699219 7.36719 0.878906 7.24219C1.05859 7.11719 1.26562 7.02344 1.5 6.96094L3.73828 6.33984C3.72266 5.94141 3.70312 5.53906 3.67969 5.13281C3.65625 4.72656 3.64063 4.32031 3.63281 3.91406C3.63281 3.63281 3.68359 3.37109 3.78516 3.12891C3.88672 2.88672 4.03125 2.67578 4.21875 2.49609C4.40625 2.31641 4.62109 2.17187 4.86328 2.0625C5.10547 1.95313 5.37109 1.89844 5.66016 1.89844C5.90234 1.89844 6.14062 1.94141 6.375 2.02734L8.54297 2.84766L9.82031 0.914062C10.0078 0.625 10.25 0.402344 10.5469 0.246094C10.8438 0.0898438 11.168 0.0078125 11.5195 0C11.8633 0 12.1836 0.078125 12.4805 0.234375C12.7773 0.390625 13.0234 0.617187 13.2188 0.914062L14.4961 2.84766L16.6641 2.02734C16.8984 1.94141 17.1367 1.89844 17.3789 1.89844C17.6602 1.89844 17.9219 1.94922 18.1641 2.05078C18.4062 2.15234 18.6211 2.29688 18.8086 2.48438C18.9961 2.67188 19.1406 2.88672 19.2422 3.12891C19.3438 3.37109 19.3984 3.63281 19.4062 3.91406C19.4062 4.32031 19.3945 4.72656 19.3711 5.13281C19.3477 5.53906 19.3242 5.94141 19.3008 6.33984L21.5391 6.96094C21.7578 7.02344 21.9609 7.11719 22.1484 7.24219C22.3359 7.36719 22.4922 7.51562 22.6172 7.6875C22.7422 7.85938 22.8438 8.05078 22.9219 8.26172C23 8.47266 23.0391 8.69531 23.0391 8.92969C23.0391 9.39844 22.8906 9.81641 22.5938 10.1836L21.1406 12ZM10.0195 16.3242L16.6875 9.66797L15.3516 8.33203L10.0195 13.6758L7.6875 11.332L6.35156 12.668L10.0195 16.3242Z" fill="#49ADF4"/>
</svg>
