<svg width="24" height="24" viewBox="0 0 24 24" fill="none" xmlns="http://www.w3.org/2000/svg">
<path id="Wpp Icon" d="M12.0503 0.387085C5.46348 0.387085 0.102968 5.55018 0.100645 11.8955C0.0990968 13.9246 0.650323 15.905 1.69548 17.6493L0 23.6129L6.33523 22.0126C8.09746 22.9344 10.0569 23.4153 12.0457 23.4139H12.0503C18.6372 23.4139 23.9977 18.2501 24 11.9048C24.0015 8.83121 22.7597 5.93805 20.503 3.76334C18.247 1.58786 15.247 0.387859 12.0503 0.387085ZM12.0503 21.4699H12.0465C10.2643 21.4699 8.51613 21.0085 6.99097 20.1368L6.6271 19.9293L2.86916 20.8784L3.87252 17.3481L3.63639 16.9866C2.64457 15.4739 2.11659 13.7043 2.11742 11.8955C2.11974 6.62089 6.576 2.33108 12.0542 2.33108C14.7066 2.33186 17.2003 3.32825 19.0761 5.13599C20.952 6.94373 21.984 9.3476 21.9825 11.904C21.9801 17.1786 17.5254 21.4699 12.0503 21.4699ZM17.4983 14.3048C17.1995 14.1615 15.7316 13.4655 15.4575 13.3688C15.1843 13.2735 14.9853 13.224 14.7863 13.512C14.5881 13.8 14.0152 14.448 13.8418 14.6392C13.6668 14.8312 13.4926 14.8544 13.1938 14.7112C12.895 14.5672 11.9326 14.2637 10.793 13.2836C9.90503 12.5218 9.30581 11.5804 9.13161 11.2916C8.95742 11.0044 9.11303 10.8488 9.26245 10.7055C9.39639 10.5778 9.56129 10.3703 9.70994 10.2023C9.85858 10.0343 9.90813 9.91431 10.0088 9.72231C10.1079 9.53109 10.0583 9.36231 9.98323 9.21909C9.90813 9.07431 9.312 7.65908 9.06194 7.08386C8.82039 6.52334 8.57419 6.59844 8.39071 6.58915C8.21652 6.58141 8.01832 6.57909 7.81781 6.57909C7.62039 6.57909 7.296 6.65109 7.02193 6.93909C6.74864 7.22709 5.97677 7.92231 5.97677 9.33754C5.97677 10.7535 7.04671 12.1208 7.19613 12.3128C7.34555 12.504 9.30194 15.4095 12.2973 16.656C13.0095 16.951 13.5654 17.1282 13.9997 17.2614C14.7151 17.4805 15.3662 17.4488 15.8803 17.3752C16.4532 17.2924 17.647 16.68 17.8947 16.0088C18.144 15.3375 18.144 14.7615 18.0697 14.6415C17.9969 14.5215 17.7972 14.4495 17.4983 14.3048Z" fill="#26262E"/>
</svg>
